<svg width="84" height="80" viewBox="0 0 84 80" fill="none" xmlns="http://www.w3.org/2000/svg">
    <g filter="url(#filter0_d_838_2327)">
        <g clip-path="url(#clip0_838_2327)">
            <rect x="14" y="12" width="56" height="56" rx="16" fill="#6B2106"/>
            <path d="M47.1429 48.1252C47.0347 47.9387 46.7958 47.8752 46.6091 47.9834L46.594 47.9921C46.4075 48.1004 46.344 48.3394 46.4522 48.526C46.4779 48.5704 46.5122 48.6092 46.5529 48.6404C46.5937 48.6715 46.6402 48.6943 46.6897 48.7075C46.7393 48.7207 46.791 48.7239 46.8419 48.7171C46.8927 48.7103 46.9417 48.6935 46.9861 48.6678L47.0011 48.6591C47.1877 48.5509 47.2511 48.3118 47.1429 48.1252Z" fill="#FEFEFE" stroke="#FEFEFE" stroke-width="0.5"/>
            <path d="M50.6599 35.0031C49.3247 32.6904 47.1688 31.0361 44.5893 30.345C42.0099 29.6538 39.3157 30.0085 37.003 31.3437C34.6904 32.6789 33.0361 34.8348 32.3449 37.4143C31.6538 39.9937 32.0085 42.6879 33.3437 45.0006C34.5414 47.0751 36.445 48.6517 38.7038 49.4399C39.7661 49.8106 40.8832 49.9999 42.0084 49.9999C43.2219 49.9999 44.4331 49.7794 45.5781 49.3393C45.7795 49.262 45.8799 49.036 45.8025 48.8346C45.7251 48.6332 45.4991 48.5327 45.2978 48.6102C42.2501 49.7816 38.9508 49.2493 36.4859 47.3991L36.8358 45.5723L37.0045 45.5176C37.6417 45.3105 37.9917 44.6237 37.7847 43.9864L37.661 43.6056C37.6324 43.5181 37.6325 43.4237 37.6614 43.3363C37.715 43.1726 37.7333 42.9993 37.715 42.8281C37.6966 42.6568 37.6421 42.4914 37.5549 42.3428C37.4678 42.1942 37.35 42.0658 37.2095 41.9662C37.069 41.8666 36.9089 41.7979 36.7398 41.7648L35.8582 41.5926L34.1571 40.2992C34.1069 40.261 34.0482 40.2356 33.986 40.225C33.9238 40.2145 33.86 40.2191 33.8 40.2386L32.804 40.5622C32.783 40.207 32.7825 39.8509 32.8027 39.4956C32.8302 39.5209 32.8571 39.5468 32.8833 39.5734C32.9029 39.6061 32.9271 39.6358 32.9552 39.6614C33.0365 39.7355 33.1102 39.7691 33.2649 39.7691C33.4071 39.7691 33.6175 39.7407 33.9649 39.6894C34.1854 39.6566 34.4056 39.6218 34.6255 39.5853C34.6902 39.5744 34.751 39.5475 34.8025 39.507C34.854 39.4664 34.8944 39.4136 34.9202 39.3533C34.9459 39.293 34.956 39.2272 34.9496 39.162C34.9432 39.0968 34.9206 39.0342 34.8837 38.9801L34.4047 38.2776L35.0907 37.787C35.1364 37.7543 35.1745 37.7122 35.2025 37.6634L36.2659 35.807L36.6945 35.3477C37.1325 34.8782 37.2575 34.1914 37.0129 33.5978C36.8686 33.2477 36.6166 32.9562 36.3014 32.7598C36.6474 32.4876 37.0124 32.2404 37.3937 32.0202C38.8131 31.2007 40.3622 30.8036 41.8949 30.7884L41.1974 31.6633L38.6109 32.5701C38.559 32.5883 38.5115 32.6173 38.4715 32.6551C38.4316 32.6929 38.4001 32.7388 38.3791 32.7897L37.6567 34.5408C37.6315 34.602 37.6222 34.6686 37.6298 34.7343C37.6373 34.8001 37.6615 34.8628 37.6999 34.9167L38.7549 36.3945C38.6038 36.5323 38.4567 36.7331 38.2811 36.9824C38.204 37.0918 38.1313 37.195 38.081 37.2529C38.0377 37.3026 37.9941 37.3521 37.9502 37.4013C37.7233 37.6565 37.4887 37.9205 37.322 38.2732C36.9555 39.0489 37.0296 39.9506 37.5152 40.6263C37.9847 41.2796 38.7589 41.6117 39.5851 41.5145C39.7197 41.4988 39.8453 41.4677 39.9667 41.4376C40.3016 41.3548 40.4077 41.3465 40.5151 41.447C40.5674 41.496 40.5722 41.5052 40.5711 41.6712C40.5704 41.7768 40.5696 41.9082 40.606 42.0583C40.6643 42.2983 40.815 42.4642 40.9361 42.5975C40.9963 42.6637 41.0586 42.7322 41.0778 42.7782C41.1996 43.0702 41.1465 43.2318 41.0303 43.5861C41.0201 43.6171 41.01 43.6481 41 43.6791C40.8234 44.2258 41.0696 44.768 41.2867 45.2464C41.3573 45.4018 41.4239 45.5484 41.4675 45.678C41.8187 46.7202 42.082 46.9588 42.2933 47.0549C42.404 47.1052 42.5185 47.1273 42.6342 47.1273C43.1973 47.1272 43.7849 46.6044 44.0548 46.273C44.2243 46.0648 44.2661 45.8564 44.2965 45.7042C44.3117 45.6285 44.3237 45.5688 44.3465 45.5297C44.3814 45.4699 44.4226 45.4236 44.4746 45.3649C44.5794 45.247 44.7097 45.1003 44.7941 44.8343C44.8583 44.6323 44.9049 44.5827 45.0592 44.4184C45.0881 44.3877 45.1169 44.3568 45.1455 44.3258C45.6657 43.7597 45.5317 43.3272 45.3898 42.8693C45.2704 42.4841 45.4793 42.2377 45.9843 41.7674C46.2032 41.5635 46.4295 41.3527 46.6045 41.0995C46.681 40.9886 46.914 40.6514 46.7698 40.3171C46.6285 39.9894 46.2694 39.9343 45.9809 39.8901C45.867 39.8726 45.6948 39.8462 45.64 39.8104C45.3983 39.6523 45.2505 39.3226 45.1074 39.0036C45.079 38.9402 45.0509 38.8775 45.0224 38.8167C44.9716 38.7082 44.9209 38.5769 44.8672 38.4379C44.7251 38.0701 44.564 37.6532 44.2898 37.3625C44.0434 37.1014 43.5788 36.9756 43.1689 36.8646C43.0311 36.8273 42.901 36.7921 42.8151 36.7604C42.7433 36.7338 42.6653 36.729 42.5907 36.7465C42.3912 36.7933 42.2668 36.8448 42.1744 36.9189C42.1499 36.9384 42.0776 37.0027 42.0353 37.106C41.8923 37.0373 41.6956 36.9063 41.5746 36.8256L41.5671 36.8206C41.6079 36.6574 41.571 36.5264 41.5323 36.4446C41.3141 35.983 40.5898 36.0192 40.4469 36.0313C40.3657 36.0381 40.263 36.0418 40.1544 36.0456C39.9837 36.0516 39.7951 36.0584 39.6085 36.0794L39.6181 36.0526C39.7598 35.6579 40.1367 35.3928 40.556 35.3928H40.778C40.9937 35.3928 41.1686 35.2179 41.1686 35.0022C41.1686 34.7865 40.9937 34.6116 40.778 34.6116H40.556C39.9335 34.6116 39.3634 34.9392 39.0439 35.4549L38.4613 34.6388L39.0345 33.2493L41.562 32.3632C41.6313 32.3389 41.6924 32.2956 41.7382 32.2381L42.8617 30.8288C45.7326 31.1019 48.4349 32.7115 49.9835 35.3936C50.3882 36.0947 50.6977 36.8466 50.9039 37.6294L50.7383 37.777C50.6312 37.8728 50.5451 37.9896 50.4853 38.1202C50.4255 38.2508 50.3933 38.3924 50.3907 38.536C50.3906 38.5391 50.3906 38.5423 50.3905 38.5454L50.1207 37.8035C50.0807 37.6932 50.0211 37.591 49.9448 37.5018L49.4636 36.9384C49.3716 36.8306 49.2573 36.744 49.1286 36.6847C49 36.6254 48.8599 36.5947 48.7182 36.5948H48.1292C48.0268 36.5947 47.9263 36.6225 47.8384 36.6751C47.7505 36.7277 47.6786 36.8032 47.6304 36.8936C47.582 36.9839 47.559 37.0856 47.564 37.1879C47.5689 37.2902 47.6016 37.3892 47.6585 37.4744L47.7181 37.5639C47.3375 37.8912 46.8972 38.1531 46.4285 38.3297L45.6211 36.7831V36.4381C45.6211 36.3853 45.6104 36.333 45.5896 36.2844C45.5688 36.2359 45.5384 36.192 45.5002 36.1556L44.7731 35.4615C44.733 35.4232 44.6852 35.3939 44.6329 35.3755L43.9784 35.1455C43.7747 35.0739 43.5519 35.181 43.4804 35.3845C43.4089 35.588 43.5158 35.811 43.7194 35.8825L44.2945 36.0847L44.8399 36.6052V36.879C44.8399 36.9419 44.8551 37.0039 44.8843 37.0598L45.8951 38.996C45.939 39.0802 46.0121 39.1455 46.1007 39.1797C46.1893 39.2139 46.2874 39.2146 46.3765 39.1817L46.6708 39.0732C47.3546 38.821 47.9884 38.4153 48.5037 37.9001C48.5675 37.8362 48.6073 37.7522 48.6162 37.6624C48.6251 37.5725 48.6026 37.4824 48.5525 37.4072L48.5317 37.376H48.7182C48.747 37.376 48.7755 37.3822 48.8016 37.3943C48.8277 37.4063 48.851 37.4239 48.8696 37.4458L49.3508 38.0092C49.3664 38.0274 49.3783 38.0479 49.3865 38.0705L49.9176 39.5307C49.9401 39.5925 49.9777 39.6475 50.0271 39.6908C50.0765 39.7341 50.136 39.7643 50.2001 39.7785C50.2642 39.7927 50.3309 39.7905 50.3939 39.7722C50.457 39.7538 50.5144 39.7198 50.5608 39.6734L50.8136 39.4206C50.9737 39.2605 51.0839 39.0579 51.1365 38.8334C51.5274 41.9664 50.299 45.2073 47.7023 47.2454C47.5326 47.3785 47.503 47.624 47.6362 47.7938C47.7694 47.9635 48.0149 47.9931 48.1846 47.8598C50.0593 46.3885 51.3472 44.284 51.8111 41.934C52.2793 39.5614 51.8705 37.0999 50.6599 35.0031Z" fill="#FEFEFE"/>
            <path d="M35.6191 42.3418C35.5604 42.3304 35.5052 42.3056 35.4576 42.2694L33.8469 41.0448L32.8855 41.3572C33.0499 42.4726 33.423 43.5758 34.0202 44.61C34.5097 45.4579 35.1128 46.2009 35.7996 46.8295L36.112 45.1987C36.1252 45.13 36.1565 45.0662 36.2027 45.0138C36.249 44.9613 36.3084 44.9223 36.3749 44.9007L36.7631 44.7746C36.9906 44.7006 37.1157 44.4553 37.0417 44.2277L36.918 43.8469C36.8378 43.6019 36.8382 43.3376 36.919 43.0927C36.9583 42.9728 36.9449 42.8468 36.881 42.7379M35.6105 35.3794C35.6255 35.3533 35.6434 35.329 35.6639 35.307L36.1234 34.8147C36.3535 34.5681 36.4192 34.2073 36.2906 33.8955C36.1764 33.6182 35.9426 33.4057 35.6577 33.316C34.1697 34.7279 33.2236 36.5776 32.9064 38.541C33.0987 38.7093 33.2278 38.8245 33.3206 38.9107C33.3447 38.933 33.3686 38.9555 33.3923 38.9781C33.5116 38.9651 33.691 38.9405 33.891 38.9108L33.5441 38.402C33.4866 38.3177 33.4644 38.2142 33.4823 38.1137C33.5001 38.0132 33.5566 37.9236 33.6397 37.8643M41.1413 37.4757C41.0333 37.4038 40.9313 37.3357 40.858 37.2965C40.7738 37.2515 40.709 37.1772 40.6759 37.0876C40.6428 36.9981 40.6437 36.8995 40.6783 36.8105C40.6231 36.8063 40.5646 36.8054 40.5119 36.8098C40.4121 36.8182 40.3003 36.8222 40.182 36.8264C39.8867 36.8368 39.4824 36.8512 39.3081 36.9492C39.2226 37.0024 39.0256 37.2821 38.9197 37.4323C38.8311 37.5582 38.7473 37.6771 38.6711 37.7649C38.6253 37.8177 38.5796 37.8691 38.5342 37.9202C38.3265 38.1538 38.1472 38.3556 38.0285 38.6068C37.7833 39.126 37.8297 39.7251 38.1497 40.1703C38.4555 40.5959 38.9455 40.8029 39.4942 40.7386C39.58 40.7286 39.6768 40.7046 39.7792 40.6793C40.1128 40.5968 40.6169 40.4721 41.0492 40.8767C41.3558 41.1638 41.3537 41.4722 41.3524 41.6763C41.3519 41.752 41.3515 41.8173 41.3652 41.8739C41.3765 41.9204 41.4497 42.001 41.5144 42.0721C41.6143 42.1821 41.7276 42.3068 41.7988 42.4773C42.0325 43.0375 41.9064 43.4222 41.7727 43.8297C41.7631 43.8588 41.7533 43.8887 41.7434 43.9192C41.6597 44.1782 41.8317 44.5571 41.9981 44.9235C42.0736 45.0897 42.1516 45.2616 42.2079 45.4286C42.436 46.1057 42.587 46.3013 42.6287 46.346C42.6652 46.3482 42.7724 46.3323 42.956 46.2157C43.1535 46.0902 43.3459 45.9063 43.4491 45.7797C43.4944 45.724 43.5075 45.6661 43.5307 45.5507C43.5542 45.4334 43.5835 45.2873 43.6721 45.1357C43.746 45.0091 43.8262 44.9188 43.8906 44.8463C43.9711 44.7557 44.0154 44.7058 44.0496 44.598C44.1674 44.2269 44.3097 44.0754 44.4899 43.8836C44.5149 43.857 44.5417 43.8286 44.5703 43.7973C44.7807 43.5685 44.7746 43.5229 44.6438 43.1007C44.3666 42.2066 44.9684 41.6461 45.452 41.1958C45.6418 41.0191 45.8214 40.8518 45.9476 40.6758C45.9177 40.6709 45.8882 40.6663 45.8625 40.6624C45.6499 40.6298 45.409 40.5929 45.2125 40.4644C44.7791 40.1811 44.5748 39.7254 44.3946 39.3234C44.3679 39.2638 44.3416 39.205 44.3149 39.148C44.2526 39.015 44.1972 38.8715 44.1385 38.7195C44.0222 38.4188 43.8906 38.0779 43.7216 37.8988C43.6265 37.798 43.196 37.6814 42.9647 37.6188C42.8974 37.6006 42.8318 37.5828 42.7694 37.565C42.7434 37.6142 42.7078 37.6577 42.6648 37.693C42.6592 37.6982 42.6539 37.7039 42.6483 37.7096M50.6599 35.0031C49.3247 32.6904 47.1688 31.0361 44.5893 30.345C42.0099 29.6538 39.3157 30.0085 37.003 31.3437C34.6904 32.6789 33.0361 34.8348 32.3449 37.4143C31.6538 39.9937 32.0085 42.6879 33.3437 45.0006C34.5414 47.0751 36.445 48.6517 38.7038 49.4399C39.7661 49.8106 40.8832 49.9999 42.0084 49.9999C43.2219 49.9999 44.4331 49.7794 45.5781 49.3393C45.7795 49.262 45.8799 49.036 45.8025 48.8346C45.7251 48.6332 45.4991 48.5327 45.2978 48.6102C42.2501 49.7816 38.9508 49.2493 36.4859 47.3991L36.8358 45.5723L37.0045 45.5176C37.6417 45.3105 37.9917 44.6237 37.7847 43.9864L37.661 43.6056C37.6324 43.5181 37.6325 43.4237 37.6614 43.3363C37.715 43.1726 37.7333 42.9993 37.715 42.8281C37.6966 42.6568 37.6421 42.4914 37.5549 42.3428C37.4678 42.1942 37.35 42.0658 37.2095 41.9662C37.069 41.8666 36.9089 41.7979 36.7398 41.7648L35.8582 41.5926L34.1571 40.2992C34.1069 40.261 34.0482 40.2356 33.986 40.225C33.9238 40.2145 33.86 40.2191 33.8 40.2386L32.804 40.5622C32.783 40.207 32.7825 39.8509 32.8027 39.4956C32.8302 39.5209 32.8571 39.5468 32.8833 39.5734C32.9029 39.6061 32.9271 39.6358 32.9552 39.6614C33.0365 39.7355 33.1102 39.7691 33.2649 39.7691C33.4071 39.7691 33.6175 39.7407 33.9649 39.6894C34.1854 39.6566 34.4056 39.6218 34.6255 39.5853C34.6902 39.5744 34.751 39.5475 34.8025 39.507C34.854 39.4664 34.8944 39.4136 34.9202 39.3533C34.9459 39.293 34.956 39.2272 34.9496 39.162C34.9432 39.0968 34.9206 39.0342 34.8837 38.9801L34.4047 38.2776L35.0907 37.787C35.1364 37.7543 35.1745 37.7122 35.2025 37.6634L36.2659 35.807L36.6945 35.3477C37.1325 34.8782 37.2575 34.1914 37.0129 33.5978C36.8686 33.2477 36.6166 32.9562 36.3014 32.7598C36.6474 32.4876 37.0124 32.2404 37.3937 32.0202C38.8131 31.2007 40.3622 30.8036 41.8949 30.7884L41.1974 31.6633L38.6109 32.5701C38.559 32.5883 38.5115 32.6173 38.4715 32.6551C38.4316 32.6929 38.4001 32.7388 38.3791 32.7897L37.6567 34.5408C37.6315 34.602 37.6222 34.6686 37.6298 34.7343C37.6373 34.8001 37.6615 34.8628 37.6999 34.9167L38.7549 36.3945C38.6038 36.5323 38.4567 36.7331 38.2811 36.9824C38.204 37.0918 38.1313 37.195 38.081 37.2529C38.0377 37.3026 37.9941 37.3521 37.9502 37.4013C37.7233 37.6565 37.4887 37.9205 37.322 38.2732C36.9555 39.0489 37.0296 39.9506 37.5152 40.6263C37.9847 41.2796 38.7589 41.6117 39.5851 41.5145C39.7197 41.4988 39.8453 41.4677 39.9667 41.4376C40.3016 41.3548 40.4077 41.3465 40.5151 41.447C40.5674 41.496 40.5722 41.5052 40.5711 41.6712C40.5704 41.7768 40.5696 41.9082 40.606 42.0583C40.6643 42.2983 40.815 42.4642 40.9361 42.5975C40.9963 42.6637 41.0586 42.7322 41.0778 42.7782C41.1996 43.0702 41.1465 43.2318 41.0303 43.5861C41.0201 43.6171 41.01 43.6481 41 43.6791C40.8234 44.2258 41.0696 44.768 41.2867 45.2464C41.3573 45.4018 41.4239 45.5484 41.4675 45.678C41.8187 46.7202 42.082 46.9588 42.2933 47.0549C42.404 47.1052 42.5185 47.1273 42.6342 47.1273C43.1973 47.1272 43.7849 46.6044 44.0548 46.273C44.2243 46.0648 44.2661 45.8564 44.2965 45.7042C44.3117 45.6285 44.3237 45.5688 44.3465 45.5297C44.3814 45.4699 44.4226 45.4236 44.4746 45.3649C44.5794 45.247 44.7097 45.1003 44.7941 44.8343C44.8583 44.6323 44.9049 44.5827 45.0592 44.4184C45.0881 44.3877 45.1169 44.3568 45.1455 44.3258C45.6657 43.7597 45.5317 43.3272 45.3898 42.8693C45.2704 42.4841 45.4793 42.2377 45.9843 41.7674C46.2032 41.5635 46.4295 41.3527 46.6045 41.0995C46.681 40.9886 46.914 40.6514 46.7698 40.3171C46.6285 39.9894 46.2694 39.9343 45.9809 39.8901C45.867 39.8726 45.6948 39.8462 45.64 39.8104C45.3983 39.6523 45.2505 39.3226 45.1074 39.0036C45.079 38.9402 45.0509 38.8775 45.0224 38.8167C44.9716 38.7082 44.9209 38.5769 44.8672 38.4379C44.7251 38.0701 44.564 37.6532 44.2898 37.3625C44.0434 37.1014 43.5788 36.9756 43.1689 36.8646C43.0311 36.8273 42.901 36.7921 42.8151 36.7604C42.7433 36.7338 42.6653 36.729 42.5907 36.7465C42.3912 36.7933 42.2668 36.8448 42.1744 36.9189C42.1499 36.9384 42.0776 37.0027 42.0353 37.106C41.8923 37.0373 41.6956 36.9063 41.5746 36.8256L41.5671 36.8206C41.6079 36.6574 41.571 36.5264 41.5323 36.4446C41.3141 35.983 40.5897 36.0192 40.4469 36.0313C40.3657 36.0381 40.263 36.0418 40.1544 36.0456C39.9837 36.0516 39.7951 36.0584 39.6085 36.0794L39.6181 36.0526C39.7598 35.6579 40.1367 35.3928 40.556 35.3928H40.778C40.9937 35.3928 41.1686 35.2179 41.1686 35.0022C41.1686 34.7865 40.9937 34.6116 40.778 34.6116H40.556C39.9335 34.6116 39.3634 34.9392 39.0439 35.4549L38.4613 34.6388L39.0345 33.2493L41.562 32.3632C41.6313 32.3389 41.6924 32.2956 41.7382 32.2381L42.8617 30.8288C45.7326 31.1019 48.4349 32.7115 49.9835 35.3936C50.3882 36.0947 50.6977 36.8466 50.9039 37.6294L50.7383 37.777C50.6312 37.8728 50.5451 37.9896 50.4853 38.1202C50.4255 38.2508 50.3933 38.3924 50.3907 38.536C50.3906 38.5391 50.3906 38.5423 50.3905 38.5454L50.1207 37.8035C50.0807 37.6932 50.0211 37.591 49.9448 37.5018L49.4636 36.9384C49.3716 36.8306 49.2573 36.744 49.1286 36.6847C49 36.6254 48.8599 36.5947 48.7182 36.5948H48.1292C48.0268 36.5947 47.9263 36.6225 47.8384 36.6751C47.7505 36.7277 47.6786 36.8032 47.6304 36.8936C47.582 36.9839 47.559 37.0856 47.564 37.1879C47.5689 37.2902 47.6016 37.3892 47.6585 37.4744L47.7181 37.5639C47.3375 37.8912 46.8972 38.1531 46.4285 38.3297L45.6211 36.7831V36.4381C45.6211 36.3853 45.6104 36.333 45.5896 36.2844C45.5688 36.2359 45.5384 36.192 45.5002 36.1556L44.7731 35.4615C44.733 35.4232 44.6852 35.3939 44.6329 35.3755L43.9784 35.1455C43.7747 35.0739 43.5519 35.181 43.4804 35.3845C43.4089 35.588 43.5158 35.811 43.7194 35.8825L44.2945 36.0847L44.8399 36.6052V36.879C44.8399 36.9419 44.8551 37.0039 44.8843 37.0598L45.8951 38.996C45.939 39.0802 46.0121 39.1455 46.1007 39.1797C46.1893 39.2139 46.2874 39.2146 46.3765 39.1817L46.6708 39.0732C47.3546 38.821 47.9884 38.4153 48.5037 37.9001C48.5675 37.8362 48.6073 37.7522 48.6162 37.6624C48.6251 37.5725 48.6026 37.4824 48.5525 37.4072L48.5317 37.376H48.7182C48.747 37.376 48.7755 37.3822 48.8016 37.3943C48.8277 37.4063 48.851 37.4239 48.8696 37.4458L49.3508 38.0092C49.3664 38.0274 49.3783 38.0479 49.3865 38.0705L49.9176 39.5307C49.9401 39.5925 49.9777 39.6475 50.0271 39.6908C50.0765 39.7341 50.136 39.7643 50.2001 39.7785C50.2642 39.7927 50.3309 39.7905 50.3939 39.7722C50.457 39.7538 50.5144 39.7198 50.5608 39.6734L50.8136 39.4206C50.9737 39.2605 51.0839 39.0579 51.1365 38.8334C51.5274 41.9664 50.299 45.2073 47.7023 47.2454C47.5326 47.3785 47.503 47.624 47.6362 47.7938C47.7694 47.9635 48.0149 47.9931 48.1846 47.8598C50.0593 46.3885 51.3472 44.284 51.8111 41.934C52.2793 39.5614 51.8705 37.0999 50.6599 35.0031Z" stroke="#FEFEFE" stroke-width="0.5"/>
            <path d="M48.0167 43.448L47.8288 42.7396C47.8087 42.6641 47.7665 42.5962 47.7074 42.5449C47.6484 42.4937 47.5753 42.4613 47.4976 42.452C47.42 42.4428 47.3413 42.4571 47.2719 42.493C47.2024 42.529 47.1453 42.5849 47.1079 42.6536C47.0651 42.7325 47.0266 42.8161 46.9893 42.8969C46.9266 43.0329 46.8618 43.1735 46.7943 43.2511C46.7564 43.2947 46.6591 43.3417 46.565 43.3871C46.3401 43.4956 46.0321 43.6442 45.9145 44.0193C45.8414 44.252 45.8687 44.436 45.8886 44.5704C45.9058 44.6869 45.9098 44.7273 45.8786 44.8006L45.8747 44.8097C45.7504 45.1015 45.519 45.6446 45.8434 46.1064C46.0749 46.4359 46.3182 46.5207 46.5073 46.5207C46.5422 46.5207 46.577 46.5179 46.6115 46.5123C47.0099 46.4471 47.3094 46.0327 47.5542 45.2078L48.0136 43.6594C48.0341 43.5905 48.0352 43.5174 48.0167 43.448ZM46.8053 44.9856C46.6806 45.4062 46.5702 45.6025 46.5065 45.6895C46.4991 45.6801 46.4911 45.6695 46.4826 45.6574C46.408 45.551 46.5195 45.2892 46.5934 45.1159L46.5973 45.1067C46.7164 44.8273 46.6845 44.6126 46.6614 44.4559C46.6465 44.3556 46.6412 44.3125 46.6598 44.2532C46.6751 44.2045 46.7667 44.1572 46.9045 44.0907C46.9657 44.0611 47.033 44.0287 47.1009 43.9894L46.8053 44.9856ZM42.5483 34.6426L42.5219 34.6334C42.3185 34.5621 42.0955 34.6691 42.0241 34.8727C41.9527 35.0763 42.0598 35.2991 42.2634 35.3705L42.2897 35.3798C42.3312 35.3944 42.375 35.4019 42.419 35.4019C42.5802 35.4019 42.7312 35.3012 42.7876 35.1405C42.859 34.9369 42.7519 34.714 42.5483 34.6426Z" fill="#FEFEFE" stroke="#FEFEFE" stroke-width="0.5"/>
            <g filter="url(#filter1_f_838_2327)">
                <path d="M30 68C30 65.7909 31.7909 64 34 64H50C52.2091 64 54 65.7909 54 68H30Z" fill="#FF4F0F"/>
            </g>
            <path d="M30 68C30 65.7909 31.7909 64 34 64H50C52.2091 64 54 65.7909 54 68H30Z" fill="#FF4F0F"/>
        </g>
        <rect x="14.5" y="12.5" width="55" height="55" rx="15.5" stroke="#FF4F0F"/>
    </g>
    <defs>
        <filter id="filter0_d_838_2327" x="0" y="-2" width="84" height="84" filterUnits="userSpaceOnUse" color-interpolation-filters="sRGB">
            <feFlood flood-opacity="0" result="BackgroundImageFix"/>
            <feColorMatrix in="SourceAlpha" type="matrix" values="0 0 0 0 0 0 0 0 0 0 0 0 0 0 0 0 0 0 127 0" result="hardAlpha"/>
            <feOffset/>
            <feGaussianBlur stdDeviation="7"/>
            <feComposite in2="hardAlpha" operator="out"/>
            <feColorMatrix type="matrix" values="0 0 0 0 1 0 0 0 0 0.309804 0 0 0 0 0.0588235 0 0 0 0.32 0"/>
            <feBlend mode="normal" in2="BackgroundImageFix" result="effect1_dropShadow_838_2327"/>
            <feBlend mode="normal" in="SourceGraphic" in2="effect1_dropShadow_838_2327" result="shape"/>
        </filter>
        <filter id="filter1_f_838_2327" x="22" y="56" width="40" height="20" filterUnits="userSpaceOnUse" color-interpolation-filters="sRGB">
            <feFlood flood-opacity="0" result="BackgroundImageFix"/>
            <feBlend mode="normal" in="SourceGraphic" in2="BackgroundImageFix" result="shape"/>
            <feGaussianBlur stdDeviation="4" result="effect1_foregroundBlur_838_2327"/>
        </filter>
        <clipPath id="clip0_838_2327">
            <rect x="14" y="12" width="56" height="56" rx="16" fill="white"/>
        </clipPath>
    </defs>
</svg>
