<svg width="18" height="18" viewBox="0 0 18 18" fill="none" xmlns="http://www.w3.org/2000/svg">
    <path d="M9 2C5.13252 2 2 5.13251 2 8.99998C2 12.8675 5.13252 16 9 16C12.8675 16 16 12.8675 16 8.99998C16 5.13248 12.8675 2 9 2ZM3.40001 8.99998C3.40001 5.906 5.90601 3.39998 9.00003 3.39998C10.295 3.39998 11.4815 3.84449 12.43 4.57949L4.57949 12.43C3.84449 11.4815 3.40001 10.295 3.40001 8.99998ZM9 14.6C7.70499 14.6 6.51849 14.1555 5.57001 13.4205L13.4205 5.57C14.1555 6.51851 14.6 7.70501 14.6 8.99998C14.6 12.094 12.094 14.6 9 14.6Z" fill="#FEFEFE"/>
</svg>
