<svg width="20" height="20" viewBox="0 0 20 20" fill="none" xmlns="http://www.w3.org/2000/svg">
    <path d="M10 5C11.0355 5 11.875 4.16053 11.875 3.125C11.875 2.08947 11.0355 1.25 10 1.25C8.96447 1.25 8.125 2.08947 8.125 3.125C8.125 4.16053 8.96447 5 10 5Z" fill="#FEFEFE"/>
    <path d="M10 11.875C11.0355 11.875 11.875 11.0355 11.875 10C11.875 8.96447 11.0355 8.125 10 8.125C8.96447 8.125 8.125 8.96447 8.125 10C8.125 11.0355 8.96447 11.875 10 11.875Z" fill="#FEFEFE"/>
    <path d="M10 18.75C11.0355 18.75 11.875 17.9105 11.875 16.875C11.875 15.8395 11.0355 15 10 15C8.96447 15 8.125 15.8395 8.125 16.875C8.125 17.9105 8.96447 18.75 10 18.75Z" fill="#FEFEFE"/>
</svg>
