<svg width="36" height="36" viewBox="0 0 36 36" fill="none" xmlns="http://www.w3.org/2000/svg">
    <rect x="0.5" y="0.5" width="35" height="35" rx="17.5" fill="#272727"/>
    <rect x="0.5" y="0.5" width="35" height="35" rx="17.5" stroke="#848484"/>
    <path fill-rule="evenodd" clip-rule="evenodd" d="M24.042 10.709V14.0423C24.042 14.2081 24.1078 14.367 24.225 14.4843C24.3423 14.6015 24.5012 14.6673 24.667 14.6673C24.8328 14.6673 24.9917 14.6015 25.1089 14.4843C25.2261 14.367 25.292 14.2081 25.292 14.0423V10.709C25.292 10.5432 25.2261 10.3843 25.1089 10.267C24.9917 10.1498 24.8328 10.084 24.667 10.084C24.5012 10.084 24.3423 10.1498 24.225 10.267C24.1078 10.3843 24.042 10.5432 24.042 10.709Z" fill="#FF4F0F"/>
    <path fill-rule="evenodd" clip-rule="evenodd" d="M23 13H26.3333C26.4991 13 26.6581 12.9342 26.7753 12.8169C26.8925 12.6997 26.9583 12.5408 26.9583 12.375C26.9583 12.2092 26.8925 12.0503 26.7753 11.9331C26.6581 11.8158 26.4991 11.75 26.3333 11.75H23C22.8342 11.75 22.6753 11.8158 22.5581 11.9331C22.4408 12.0503 22.375 12.2092 22.375 12.375C22.375 12.5408 22.4408 12.6997 22.5581 12.8169C22.6753 12.9342 22.8342 13 23 13Z" fill="#FF4F0F"/>
    <path fill-rule="evenodd" clip-rule="evenodd" d="M19.667 10.5H15.5987C15.3279 10.5 15.0625 10.5754 14.8321 10.7177C14.6018 10.86 14.4156 11.0637 14.2945 11.3058L13.5053 12.885C13.4878 12.9195 13.4611 12.9485 13.4282 12.9688C13.3953 12.9891 13.3573 12.9999 13.3187 13H11.3337C10.7259 13 10.143 13.2414 9.71321 13.6712C9.28344 14.101 9.04199 14.6839 9.04199 15.2917V23.625C9.04199 24.2325 9.28366 24.8158 9.71283 25.2458C10.143 25.6752 10.7259 25.9164 11.3337 25.9167H24.667C25.2745 25.9167 25.8578 25.675 26.2878 25.2458C26.7172 24.8156 26.9584 24.2328 26.9587 23.625V16.5417C26.9587 16.3759 26.8928 16.2169 26.7756 16.0997C26.6584 15.9825 26.4994 15.9167 26.3337 15.9167C26.1679 15.9167 26.0089 15.9825 25.8917 16.0997C25.7745 16.2169 25.7087 16.3759 25.7087 16.5417V23.625C25.7082 23.9011 25.5983 24.1658 25.4031 24.3611C25.2078 24.5563 24.9431 24.6662 24.667 24.6667H11.3337C11.0575 24.6662 10.7928 24.5563 10.5976 24.3611C10.4023 24.1658 10.2924 23.9011 10.292 23.625V15.2917C10.292 14.7167 10.7587 14.25 11.3337 14.25H13.3187C13.5894 14.25 13.8548 14.1746 14.0852 14.0323C14.3155 13.89 14.5017 13.6863 14.6228 13.4442L15.412 11.865C15.4295 11.8305 15.4562 11.8015 15.4891 11.7812C15.5221 11.7609 15.56 11.7501 15.5987 11.75H19.667C19.8328 11.75 19.9917 11.6842 20.1089 11.5669C20.2261 11.4497 20.292 11.2908 20.292 11.125C20.292 10.9592 20.2261 10.8003 20.1089 10.6831C19.9917 10.5658 19.8328 10.5 19.667 10.5Z" fill="#FF4F0F"/>
    <path fill-rule="evenodd" clip-rule="evenodd" d="M18.0003 15.084C15.8153 15.084 14.042 16.8573 14.042 19.0423C14.042 21.2273 15.8153 23.0007 18.0003 23.0007C20.1853 23.0007 21.9587 21.2273 21.9587 19.0423C21.9587 16.8573 20.1853 15.084 18.0003 15.084ZM18.0003 16.334C18.707 16.3515 19.3788 16.6446 19.8724 17.1506C20.366 17.6566 20.6423 18.3354 20.6423 19.0423C20.6423 19.7492 20.366 20.4281 19.8724 20.9341C19.3788 21.4401 18.707 21.7331 18.0003 21.7507C17.2937 21.7331 16.6218 21.4401 16.1282 20.9341C15.6346 20.4281 15.3583 19.7492 15.3583 19.0423C15.3583 18.3354 15.6346 17.6566 16.1282 17.1506C16.6218 16.6446 17.2937 16.3515 18.0003 16.334Z" fill="#FF4F0F"/>
</svg>
