<svg width="20" height="20" viewBox="0 0 20 20" fill="none" xmlns="http://www.w3.org/2000/svg">
    <path d="M9.99967 10.6243C7.35801 10.6243 5.20801 8.47435 5.20801 5.83268C5.20801 3.19102 7.35801 1.04102 9.99967 1.04102C12.6413 1.04102 14.7913 3.19102 14.7913 5.83268C14.7913 8.47435 12.6413 10.6243 9.99967 10.6243ZM9.99967 2.29102C8.04967 2.29102 6.45801 3.88268 6.45801 5.83268C6.45801 7.78268 8.04967 9.37435 9.99967 9.37435C11.9497 9.37435 13.5413 7.78268 13.5413 5.83268C13.5413 3.88268 11.9497 2.29102 9.99967 2.29102ZM13.183 18.9577C12.8663 18.9577 12.5663 18.841 12.3497 18.6243C12.0913 18.366 11.9747 17.991 12.033 17.5993L12.1913 16.4743C12.233 16.1827 12.408 15.841 12.6163 15.6243L15.5663 12.6743C16.7497 11.491 17.7913 12.166 18.2997 12.6743C18.733 13.1077 18.958 13.5743 18.958 14.041C18.958 14.516 18.7413 14.9577 18.2997 15.3993L15.3497 18.3493C15.1413 18.5577 14.7913 18.7327 14.4997 18.7744L13.3747 18.9327C13.308 18.9493 13.2497 18.9577 13.183 18.9577ZM16.9247 13.266C16.7747 13.266 16.6413 13.366 16.4497 13.5577L13.4997 16.5077C13.4659 16.5486 13.443 16.5973 13.433 16.6493L13.283 17.691L14.3247 17.541C14.358 17.5327 14.4413 17.491 14.4663 17.466L17.4163 14.516C17.5497 14.3827 17.708 14.191 17.708 14.041C17.708 13.916 17.608 13.741 17.4163 13.5577C17.2163 13.3577 17.0663 13.266 16.9247 13.266Z" fill="#FEFEFE"/>
    <path d="M17.4335 16.0167C17.3751 16.0167 17.3168 16.0083 17.2668 15.9917C16.7231 15.8373 16.2279 15.5465 15.8282 15.1469C15.4286 14.7473 15.1378 14.252 14.9835 13.7083C14.8918 13.375 15.0835 13.0333 15.4168 12.9417C15.7501 12.85 16.0918 13.0417 16.1835 13.375C16.3751 14.0583 16.9168 14.6 17.6001 14.7917C17.7451 14.8324 17.8704 14.9242 17.9529 15.0501C18.0355 15.176 18.0698 15.3275 18.0495 15.4766C18.0293 15.6258 17.9557 15.7626 17.8425 15.8619C17.7293 15.9611 17.584 16.0161 17.4335 16.0167ZM2.8418 18.9583C2.50013 18.9583 2.2168 18.675 2.2168 18.3333C2.2168 14.775 5.70846 11.875 10.0001 11.875C10.9085 11.875 11.8085 12.0083 12.6501 12.2583C12.9835 12.3583 13.1668 12.7083 13.0668 13.0333C12.9668 13.3667 12.6168 13.55 12.2918 13.45C11.5585 13.2333 10.7918 13.1167 10.0001 13.1167C6.40013 13.1167 3.4668 15.45 3.4668 18.325C3.4668 18.675 3.18346 18.9583 2.8418 18.9583Z" fill="#FEFEFE"/>
</svg>
