<svg width="22" height="22" viewBox="0 0 22 22" fill="none" xmlns="http://www.w3.org/2000/svg">
    <path d="M16.1429 19.1262C16.0347 18.9397 15.7958 18.8762 15.6091 18.9844L15.594 18.9931C15.4075 19.1013 15.344 19.3404 15.4522 19.527C15.4779 19.5713 15.5122 19.6102 15.5529 19.6413C15.5937 19.6725 15.6402 19.6953 15.6897 19.7085C15.7393 19.7216 15.791 19.7249 15.8419 19.7181C15.8927 19.7113 15.9417 19.6945 15.9861 19.6687L16.0011 19.6601C16.1877 19.5518 16.2511 19.3128 16.1429 19.1262Z" fill="#FEFEFE" stroke="#FEFEFE" stroke-width="0.5"/>
    <path d="M19.6599 6.00309C18.3247 3.69039 16.1688 2.03614 13.5893 1.34496C11.0099 0.653792 8.31573 1.00852 6.00303 2.34371C3.69038 3.67891 2.03608 5.83485 1.34495 8.41426C0.653813 10.9937 1.0085 13.6879 2.3437 16.0006C3.54139 18.0751 5.44498 19.6517 7.70381 20.4399C8.76613 20.8106 9.88325 20.9999 11.0084 20.9999C12.2219 20.9999 13.4331 20.7794 14.5781 20.3393C14.7795 20.262 14.8799 20.036 14.8025 19.8346C14.7251 19.6332 14.4991 19.5327 14.2978 19.6102C11.2501 20.7816 7.95084 20.2493 5.48588 18.3991L5.83584 16.5723L6.00448 16.5176C6.6417 16.3105 6.9917 15.6237 6.78475 14.9864L6.661 14.6056C6.63238 14.5181 6.63251 14.4237 6.66139 14.3363C6.71505 14.1726 6.73331 13.9993 6.71496 13.8281C6.69661 13.6568 6.64206 13.4914 6.55495 13.3428C6.46777 13.1942 6.35002 13.0658 6.2095 12.9662C6.06897 12.8666 5.90888 12.7979 5.73983 12.7648L4.85819 12.5926L3.15709 11.2992C3.10688 11.261 3.04818 11.2356 2.98599 11.225C2.9238 11.2145 2.85998 11.2191 2.79998 11.2386L1.80405 11.5622C1.78299 11.207 1.78253 10.8509 1.80268 10.4956C1.83019 10.5209 1.85708 10.5468 1.88331 10.5734C1.90288 10.6061 1.9271 10.6358 1.95522 10.6614C2.03655 10.7355 2.11022 10.7691 2.26491 10.7691C2.40706 10.7691 2.61748 10.7407 2.96495 10.6894C3.18543 10.6566 3.40563 10.6218 3.62553 10.5853C3.69016 10.5744 3.75102 10.5475 3.8025 10.507C3.85399 10.4664 3.89445 10.4136 3.92016 10.3533C3.94587 10.293 3.956 10.2272 3.94962 10.162C3.94324 10.0968 3.92056 10.0342 3.88366 9.98008L3.40471 9.27758L4.09073 8.78703C4.13643 8.75435 4.17455 8.71219 4.20248 8.66344L5.26588 6.80699L5.69452 6.3477C6.13252 5.87824 6.25752 5.19141 6.01291 4.59782C5.86862 4.2477 5.61659 3.95621 5.30135 3.75977C5.64738 3.48756 6.01241 3.24042 6.39366 3.02024C7.81311 2.20071 9.36217 1.80356 10.8949 1.78836L10.1974 2.66332L7.61092 3.57008C7.55898 3.58828 7.51148 3.61725 7.47152 3.6551C7.43157 3.69295 7.40007 3.73881 7.37909 3.78969L6.65674 5.54078C6.6315 5.60197 6.62222 5.66856 6.62977 5.73431C6.63732 5.80006 6.66146 5.86281 6.69991 5.91668L7.75491 7.3945C7.60381 7.53235 7.45674 7.73313 7.28108 7.98242C7.20405 8.09176 7.13131 8.195 7.08104 8.25289C7.03774 8.30262 6.99413 8.35207 6.95022 8.40125C6.7233 8.65653 6.4887 8.92055 6.32202 9.27321C5.95553 10.0489 6.02955 10.9506 6.51518 11.6263C6.98475 12.2796 7.75889 12.6117 8.58514 12.5145C8.71975 12.4988 8.84526 12.4677 8.9667 12.4376C9.30159 12.3548 9.40768 12.3465 9.5151 12.447C9.56737 12.496 9.57217 12.5052 9.57112 12.6712C9.57038 12.7768 9.56955 12.9082 9.60596 13.0583C9.66428 13.2983 9.81502 13.4642 9.93612 13.5975C9.99631 13.6637 10.0586 13.7322 10.0778 13.7782C10.1996 14.0702 10.1465 14.2318 10.0303 14.5861C10.0201 14.6171 10.01 14.6481 9.99998 14.6791C9.82338 15.2258 10.0696 15.768 10.2867 16.2464C10.3573 16.4018 10.4239 16.5484 10.4675 16.678C10.8187 17.7202 11.082 17.9588 11.2933 18.0549C11.404 18.1052 11.5185 18.1273 11.6342 18.1273C12.1973 18.1272 12.7849 17.6044 13.0548 17.273C13.2243 17.0648 13.2661 16.8564 13.2965 16.7042C13.3117 16.6285 13.3237 16.5688 13.3465 16.5297C13.3814 16.4699 13.4226 16.4236 13.4746 16.3649C13.5794 16.247 13.7097 16.1003 13.7941 15.8343C13.8583 15.6323 13.9049 15.5827 14.0592 15.4184C14.0881 15.3877 14.1169 15.3568 14.1455 15.3258C14.6657 14.7597 14.5317 14.3272 14.3898 13.8693C14.2704 13.4841 14.4793 13.2377 14.9843 12.7674C15.2032 12.5635 15.4295 12.3527 15.6045 12.0995C15.681 11.9886 15.914 11.6514 15.7698 11.3171C15.6285 10.9894 15.2694 10.9343 14.9809 10.8901C14.867 10.8726 14.6948 10.8462 14.64 10.8104C14.3983 10.6523 14.2505 10.3226 14.1074 10.0036C14.079 9.94016 14.0509 9.8775 14.0224 9.81668C13.9716 9.70817 13.9209 9.57688 13.8672 9.43789C13.7251 9.07008 13.564 8.65317 13.2898 8.36254C13.0434 8.10141 12.5788 7.97563 12.1689 7.86461C12.0311 7.82731 11.901 7.79207 11.8151 7.76039C11.7433 7.73385 11.6653 7.72902 11.5907 7.74653C11.3912 7.79328 11.2668 7.84481 11.1744 7.91887C11.1499 7.93844 11.0776 8.0027 11.0353 8.10598C10.8923 8.03735 10.6956 7.90629 10.5746 7.82563L10.5671 7.82059C10.6079 7.65739 10.571 7.52641 10.5323 7.44461C10.3141 6.98305 9.58975 7.01918 9.44686 7.03133C9.36569 7.03813 9.26299 7.04176 9.15436 7.04559C8.98373 7.05164 8.79514 7.05844 8.60854 7.07938L8.61815 7.05258C8.75979 6.65793 9.13666 6.39278 9.55596 6.39278H9.77803C9.9937 6.39278 10.1686 6.21785 10.1686 6.00219C10.1686 5.78653 9.9937 5.6116 9.77803 5.6116H9.55596C8.93346 5.6116 8.36342 5.93922 8.04393 6.45489L7.46131 5.63875L8.03452 4.24934L10.562 3.36324C10.6313 3.33893 10.6924 3.29557 10.7382 3.23813L11.8617 1.82879C14.7326 2.10188 17.4349 3.71149 18.9835 6.3936C19.3882 7.09468 19.6977 7.84655 19.9039 8.62938L19.7383 8.77703C19.6312 8.87279 19.5451 8.98963 19.4853 9.12022C19.4255 9.25082 19.3933 9.39236 19.3907 9.53598C19.3906 9.53912 19.3906 9.54226 19.3905 9.54539L19.1207 8.80352C19.0807 8.69318 19.0211 8.59097 18.9448 8.5018L18.4636 7.9384C18.3716 7.8306 18.2573 7.74404 18.1286 7.68472C18 7.6254 17.8599 7.59472 17.7182 7.59481H17.1292C17.0268 7.5947 16.9263 7.62245 16.8384 7.67508C16.7505 7.72771 16.6786 7.80325 16.6304 7.8936C16.582 7.98386 16.559 8.08558 16.564 8.18788C16.5689 8.29019 16.6016 8.38922 16.6585 8.47438L16.7181 8.56387C16.3375 8.89117 15.8972 9.15309 15.4285 9.32973L14.6211 7.78313V7.43809C14.6211 7.38527 14.6104 7.333 14.5896 7.28444C14.5688 7.23589 14.5384 7.19205 14.5002 7.15559L13.7731 6.46149C13.733 6.42321 13.6852 6.39391 13.6329 6.37551L12.9784 6.14551C12.7747 6.07387 12.5519 6.18102 12.4804 6.38449C12.4089 6.58805 12.5158 6.81098 12.7194 6.8825L13.2945 7.08465L13.8399 7.60524V7.87899C13.8399 7.94192 13.8551 8.00395 13.8843 8.05977L14.8951 9.99598C14.939 10.0802 15.0121 10.1455 15.1007 10.1797C15.1893 10.2139 15.2874 10.2146 15.3765 10.1817L15.6708 10.0732C16.3546 9.82098 16.9884 9.41531 17.5037 8.90008C17.5675 8.83624 17.6073 8.75224 17.6162 8.66238C17.6251 8.57252 17.6026 8.48236 17.5525 8.40723L17.5317 8.37602H17.7182C17.747 8.376 17.7755 8.38223 17.8016 8.39428C17.8277 8.40634 17.851 8.42392 17.8696 8.44582L18.3508 9.00922C18.3664 9.02739 18.3783 9.04793 18.3865 9.07047L18.9176 10.5307C18.9401 10.5925 18.9777 10.6475 19.0271 10.6908C19.0765 10.7341 19.136 10.7643 19.2001 10.7785C19.2642 10.7927 19.3309 10.7905 19.3939 10.7722C19.457 10.7538 19.5144 10.7198 19.5608 10.6734L19.8136 10.4206C19.9737 10.2605 20.0839 10.0579 20.1365 9.83336C20.5274 12.9664 19.299 16.2073 16.7023 18.2454C16.5326 18.3785 16.503 18.624 16.6362 18.7938C16.7694 18.9635 17.0149 18.9931 17.1846 18.8598C19.0593 17.3885 20.3472 15.284 20.8111 12.934C21.2793 10.5614 20.8705 8.09989 19.6599 6.00309ZM2.84694 12.0448L4.4576 13.2694C4.50518 13.3056 4.56045 13.3304 4.61913 13.3418L5.58991 13.5315C5.71381 13.5557 5.81717 13.629 5.88104 13.7379C5.94491 13.8468 5.95834 13.9728 5.91905 14.0927C5.83818 14.3376 5.83781 14.6019 5.91799 14.8469L6.04174 15.2277C6.11569 15.4553 5.99061 15.7006 5.76307 15.7746L5.37491 15.9007C5.30843 15.9223 5.24897 15.9613 5.20273 16.0138C5.15649 16.0662 5.12516 16.13 5.11202 16.1987L4.79959 17.8295C4.11276 17.2009 3.50971 16.4579 3.02022 15.61C2.42303 14.5758 2.04991 13.4726 1.88545 12.3572L2.84694 12.0448ZM5.12338 5.81473L4.66389 6.30703C4.64337 6.32903 4.62546 6.35332 4.61049 6.37942L3.56706 8.20114L2.63967 8.86426C2.55663 8.92363 2.50013 9.01316 2.48227 9.11367C2.46441 9.21418 2.48662 9.31769 2.54413 9.40203L2.89096 9.91078C2.69104 9.94055 2.51163 9.96508 2.39233 9.97809C2.3686 9.95545 2.34469 9.933 2.32061 9.91074C2.22776 9.82449 2.09873 9.7093 1.90639 9.54098C2.22362 7.57758 3.16971 5.72789 4.65768 4.31598C4.9426 4.40571 5.17643 4.61824 5.29065 4.89547C5.41916 5.20727 5.35346 5.56813 5.12338 5.81473ZM8.30815 7.94922C8.48237 7.85117 8.88674 7.83684 9.18198 7.82637C9.3003 7.82219 9.41209 7.81821 9.51194 7.80985C9.56463 7.80543 9.62315 7.80625 9.67834 7.81055C9.64368 7.89951 9.64282 7.9981 9.67593 8.08765C9.70904 8.1772 9.77383 8.25151 9.85803 8.29653C9.93131 8.33575 10.0333 8.40375 10.1413 8.47575C10.4465 8.67926 10.7926 8.90992 11.1177 8.93063C11.4133 8.94981 11.5778 8.78133 11.6483 8.70957C11.6539 8.70387 11.6592 8.69817 11.6648 8.69297C11.7078 8.65767 11.7434 8.61416 11.7694 8.56496C11.8318 8.58282 11.8974 8.60059 11.9647 8.61883C12.196 8.68145 12.6265 8.79801 12.7216 8.89879C12.8906 9.07789 13.0222 9.41879 13.1385 9.71953C13.1972 9.87153 13.2526 10.015 13.3149 10.148C13.3416 10.205 13.3679 10.2638 13.3946 10.3234C13.5748 10.7254 13.7791 11.1811 14.2125 11.4644C14.409 11.5929 14.6499 11.6298 14.8625 11.6624C14.8882 11.6663 14.9177 11.6709 14.9476 11.6758C14.8214 11.8518 14.6418 12.0191 14.452 12.1958C13.9684 12.6461 13.3666 13.2066 13.6438 14.1007C13.7746 14.5229 13.7807 14.5685 13.5703 14.7973C13.5417 14.8286 13.5149 14.857 13.4899 14.8836C13.3097 15.0754 13.1674 15.2269 13.0496 15.598C13.0154 15.7058 12.9711 15.7557 12.8906 15.8463C12.8262 15.9188 12.746 16.0091 12.6721 16.1357C12.5835 16.2873 12.5542 16.4334 12.5307 16.5507C12.5075 16.6661 12.4944 16.724 12.4491 16.7797C12.3459 16.9063 12.1535 17.0902 11.956 17.2157C11.7724 17.3323 11.6652 17.3482 11.6287 17.346C11.587 17.3013 11.436 17.1057 11.2079 16.4286C11.1516 16.2616 11.0736 16.0897 10.9981 15.9235C10.8317 15.5571 10.6597 15.1782 10.7434 14.9192C10.7533 14.8887 10.7631 14.8588 10.7727 14.8297C10.9064 14.4222 11.0325 14.0375 10.7988 13.4773C10.7276 13.3068 10.6143 13.1821 10.5144 13.0721C10.4497 13.001 10.3765 12.9204 10.3652 12.8739C10.3515 12.8173 10.3519 12.752 10.3524 12.6763C10.3537 12.4722 10.3558 12.1638 10.0492 11.8767C9.6169 11.4721 9.11284 11.5968 8.77924 11.6793C8.67678 11.7046 8.57998 11.7286 8.4942 11.7386C7.94545 11.8029 7.45553 11.5959 7.14967 11.1703C6.82971 10.7251 6.78327 10.126 7.0285 9.60684C7.14721 9.35563 7.32655 9.15379 7.5342 8.9202C7.57955 8.86914 7.62534 8.81766 7.67112 8.76493C7.74729 8.67711 7.83112 8.55821 7.91975 8.43231C8.02557 8.28211 8.2226 8.00242 8.30815 7.94922Z" fill="#FEFEFE" stroke="#FEFEFE" stroke-width="0.5"/>
    <path d="M17.0167 14.448L16.8288 13.7396C16.8087 13.6641 16.7665 13.5962 16.7074 13.5449C16.6484 13.4937 16.5753 13.4613 16.4976 13.452C16.42 13.4428 16.3413 13.4571 16.2719 13.493C16.2024 13.529 16.1453 13.5849 16.1079 13.6536C16.0651 13.7325 16.0266 13.8161 15.9893 13.8969C15.9266 14.0329 15.8618 14.1735 15.7943 14.2511C15.7564 14.2947 15.6591 14.3417 15.565 14.3871C15.3401 14.4956 15.0321 14.6442 14.9145 15.0193C14.8414 15.252 14.8687 15.436 14.8886 15.5704C14.9058 15.6869 14.9098 15.7273 14.8786 15.8006L14.8747 15.8097C14.7504 16.1015 14.519 16.6446 14.8434 17.1064C15.0749 17.4359 15.3182 17.5207 15.5073 17.5207C15.5422 17.5207 15.577 17.5179 15.6115 17.5123C16.0099 17.4471 16.3094 17.0327 16.5542 16.2078L17.0136 14.6594C17.0341 14.5905 17.0352 14.5174 17.0167 14.448ZM15.8053 15.9856C15.6806 16.4062 15.5702 16.6025 15.5065 16.6895C15.4991 16.6801 15.4911 16.6695 15.4826 16.6574C15.408 16.551 15.5195 16.2892 15.5934 16.1159L15.5973 16.1067C15.7164 15.8273 15.6845 15.6126 15.6614 15.4559C15.6465 15.3556 15.6412 15.3125 15.6598 15.2532C15.6751 15.2045 15.7667 15.1572 15.9045 15.0907C15.9657 15.0611 16.033 15.0287 16.1009 14.9894L15.8053 15.9856ZM11.5483 5.64261L11.5219 5.63339C11.3185 5.56214 11.0955 5.66913 11.0241 5.87269C10.9527 6.07628 11.0598 6.29913 11.2634 6.37054L11.2897 6.37976C11.3312 6.39438 11.375 6.40185 11.419 6.40187C11.5802 6.40187 11.7312 6.3012 11.7876 6.14046C11.859 5.93687 11.7519 5.71398 11.5483 5.64261Z" fill="#FEFEFE" stroke="#FEFEFE" stroke-width="0.5"/>
</svg>
