<svg width="56" height="56" viewBox="0 0 56 56" fill="none" xmlns="http://www.w3.org/2000/svg">
    <g clip-path="url(#clip0_838_1564)">
        <path d="M33.1429 36.1257C33.0347 35.9392 32.7958 35.8757 32.6091 35.9839L32.594 35.9925C32.4075 36.1008 32.344 36.3398 32.4522 36.5264C32.4779 36.5708 32.5122 36.6097 32.5529 36.6408C32.5937 36.6719 32.6402 36.6947 32.6897 36.7079C32.7393 36.7211 32.791 36.7244 32.8419 36.7175C32.8927 36.7107 32.9417 36.694 32.9861 36.6682L33.0011 36.6595C33.1877 36.5513 33.2511 36.3123 33.1429 36.1257Z" fill="#FEFEFE" stroke="#FEFEFE" stroke-width="0.5"/>
        <path d="M36.6599 23.0031C35.3247 20.6904 33.1688 19.0362 30.5893 18.345C28.0099 17.6538 25.3157 18.0085 23.003 19.3437C20.6904 20.6789 19.0361 22.8349 18.3449 25.4143C17.6538 27.9937 18.0085 30.688 19.3437 33.0006C20.5414 35.0751 22.445 36.6517 24.7038 37.4399C25.7661 37.8106 26.8832 37.9999 28.0084 38C29.2219 38 30.4331 37.7794 31.5781 37.3394C31.7795 37.262 31.8799 37.036 31.8025 36.8346C31.7251 36.6333 31.4991 36.5327 31.2978 36.6102C28.2501 37.7816 24.9508 37.2494 22.4859 35.3991L22.8358 33.5724L23.0045 33.5176C23.6417 33.3106 23.9917 32.6237 23.7847 31.9864L23.661 31.6056C23.6324 31.5181 23.6325 31.4237 23.6614 31.3363C23.715 31.1726 23.7333 30.9994 23.715 30.8281C23.6966 30.6568 23.6421 30.4914 23.5549 30.3428C23.4678 30.1942 23.35 30.0659 23.2095 29.9662C23.069 29.8666 22.9089 29.798 22.7398 29.7649L21.8582 29.5926L20.1571 28.2993C20.1069 28.2611 20.0482 28.2356 19.986 28.2251C19.9238 28.2145 19.86 28.2192 19.8 28.2387L18.804 28.5622C18.783 28.207 18.7825 27.8509 18.8027 27.4957C18.8302 27.5209 18.8571 27.5469 18.8833 27.5735C18.9029 27.6061 18.9271 27.6358 18.9552 27.6615C19.0365 27.7355 19.1102 27.7691 19.2649 27.7691C19.4071 27.7691 19.6175 27.7408 19.9649 27.6894C20.1854 27.6566 20.4056 27.6219 20.6255 27.5853C20.6902 27.5745 20.751 27.5475 20.8025 27.507C20.854 27.4664 20.8944 27.4136 20.9202 27.3533C20.9459 27.293 20.956 27.2273 20.9496 27.1621C20.9432 27.0968 20.9206 27.0343 20.8837 26.9801L20.4047 26.2776L21.0907 25.7871C21.1364 25.7544 21.1745 25.7122 21.2025 25.6635L22.2659 23.807L22.6945 23.3477C23.1325 22.8783 23.2575 22.1914 23.0129 21.5978C22.8686 21.2477 22.6166 20.9562 22.3014 20.7598C22.6474 20.4876 23.0124 20.2405 23.3937 20.0203C24.8131 19.2007 26.3622 18.8036 27.8949 18.7884L27.1974 19.6634L24.6109 20.5701C24.559 20.5883 24.5115 20.6173 24.4715 20.6551C24.4316 20.693 24.4001 20.7388 24.3791 20.7897L23.6567 22.5408C23.6315 22.602 23.6222 22.6686 23.6298 22.7343C23.6373 22.8001 23.6615 22.8628 23.6999 22.9167L24.7549 24.3945C24.6038 24.5324 24.4567 24.7332 24.2811 24.9825C24.204 25.0918 24.1313 25.195 24.081 25.2529C24.0377 25.3026 23.9941 25.3521 23.9502 25.4013C23.7233 25.6566 23.4887 25.9206 23.322 26.2732C22.9555 27.049 23.0296 27.9506 23.5152 28.6263C23.9847 29.2796 24.7589 29.6118 25.5851 29.5146C25.7197 29.4988 25.8453 29.4677 25.9667 29.4376C26.3016 29.3548 26.4077 29.3465 26.5151 29.4471C26.5674 29.496 26.5722 29.5053 26.5711 29.6712C26.5704 29.7769 26.5696 29.9083 26.606 30.0583C26.6643 30.2984 26.815 30.4643 26.9361 30.5975C26.9963 30.6637 27.0586 30.7323 27.0778 30.7782C27.1996 31.0702 27.1465 31.2319 27.0303 31.5862C27.0201 31.6171 27.01 31.6481 27 31.6791C26.8234 32.2258 27.0696 32.7681 27.2867 33.2464C27.3573 33.4018 27.4239 33.5484 27.4675 33.678C27.8187 34.7202 28.082 34.9589 28.2933 35.055C28.404 35.1053 28.5185 35.1273 28.6342 35.1273C29.1973 35.1273 29.7849 34.6044 30.0548 34.273C30.2243 34.0649 30.2661 33.8565 30.2965 33.7043C30.3117 33.6285 30.3237 33.5688 30.3465 33.5297C30.3814 33.47 30.4226 33.4236 30.4746 33.365C30.5794 33.247 30.7097 33.1003 30.7941 32.8343C30.8583 32.6323 30.9049 32.5828 31.0592 32.4184C31.0881 32.3877 31.1169 32.3569 31.1455 32.3259C31.6657 31.7597 31.5317 31.3273 31.3898 30.8694C31.2704 30.4841 31.4793 30.2377 31.9843 29.7674C32.2032 29.5635 32.4295 29.3528 32.6045 29.0995C32.681 28.9886 32.914 28.6514 32.7698 28.3171C32.6285 27.9894 32.2694 27.9343 31.9809 27.8901C31.867 27.8726 31.6948 27.8462 31.64 27.8104C31.3983 27.6524 31.2505 27.3226 31.1074 27.0037C31.079 26.9402 31.0509 26.8775 31.0224 26.8167C30.9716 26.7082 30.9209 26.5769 30.8672 26.4379C30.7251 26.0701 30.564 25.6532 30.2898 25.3626C30.0434 25.1014 29.5788 24.9757 29.1689 24.8646C29.0311 24.8273 28.901 24.7921 28.8151 24.7604C28.7433 24.7339 28.6653 24.7291 28.5907 24.7466C28.3912 24.7933 28.2668 24.8448 28.1744 24.9189C28.1499 24.9385 28.0776 25.0027 28.0353 25.106C27.8923 25.0374 27.6956 24.9063 27.5746 24.8257L27.5671 24.8206C27.6079 24.6574 27.571 24.5264 27.5323 24.4446C27.3141 23.9831 26.5898 24.0192 26.4469 24.0314C26.3657 24.0382 26.263 24.0418 26.1544 24.0456C25.9837 24.0517 25.7951 24.0585 25.6085 24.0794L25.6181 24.0526C25.7598 23.658 26.1367 23.3928 26.556 23.3928H26.778C26.9937 23.3928 27.1686 23.2179 27.1686 23.0022C27.1686 22.7866 26.9937 22.6116 26.778 22.6116H26.556C25.9335 22.6116 25.3634 22.9393 25.0439 23.4549L24.4613 22.6388L25.0345 21.2494L27.562 20.3633C27.6313 20.339 27.6924 20.2956 27.7382 20.2382L28.8617 18.8288C31.7326 19.1019 34.4349 20.7115 35.9835 23.3936C36.3882 24.0947 36.6977 24.8466 36.9039 25.6294L36.7383 25.7771C36.6312 25.8728 36.5451 25.9897 36.4853 26.1203C36.4255 26.2508 36.3933 26.3924 36.3907 26.536C36.3906 26.5391 36.3906 26.5423 36.3905 26.5454L36.1207 25.8035C36.0807 25.6932 36.0211 25.591 35.9448 25.5018L35.4636 24.9384C35.3716 24.8306 35.2573 24.7441 35.1286 24.6847C35 24.6254 34.8599 24.5947 34.7182 24.5948H34.1292C34.0268 24.5947 33.9263 24.6225 33.8384 24.6751C33.7505 24.7277 33.6786 24.8033 33.6304 24.8936C33.582 24.9839 33.559 25.0856 33.564 25.1879C33.5689 25.2902 33.6016 25.3892 33.6585 25.4744L33.7181 25.5639C33.3375 25.8912 32.8972 26.1531 32.4285 26.3298L31.6211 24.7832V24.4381C31.6211 24.3853 31.6104 24.333 31.5896 24.2845C31.5688 24.2359 31.5384 24.1921 31.5002 24.1556L30.7731 23.4615C30.733 23.4232 30.6852 23.3939 30.6329 23.3755L29.9784 23.1455C29.7747 23.0739 29.5519 23.181 29.4804 23.3845C29.4089 23.5881 29.5158 23.811 29.7194 23.8825L30.2945 24.0847L30.8399 24.6053V24.879C30.8399 24.9419 30.8551 25.004 30.8843 25.0598L31.8951 26.996C31.939 27.0802 32.0121 27.1455 32.1007 27.1797C32.1893 27.2139 32.2874 27.2146 32.3765 27.1817L32.6708 27.0732C33.3546 26.821 33.9884 26.4153 34.5037 25.9001C34.5675 25.8363 34.6073 25.7523 34.6162 25.6624C34.6251 25.5725 34.6026 25.4824 34.5525 25.4073L34.5317 25.376H34.7182C34.747 25.376 34.7755 25.3823 34.8016 25.3943C34.8277 25.4064 34.851 25.424 34.8696 25.4459L35.3508 26.0093C35.3664 26.0274 35.3783 26.048 35.3865 26.0705L35.9176 27.5308C35.9401 27.5925 35.9777 27.6475 36.0271 27.6908C36.0765 27.7341 36.136 27.7643 36.2001 27.7785C36.2642 27.7927 36.3309 27.7906 36.3939 27.7722C36.457 27.7538 36.5144 27.7199 36.5608 27.6734L36.8136 27.4207C36.9737 27.2605 37.0839 27.058 37.1365 26.8334C37.5274 29.9664 36.299 33.2073 33.7023 35.2454C33.5326 35.3785 33.503 35.6241 33.6362 35.7938C33.7694 35.9635 34.0149 35.9931 34.1846 35.8599C36.0593 34.3885 37.3472 32.284 37.8111 29.9341C38.2793 27.5614 37.8705 25.0999 36.6599 23.0031ZM19.8469 29.0448L21.4576 30.2694C21.5052 30.3056 21.5604 30.3304 21.6191 30.3419L22.5899 30.5316C22.7138 30.5558 22.8172 30.6291 22.881 30.738C22.9449 30.8468 22.9583 30.9728 22.919 31.0928C22.8382 31.3376 22.8378 31.6019 22.918 31.8469L23.0417 32.2277C23.1157 32.4553 22.9906 32.7007 22.7631 32.7746L22.3749 32.9007C22.3084 32.9223 22.249 32.9614 22.2027 33.0138C22.1565 33.0662 22.1252 33.1301 22.112 33.1987L21.7996 34.8295C21.1128 34.2009 20.5097 33.4579 20.0202 32.6101C19.423 31.5758 19.0499 30.4726 18.8855 29.3572L19.8469 29.0448ZM22.1234 22.8148L21.6639 23.3071C21.6434 23.3291 21.6255 23.3534 21.6105 23.3794L20.5671 25.2012L19.6397 25.8643C19.5566 25.9237 19.5001 26.0132 19.4823 26.1137C19.4644 26.2142 19.4866 26.3177 19.5441 26.4021L19.891 26.9108C19.691 26.9406 19.5116 26.9651 19.3923 26.9781C19.3686 26.9555 19.3447 26.933 19.3206 26.9108C19.2278 26.8245 19.0987 26.7093 18.9064 26.541C19.2236 24.5776 20.1697 22.7279 21.6577 21.316C21.9426 21.4057 22.1764 21.6183 22.2906 21.8955C22.4192 22.2073 22.3535 22.5682 22.1234 22.8148ZM25.3081 24.9493C25.4824 24.8512 25.8867 24.8369 26.182 24.8264C26.3003 24.8222 26.4121 24.8182 26.5119 24.8099C26.5646 24.8055 26.6231 24.8063 26.6783 24.8106C26.6437 24.8995 26.6428 24.9981 26.6759 25.0877C26.709 25.1772 26.7738 25.2515 26.858 25.2966C26.9313 25.3358 27.0333 25.4038 27.1413 25.4758C27.4465 25.6793 27.7926 25.91 28.1177 25.9307C28.4133 25.9498 28.5778 25.7814 28.6483 25.7096C28.6539 25.7039 28.6592 25.6982 28.6648 25.693C28.7078 25.6577 28.7434 25.6142 28.7694 25.565C28.8318 25.5828 28.8974 25.6006 28.9647 25.6189C29.196 25.6815 29.6265 25.798 29.7216 25.8988C29.8906 26.0779 30.0222 26.4188 30.1385 26.7196C30.1972 26.8716 30.2526 27.015 30.3149 27.148C30.3416 27.2051 30.3679 27.2639 30.3946 27.3234C30.5748 27.7254 30.7791 28.1811 31.2125 28.4644C31.409 28.5929 31.6499 28.6298 31.8625 28.6624C31.8882 28.6664 31.9177 28.6709 31.9476 28.6758C31.8214 28.8518 31.6418 29.0191 31.452 29.1959C30.9684 29.6462 30.3666 30.2066 30.6438 31.1007C30.7746 31.5229 30.7807 31.5685 30.5703 31.7974C30.5417 31.8286 30.5149 31.857 30.4899 31.8837C30.3097 32.0755 30.1674 32.2269 30.0496 32.598C30.0154 32.7058 29.9711 32.7557 29.8906 32.8464C29.8262 32.9189 29.746 33.0092 29.6721 33.1357C29.5835 33.2874 29.5542 33.4334 29.5307 33.5507C29.5075 33.6661 29.4944 33.7241 29.4491 33.7797C29.3459 33.9063 29.1535 34.0902 28.956 34.2157C28.7724 34.3323 28.6652 34.3482 28.6287 34.346C28.587 34.3014 28.436 34.1057 28.2079 33.4286C28.1516 33.2616 28.0736 33.0897 27.9981 32.9235C27.8317 32.5571 27.6597 32.1782 27.7434 31.9193C27.7533 31.8887 27.7631 31.8589 27.7727 31.8297C27.9064 31.4223 28.0325 31.0375 27.7988 30.4774C27.7276 30.3068 27.6143 30.1821 27.5144 30.0721C27.4497 30.001 27.3765 29.9204 27.3652 29.874C27.3515 29.8174 27.3519 29.752 27.3524 29.6764C27.3537 29.4723 27.3558 29.1639 27.0492 28.8768C26.6169 28.4721 26.1128 28.5968 25.7792 28.6793C25.6768 28.7046 25.58 28.7286 25.4942 28.7387C24.9455 28.803 24.4555 28.5959 24.1497 28.1703C23.8297 27.7251 23.7833 27.126 24.0285 26.6069C24.1472 26.3557 24.3265 26.1538 24.5342 25.9202C24.5796 25.8692 24.6253 25.8177 24.6711 25.765C24.7473 25.6771 24.8311 25.5582 24.9197 25.4323C25.0256 25.2821 25.2226 25.0025 25.3081 24.9493Z" fill="#FEFEFE" stroke="#FEFEFE" stroke-width="0.5"/>
        <path d="M34.0162 31.4484L33.8283 30.74C33.8083 30.6644 33.766 30.5966 33.7069 30.5453C33.6479 30.494 33.5748 30.4616 33.4971 30.4523C33.4195 30.4431 33.3408 30.4574 33.2714 30.4934C33.2019 30.5293 33.1448 30.5852 33.1075 30.6539C33.0646 30.7328 33.0261 30.8164 32.9888 30.8973C32.9261 31.0332 32.8613 31.1739 32.7938 31.2515C32.7559 31.2951 32.6586 31.3421 32.5645 31.3875C32.3396 31.496 32.0316 31.6446 31.914 32.0197C31.8409 32.2523 31.8682 32.4364 31.8881 32.5708C31.9053 32.6873 31.9093 32.7277 31.8781 32.801L31.8742 32.8101C31.7499 33.1018 31.5186 33.645 31.8429 34.1067C32.0744 34.4363 32.3177 34.521 32.5068 34.521C32.5417 34.5211 32.5765 34.5183 32.611 34.5126C33.0094 34.4475 33.3089 34.033 33.5537 33.2082L34.0132 31.6597C34.0336 31.5909 34.0347 31.5178 34.0162 31.4484ZM32.8048 32.986C32.6801 33.4065 32.5697 33.6028 32.506 33.6899C32.4986 33.6805 32.4907 33.6699 32.4821 33.6577C32.4075 33.5514 32.5191 33.2895 32.5929 33.1162L32.5968 33.1071C32.7159 32.8276 32.6841 32.613 32.6609 32.4563C32.646 32.3559 32.6407 32.3128 32.6593 32.2535C32.6746 32.2048 32.7662 32.1576 32.9041 32.091C32.9652 32.0615 33.0325 32.029 33.1004 31.9897L32.8048 32.986ZM28.5478 22.643L28.5214 22.6337C28.318 22.5625 28.095 22.6695 28.0236 22.873C27.9522 23.0766 28.0593 23.2995 28.2629 23.3709L28.2892 23.3801C28.3308 23.3947 28.3745 23.4022 28.4185 23.4022C28.5798 23.4022 28.7307 23.3016 28.7871 23.1408C28.8585 22.9372 28.7514 22.7143 28.5478 22.643Z" fill="#FEFEFE" stroke="#FEFEFE" stroke-width="0.5"/>
    </g>
    <defs>
        <clipPath id="clip0_838_1564">
            <rect width="56" height="56" rx="16" fill="white"/>
        </clipPath>
    </defs>
</svg>
