<svg width="32" height="32" viewBox="0 0 32 32" fill="none" xmlns="http://www.w3.org/2000/svg">
    <path d="M16 29.1904C15.5729 29.1904 15.1612 29.0357 14.8403 28.7546C13.6283 27.6949 12.4599 26.699 11.429 25.8206L11.4237 25.816C8.40134 23.2404 5.7914 21.0161 3.97546 18.825C1.94553 16.3756 1 14.0531 1 11.5159C1 9.05085 1.84528 6.77665 3.37991 5.112C4.93288 3.42766 7.06376 2.5 9.38074 2.5C11.1125 2.5 12.6984 3.0475 14.0944 4.12715C14.7989 4.67207 15.4374 5.33905 16 6.117C16.5628 5.33905 17.2012 4.67207 17.9059 4.12715C19.3019 3.0475 20.8878 2.5 22.6196 2.5C24.9363 2.5 27.0674 3.42766 28.6204 5.112C30.155 6.77665 31.0001 9.05085 31.0001 11.5159C31.0001 14.053 30.0548 16.3756 28.0248 18.8248C26.2088 21.0161 23.5991 23.2402 20.5772 25.8156C19.5445 26.6954 18.3743 27.6928 17.1595 28.7551C16.8385 29.0359 16.4265 29.1906 16 29.1904ZM9.38074 4.25735C7.56046 4.25735 5.88825 4.98385 4.67173 6.30309C3.43715 7.64232 2.75711 9.49353 2.75711 11.5159C2.75711 13.6498 3.55018 15.5582 5.32839 17.7038C7.04706 19.7776 9.60346 21.9562 12.5634 24.4787L12.5688 24.4832C13.6036 25.3651 14.7767 26.3649 15.9975 27.4324C17.2257 26.3628 18.4006 25.3615 19.4374 24.4782C22.3971 21.9557 24.9532 19.7776 26.6719 17.7038C28.4499 15.5582 29.243 13.6498 29.243 11.5159C29.243 9.49347 28.5629 7.64226 27.3283 6.30309C26.112 4.98385 24.4397 4.25735 22.6196 4.25735C21.2861 4.25735 20.0618 4.68127 18.9808 5.51712C18.0174 6.26237 17.3463 7.20444 16.9528 7.86362C16.7506 8.20259 16.3944 8.40491 16 8.40491C15.6056 8.40491 15.2495 8.20259 15.0472 7.86362C14.654 7.20444 13.9829 6.26237 13.0192 5.51712C11.9383 4.68127 10.714 4.25735 9.38074 4.25735Z" fill="#FEFEFE"/>
</svg>
