<svg width="56" height="56" viewBox="0 0 56 56" fill="none" xmlns="http://www.w3.org/2000/svg">
    <rect width="56" height="56" rx="16" fill="#1E1E1E"/>
    <path d="M34.5396 19.25H21.4596C21.0365 19.2493 20.622 19.3701 20.2655 19.5981C19.909 19.8261 19.6255 20.1516 19.4485 20.536C19.2716 20.9204 19.2088 21.3475 19.2675 21.7665C19.3262 22.1856 19.5039 22.579 19.7796 22.9L24.9496 28.93C25.1396 29.16 25.2496 29.45 25.2496 29.74V35.38C25.2496 35.99 25.5596 36.55 26.0796 36.87C26.3596 37.04 26.6796 37.13 26.9996 37.13C27.2696 37.13 27.5296 37.07 27.7796 36.94L29.7796 35.94C30.3796 35.64 30.7496 35.04 30.7496 34.37V29.73C30.7496 29.43 30.8596 29.14 31.0496 28.92L36.2196 22.89C36.4954 22.569 36.6731 22.1756 36.7318 21.7565C36.7905 21.3375 36.7277 20.9104 36.5507 20.526C36.3738 20.1416 36.0903 19.8161 35.7338 19.5881C35.3773 19.3601 34.9628 19.2393 34.5396 19.24V19.25ZM35.0796 21.92L29.9096 27.95C29.4796 28.45 29.2496 29.08 29.2496 29.74V34.38C29.2496 34.48 29.1996 34.56 29.1096 34.6L27.1096 35.6C26.9996 35.66 26.9096 35.62 26.8696 35.59C26.8296 35.56 26.7496 35.5 26.7496 35.38V29.74C26.7496 29.08 26.5196 28.45 26.0896 27.95L20.9196 21.92C20.8099 21.7919 20.7496 21.6287 20.7496 21.46C20.7496 21.07 21.0696 20.75 21.4596 20.75H34.5396C34.9296 20.75 35.2496 21.07 35.2496 21.46C35.2496 21.63 35.1896 21.79 35.0796 21.92Z" fill="#FEFEFE"/>
</svg>
