<svg width="88" height="88" viewBox="0 0 88 88" fill="none" xmlns="http://www.w3.org/2000/svg">
    <g filter="url(#filter0_d_346_3939)">
        <rect x="16" y="16" width="56" height="56" rx="16" fill="#FF723F"/>
        <rect x="16.5" y="16.5" width="55" height="55" rx="15.5" stroke="#FF4F0F"/>
        <g clip-path="url(#clip0_346_3939)">
            <path d="M53.0667 40.8H45.6C45.3648 40.8 45.1323 40.8123 44.9029 40.8352L45.0277 39.2H45.0667C45.3496 39.2 45.6209 39.0876 45.8209 38.8876C46.021 38.6876 46.1333 38.4163 46.1333 38.1334V36.5334C46.1333 36.2505 46.021 35.9792 45.8209 35.7791C45.6209 35.5791 45.3496 35.4667 45.0667 35.4667H44.8629L44.2384 34.2176C44.1063 33.9513 43.9022 33.7273 43.6493 33.571C43.3964 33.4147 43.1048 33.3324 42.8075 33.3334H38.6667V30.4534C38.6655 30.106 38.5519 29.7683 38.3428 29.4909C38.1337 29.2136 37.8403 29.0114 37.5067 28.9147L34.4768 28.0486C34.154 27.9573 33.8081 27.9976 33.5149 28.1606C33.2217 28.3236 33.0049 28.5961 32.912 28.9184L32.7285 29.5611C32.6369 29.8842 32.6772 30.2304 32.8406 30.5237C33.004 30.8171 33.2771 31.0337 33.6 31.1259L35.4667 31.6592V33.3334H31.3259C31.0286 33.3324 30.7369 33.4147 30.484 33.571C30.2311 33.7273 30.027 33.9513 29.8949 34.2176L29.2704 35.4667H29.0667C28.7838 35.4667 28.5125 35.5791 28.3124 35.7791C28.1124 35.9792 28 36.2505 28 36.5334V38.1334C28 38.4163 28.1124 38.6876 28.3124 38.8876C28.5125 39.0876 28.7838 39.2 29.0667 39.2H29.1061L30.5563 58.031C30.5998 58.5658 30.8424 59.0649 31.2361 59.4295C31.6299 59.794 32.1461 59.9977 32.6827 60H41.4507C41.6526 59.9976 41.8531 59.9658 42.0459 59.9056C42.3375 59.9683 42.635 59.9999 42.9333 60H55.7333C56.8645 59.9988 57.949 59.5488 58.7489 58.7489C59.5488 57.9491 59.9987 56.8646 60 55.7334V55.2C59.9992 54.967 59.9472 54.737 59.8477 54.5263C59.7481 54.3157 59.6035 54.1294 59.424 53.9808C59.7941 53.5896 60.0003 53.0714 60.0003 52.5328C60.0003 51.9942 59.7941 51.4761 59.424 51.0848C59.4571 51.0566 59.4939 51.0315 59.5243 51.0011C59.6924 50.837 59.8218 50.6375 59.903 50.4171C59.9843 50.1967 60.0154 49.9609 59.9941 49.727C59.9618 49.383 59.8147 49.0599 59.5765 48.8096C59.8479 48.5168 59.999 48.1326 60 47.7334C59.9979 45.8952 59.2667 44.1329 57.9669 42.8331C56.6671 41.5333 54.9049 40.8021 53.0667 40.8ZM58.9333 49.8176C58.9406 49.8962 58.93 49.9754 58.9023 50.0493C58.8746 50.1232 58.8305 50.1899 58.7733 50.2443C58.725 50.2943 58.6669 50.3339 58.6027 50.3606C58.5385 50.3874 58.4695 50.4008 58.4 50.4H56.2229C55.785 50.4007 55.3602 50.5496 55.0176 50.8224L53.6037 51.951C53.5649 51.982 53.5166 51.9989 53.4669 51.9989C53.4172 51.9989 53.369 51.982 53.3301 51.951L51.9157 50.8219C51.5731 50.5492 51.1483 50.4005 50.7104 50.4H40.3264C40.1855 50.4058 40.0474 50.3597 39.9381 50.2706C39.8289 50.1815 39.756 50.0555 39.7333 49.9163C39.7256 49.8372 39.7359 49.7574 39.7637 49.6829C39.7914 49.6084 39.8357 49.5412 39.8933 49.4864C39.942 49.4371 40.0002 49.3981 40.0644 49.3718C40.1285 49.3455 40.1973 49.3324 40.2667 49.3334H58.3403C58.4811 49.3277 58.6192 49.3738 58.7284 49.4629C58.8377 49.552 58.9105 49.6785 58.9333 49.8176ZM39.7333 52.5334C39.7333 52.2505 39.8457 51.9792 40.0458 51.7791C40.2458 51.5791 40.5171 51.4667 40.8 51.4667H50.7104C50.9064 51.467 51.0966 51.5335 51.2501 51.6555L52.6651 52.7856C52.8924 52.9683 53.1753 53.0679 53.4669 53.0679C53.7586 53.0679 54.0415 52.9683 54.2688 52.7856L55.6832 51.656C55.8366 51.5339 56.0268 51.4672 56.2229 51.4667H57.8667C58.1496 51.4667 58.4209 51.5791 58.6209 51.7791C58.821 51.9792 58.9333 52.2505 58.9333 52.5334C58.9333 52.8163 58.821 53.0876 58.6209 53.2876C58.4209 53.4876 58.1496 53.6 57.8667 53.6H40.8C40.5171 53.6 40.2458 53.4876 40.0458 53.2876C39.8457 53.0876 39.7333 52.8163 39.7333 52.5334ZM53.0667 41.8667C54.622 41.8685 56.1132 42.4872 57.213 43.587C58.3128 44.6868 58.9315 46.178 58.9333 47.7334C58.9333 47.8748 58.8771 48.0105 58.7771 48.1105C58.6771 48.2105 58.5415 48.2667 58.4 48.2667H40.2667C40.1252 48.2667 39.9896 48.2105 39.8895 48.1105C39.7895 48.0105 39.7333 47.8748 39.7333 47.7334C39.7352 46.178 40.3539 44.6868 41.4537 43.587C42.5535 42.4872 44.0446 41.8685 45.6 41.8667H53.0667ZM36.1467 30.7446L33.8912 30.1003C33.8404 30.0857 33.7975 30.0515 33.7719 30.0054C33.7462 29.9592 33.7398 29.9047 33.7541 29.8539L33.9376 29.2139C33.9528 29.1636 33.9871 29.1211 34.0331 29.0956C34.0791 29.0701 34.1332 29.0636 34.184 29.0774L37.2133 29.943C37.3243 29.9747 37.4221 30.0416 37.4918 30.1337C37.5615 30.2257 37.5995 30.3379 37.6 30.4534V33.3334H36.5333V31.2571C36.5333 31.1413 36.4955 31.0286 36.4258 30.9361C36.356 30.8437 36.258 30.7764 36.1467 30.7446ZM30.8491 34.695C30.893 34.6062 30.961 34.5314 31.0453 34.4793C31.1296 34.4272 31.2268 34.3997 31.3259 34.4H42.8075C42.9066 34.3997 43.0038 34.4272 43.088 34.4793C43.1723 34.5314 43.2403 34.6062 43.2843 34.695L43.6704 35.4667H30.4629L30.8491 34.695ZM29.0667 36.5334H45.0667V38.1334H29.0667V36.5334ZM32.6827 58.9334C32.4143 58.9321 32.1562 58.8302 31.9594 58.6478C31.7626 58.4654 31.6414 58.2158 31.6197 57.9483L30.176 39.2H43.9579L43.8171 41.0411C42.3419 41.4346 41.0377 42.3036 40.1066 43.5135C39.1754 44.7234 38.6693 46.2066 38.6667 47.7334C38.6679 48.1295 38.817 48.5108 39.0848 48.8027C38.9364 48.9638 38.8231 49.154 38.7522 49.3612C38.6812 49.5685 38.6541 49.7882 38.6725 50.0064C38.6922 50.2145 38.7534 50.4164 38.8525 50.6004C38.9516 50.7844 39.0867 50.9465 39.2496 51.0774C38.8766 51.4683 38.668 51.9874 38.6667 52.5277C38.6654 53.068 38.8716 53.5882 39.2427 53.9808C39.0632 54.1294 38.9185 54.3157 38.819 54.5263C38.7195 54.737 38.6675 54.967 38.6667 55.2V55.7334C38.667 56.3395 38.7969 56.9386 39.0476 57.4905C39.2984 58.0424 39.6642 58.5344 40.1205 58.9334H32.6827ZM58.9333 55.7334C58.9325 56.5818 58.5951 57.3952 57.9951 57.9952C57.3952 58.5951 56.5818 58.9325 55.7333 58.9334H42.9333C42.0849 58.9325 41.2715 58.5951 40.6715 57.9952C40.0716 57.3952 39.7342 56.5818 39.7333 55.7334V55.2C39.7333 55.0586 39.7895 54.9229 39.8895 54.8229C39.9896 54.7229 40.1252 54.6667 40.2667 54.6667H58.4C58.5415 54.6667 58.6771 54.7229 58.7771 54.8229C58.8771 54.9229 58.9333 55.0586 58.9333 55.2V55.7334Z" fill="#FEFEFE"/>
            <path d="M46.6665 44H47.1999C47.3413 44 47.477 43.9438 47.577 43.8438C47.677 43.7438 47.7332 43.6081 47.7332 43.4667C47.7332 43.3252 47.677 43.1896 47.577 43.0896C47.477 42.9895 47.3413 42.9333 47.1999 42.9333H46.6665C46.5251 42.9333 46.3894 42.9895 46.2894 43.0896C46.1894 43.1896 46.1332 43.3252 46.1332 43.4667C46.1332 43.6081 46.1894 43.7438 46.2894 43.8438C46.3894 43.9438 46.5251 44 46.6665 44ZM45.0665 46.1333H45.5999C45.7413 46.1333 45.877 46.0772 45.977 45.9771C46.077 45.8771 46.1332 45.7415 46.1332 45.6C46.1332 45.4586 46.077 45.3229 45.977 45.2229C45.877 45.1229 45.7413 45.0667 45.5999 45.0667H45.0665C44.9251 45.0667 44.7894 45.1229 44.6894 45.2229C44.5894 45.3229 44.5332 45.4586 44.5332 45.6C44.5332 45.7415 44.5894 45.8771 44.6894 45.9771C44.7894 46.0772 44.9251 46.1333 45.0665 46.1333ZM49.8665 45.6H50.3999C50.5413 45.6 50.677 45.5438 50.777 45.4438C50.877 45.3438 50.9332 45.2081 50.9332 45.0667C50.9332 44.9252 50.877 44.7896 50.777 44.6896C50.677 44.5895 50.5413 44.5333 50.3999 44.5333H49.8665C49.7251 44.5333 49.5894 44.5895 49.4894 44.6896C49.3894 44.7896 49.3332 44.9252 49.3332 45.0667C49.3332 45.2081 49.3894 45.3438 49.4894 45.4438C49.5894 45.5438 49.7251 45.6 49.8665 45.6Z" fill="#FEFEFE"/>
        </g>
    </g>
    <defs>
        <filter id="filter0_d_346_3939" x="0" y="0" width="88" height="88" filterUnits="userSpaceOnUse" color-interpolation-filters="sRGB">
            <feFlood flood-opacity="0" result="BackgroundImageFix"/>
            <feColorMatrix in="SourceAlpha" type="matrix" values="0 0 0 0 0 0 0 0 0 0 0 0 0 0 0 0 0 0 127 0" result="hardAlpha"/>
            <feOffset/>
            <feGaussianBlur stdDeviation="8"/>
            <feComposite in2="hardAlpha" operator="out"/>
            <feColorMatrix type="matrix" values="0 0 0 0 1 0 0 0 0 0.309804 0 0 0 0 0.0588235 0 0 0 1 0"/>
            <feBlend mode="normal" in2="BackgroundImageFix" result="effect1_dropShadow_346_3939"/>
            <feBlend mode="normal" in="SourceGraphic" in2="effect1_dropShadow_346_3939" result="shape"/>
        </filter>
        <clipPath id="clip0_346_3939">
            <rect width="32" height="32" fill="white" transform="translate(28 28)"/>
        </clipPath>
    </defs>
</svg>
