<svg width="21" height="20" viewBox="0 0 21 20" fill="none" xmlns="http://www.w3.org/2000/svg">
    <g clip-path="url(#clip0_510_4730)">
        <path d="M0.5 10C0.5 4.486 4.986 0 10.5 0C12.727 0 14.8348 0.716476 16.5956 2.072L14.2718 5.09067C13.183 4.25257 11.8788 3.80952 10.5 3.80952C7.08657 3.80952 4.30952 6.58657 4.30952 10C4.30952 13.4134 7.08657 16.1905 10.5 16.1905C13.2492 16.1905 15.5855 14.3892 16.3907 11.9048H10.5V8.09524H20.5V10C20.5 15.514 16.014 20 10.5 20C4.986 20 0.5 15.514 0.5 10Z" fill="#848484"/>
    </g>
    <defs>
        <clipPath id="clip0_510_4730">
            <rect width="20" height="20" fill="white" transform="translate(0.5)"/>
        </clipPath>
    </defs>
</svg>
