<svg width="20" height="20" viewBox="0 0 20 20" fill="none" xmlns="http://www.w3.org/2000/svg">
    <g clip-path="url(#clip0_597_3509)">
        <path d="M19.5 8.69902C19.4994 8.69859 19.4989 8.69797 19.4984 8.6975L11.34 0.539453C10.9923 0.191484 10.5299 0 10.0382 0C9.54638 0 9.08403 0.191484 8.73614 0.539414L0.581964 8.69336C0.57923 8.69609 0.576339 8.69898 0.573761 8.70176C-0.140379 9.41996 -0.139129 10.5853 0.577277 11.3017C0.904543 11.6291 1.33665 11.8187 1.79888 11.8386C1.81778 11.8405 1.83673 11.8414 1.85579 11.8414H2.18079V17.8451C2.18079 19.0333 3.14759 20 4.33579 20H7.52763C7.85126 20 8.11357 19.7375 8.11357 19.414V14.707C8.11357 14.1649 8.5547 13.7239 9.09685 13.7239H10.9795C11.5217 13.7239 11.9626 14.1649 11.9626 14.707V19.4141C11.9626 19.7375 12.2249 20 12.5485 20H15.7404C16.9287 20 17.8954 19.0334 17.8954 17.8452V11.8414H18.1969C18.6885 11.8414 19.1509 11.6499 19.4989 11.3018C20.2161 10.5844 20.2164 9.41691 19.5 8.69898L19.5 8.69902ZM18.6702 10.4733C18.6082 10.5357 18.5344 10.5852 18.4532 10.6188C18.372 10.6525 18.2848 10.6698 18.1969 10.6696H17.3094C16.9858 10.6696 16.7234 10.9318 16.7234 11.2555V17.8452C16.7234 18.3871 16.2825 18.8281 15.7403 18.8281H13.1345V14.707C13.1345 13.5188 12.1678 12.552 10.9794 12.552H9.09689C7.90853 12.552 6.94173 13.5188 6.94173 14.707V18.8281H4.33587C3.79384 18.8281 3.35271 18.3871 3.35271 17.8452V11.2555C3.35271 10.9318 3.0904 10.6695 2.76677 10.6695H1.89454C1.8854 10.6689 1.87624 10.6685 1.86708 10.6683C1.69251 10.6652 1.5288 10.596 1.40614 10.4731C1.14521 10.2122 1.14521 9.78758 1.40614 9.52648C1.40626 9.52648 1.40626 9.52633 1.40642 9.52617L1.40689 9.5257L9.56497 1.36797C9.62694 1.30559 9.70068 1.25613 9.78191 1.22247C9.86314 1.18881 9.95025 1.17161 10.0382 1.17188C10.2168 1.17188 10.3849 1.24145 10.5113 1.36797L18.6676 9.52406L18.6714 9.52773C18.931 9.78914 18.9305 10.2129 18.6702 10.4733Z" fill="#FEFEFE"/>
    </g>
    <defs>
        <clipPath id="clip0_597_3509">
            <rect width="20" height="20" fill="white"/>
        </clipPath>
    </defs>
</svg>
