<svg width="56" height="56" viewBox="0 0 56 56" fill="none" xmlns="http://www.w3.org/2000/svg">
    <g clip-path="url(#clip0_838_1859)">
        <g clip-path="url(#clip1_838_1859)">
            <path d="M37.5 26.699C37.4994 26.6986 37.4989 26.698 37.4984 26.6975L29.34 18.5395C28.9923 18.1915 28.5299 18 28.0382 18C27.5464 18 27.084 18.1915 26.7361 18.5394L18.582 26.6934C18.5792 26.6961 18.5763 26.699 18.5738 26.7018C17.8596 27.42 17.8609 28.5853 18.5773 29.3017C18.9045 29.6291 19.3367 29.8187 19.7989 29.8386C19.8178 29.8405 19.8367 29.8414 19.8558 29.8414H20.1808V35.8451C20.1808 37.0333 21.1476 38 22.3358 38H25.5276C25.8513 38 26.1136 37.7375 26.1136 37.414V32.707C26.1136 32.1649 26.5547 31.7239 27.0968 31.7239H28.9795C29.5217 31.7239 29.9626 32.1649 29.9626 32.707V37.4141C29.9626 37.7375 30.2249 38 30.5485 38H33.7404C34.9287 38 35.8954 37.0334 35.8954 35.8452V29.8414H36.1969C36.6885 29.8414 37.1509 29.6499 37.4989 29.3018C38.2161 28.5844 38.2164 27.4169 37.5 26.699L37.5 26.699ZM36.6702 28.4733C36.6082 28.5357 36.5344 28.5852 36.4532 28.6188C36.372 28.6525 36.2848 28.6698 36.1969 28.6696H35.3094C34.9858 28.6696 34.7234 28.9318 34.7234 29.2555V35.8452C34.7234 36.3871 34.2825 36.8281 33.7403 36.8281H31.1345V32.707C31.1345 31.5188 30.1678 30.552 28.9794 30.552H27.0969C25.9085 30.552 24.9417 31.5188 24.9417 32.707V36.8281H22.3359C21.7938 36.8281 21.3527 36.3871 21.3527 35.8452V29.2555C21.3527 28.9318 21.0904 28.6695 20.7668 28.6695H19.8945C19.8854 28.6689 19.8762 28.6685 19.8671 28.6683C19.6925 28.6652 19.5288 28.596 19.4061 28.4731C19.1452 28.2122 19.1452 27.7876 19.4061 27.5265C19.4063 27.5265 19.4063 27.5263 19.4064 27.5262L19.4069 27.5257L27.565 19.368C27.6269 19.3056 27.7007 19.2561 27.7819 19.2225C27.8631 19.1888 27.9502 19.1716 28.0382 19.1719C28.2168 19.1719 28.3849 19.2414 28.5113 19.368L36.6676 27.5241L36.6714 27.5277C36.931 27.7891 36.9305 28.2129 36.6702 28.4733Z" fill="#FEFEFE"/>
        </g>
    </g>
    <defs>
        <clipPath id="clip0_838_1859">
            <rect width="56" height="56" rx="16" fill="white"/>
        </clipPath>
        <clipPath id="clip1_838_1859">
            <rect width="20" height="20" fill="white" transform="translate(18 18)"/>
        </clipPath>
    </defs>
</svg>
