<svg width="56" height="56" viewBox="0 0 56 56" fill="none" xmlns="http://www.w3.org/2000/svg">
    <rect width="56" height="56" rx="12" fill="#1E1E1E"/>
    <path d="M24.7073 22.3777H26.4225V24.0929C26.4225 24.2202 26.4731 24.3423 26.5631 24.4323C26.6531 24.5223 26.7752 24.5729 26.9025 24.5729H29.0977C29.225 24.5729 29.3471 24.5223 29.4371 24.4323C29.5271 24.3423 29.5777 24.2202 29.5777 24.0929V22.3777H31.2929C31.4202 22.3777 31.5423 22.3271 31.6323 22.2371C31.7223 22.1471 31.7729 22.025 31.7729 21.8977V19.7025C31.7729 19.5752 31.7223 19.4531 31.6323 19.3631C31.5423 19.2731 31.4202 19.2225 31.2929 19.2225H29.5777V17.5073C29.5777 17.38 29.5271 17.2579 29.4371 17.1679C29.3471 17.0779 29.225 17.0273 29.0977 17.0273H26.9025C26.7752 17.0273 26.6531 17.0779 26.5631 17.1679C26.4731 17.2579 26.4225 17.38 26.4225 17.5073V19.2225H24.7073C24.58 19.2225 24.4579 19.2731 24.3679 19.3631C24.2779 19.4531 24.2273 19.5752 24.2273 19.7025V21.8977C24.2273 22.025 24.2779 22.1471 24.3679 22.2371C24.4579 22.3271 24.58 22.3777 24.7073 22.3777ZM25.1873 20.1825H26.9025C27.0298 20.1825 27.1519 20.1319 27.2419 20.0419C27.3319 19.9519 27.3825 19.8298 27.3825 19.7025V17.9873H28.6177V19.7025C28.6177 19.8298 28.6683 19.9519 28.7583 20.0419C28.8483 20.1319 28.9704 20.1825 29.0977 20.1825H30.8129V21.4177H29.0977C28.9704 21.4177 28.8483 21.4683 28.7583 21.5583C28.6683 21.6483 28.6177 21.7704 28.6177 21.8977V23.6129H27.3825V21.8977C27.3825 21.7704 27.3319 21.6483 27.2419 21.5583C27.1519 21.4683 27.0298 21.4177 26.9025 21.4177H25.1873V20.1825ZM23.7761 30.2561H26.6241C26.7514 30.2561 26.8735 30.2055 26.9635 30.1155C27.0535 30.0255 27.1041 29.9034 27.1041 29.7761V26.9313C27.1041 26.804 27.0535 26.6819 26.9635 26.5919C26.8735 26.5019 26.7514 26.4513 26.6241 26.4513H23.7761C23.6488 26.4513 23.5267 26.5019 23.4367 26.5919C23.3467 26.6819 23.2961 26.804 23.2961 26.9313V29.7761C23.2961 29.9034 23.3467 30.0255 23.4367 30.1155C23.5267 30.2055 23.6488 30.2561 23.7761 30.2561ZM24.2561 27.4113H26.1441V29.2961H24.2561V27.4113ZM28.8961 26.9313V29.7761C28.8961 29.9034 28.9467 30.0255 29.0367 30.1155C29.1267 30.2055 29.2488 30.2561 29.3761 30.2561H32.2241C32.3514 30.2561 32.4735 30.2055 32.5635 30.1155C32.6535 30.0255 32.7041 29.9034 32.7041 29.7761V26.9313C32.7041 26.804 32.6535 26.6819 32.5635 26.5919C32.4735 26.5019 32.3514 26.4513 32.2241 26.4513H29.3761C29.2488 26.4513 29.1267 26.5019 29.0367 26.5919C28.9467 26.6819 28.8961 26.804 28.8961 26.9313ZM29.8561 27.4113H31.7441V29.2961H29.8561V27.4113ZM42.4001 20.8449H34.8801V15.9553H35.8977C36.025 15.9553 36.1471 15.9047 36.2371 15.8147C36.3271 15.7247 36.3777 15.6026 36.3777 15.4753V13.6001C36.3777 13.4728 36.3271 13.3507 36.2371 13.2607C36.1471 13.1707 36.025 13.1201 35.8977 13.1201H20.1025C19.9752 13.1201 19.8531 13.1707 19.7631 13.2607C19.6731 13.3507 19.6225 13.4728 19.6225 13.6001V15.4753C19.6225 15.6026 19.6731 15.7247 19.7631 15.8147C19.8531 15.9047 19.9752 15.9553 20.1025 15.9553H21.1201V20.8449H13.6001C13.4728 20.8449 13.3507 20.8955 13.2607 20.9855C13.1707 21.0755 13.1201 21.1976 13.1201 21.3249V23.2001C13.1201 23.3274 13.1707 23.4495 13.2607 23.5395C13.3507 23.6295 13.4728 23.6801 13.6001 23.6801H14.7201V39.5201H13.6001C13.4728 39.5201 13.3507 39.5707 13.2607 39.6607C13.1707 39.7507 13.1201 39.8728 13.1201 40.0001V42.4001C13.1201 42.5274 13.1707 42.6495 13.2607 42.7395C13.3507 42.8295 13.4728 42.8801 13.6001 42.8801H42.4001C42.5274 42.8801 42.6495 42.8295 42.7395 42.7395C42.8295 42.6495 42.8801 42.5274 42.8801 42.4001V40.0001C42.8801 39.8728 42.8295 39.7507 42.7395 39.6607C42.6495 39.5707 42.5274 39.5201 42.4001 39.5201H41.2801V23.6801H42.4001C42.5274 23.6801 42.6495 23.6295 42.7395 23.5395C42.8295 23.4495 42.8801 23.3274 42.8801 23.2001V21.3249C42.8801 21.1976 42.8295 21.0755 42.7395 20.9855C42.6495 20.8955 42.5274 20.8449 42.4001 20.8449ZM38.8001 34.7201H36.4001C36.2728 34.7201 36.1507 34.7707 36.0607 34.8607C35.9707 34.9507 35.9201 35.0728 35.9201 35.2001V39.5201H34.8801V23.6801H40.3201V39.5201H39.2801V35.2001C39.2801 35.0728 39.2295 34.9507 39.1395 34.8607C39.0495 34.7707 38.9274 34.7201 38.8001 34.7201ZM38.3201 35.6801V39.5201H36.8801V35.6801H38.3201ZM20.5825 14.9953V14.0801H35.4177V14.9953H20.5825ZM33.9201 15.9553V39.5201H31.0977V32.9761C31.0977 32.8488 31.0471 32.7267 30.9571 32.6367C30.8671 32.5467 30.745 32.4961 30.6177 32.4961H25.3825C25.2552 32.4961 25.1331 32.5467 25.0431 32.6367C24.9531 32.7267 24.9025 32.8488 24.9025 32.9761V39.5201H22.0801V15.9553H33.9201ZM28.4801 33.4561H30.1377V39.5201H28.4801V33.4561ZM25.8625 39.5201V33.4401H27.5201V39.5201H25.8625ZM14.0801 22.7201V21.8049H21.1201V22.7201H14.0801ZM19.6001 34.7201H17.2001C17.0728 34.7201 16.9507 34.7707 16.8607 34.8607C16.7707 34.9507 16.7201 35.0728 16.7201 35.2001V39.5201H15.6801V23.6801H21.1201V39.5201H20.0801V35.2001C20.0801 35.0728 20.0295 34.9507 19.9395 34.8607C19.8495 34.7707 19.7274 34.7201 19.6001 34.7201ZM19.1201 35.6801V39.5201H17.6801V35.6801H19.1201ZM41.9201 40.4801V41.9201H14.0801V40.4801H41.9201ZM41.9201 22.7201H34.8801V21.8049H41.9201V22.7201ZM19.4529 30.0801H17.3473C17.2203 30.081 17.0987 30.1318 17.0088 30.2216C16.919 30.3115 16.8682 30.4331 16.8673 30.5601V32.6657C16.8682 32.7928 16.919 32.9144 17.0088 33.0042C17.0987 33.094 17.2203 33.1449 17.3473 33.1457H19.4529C19.58 33.1449 19.7016 33.094 19.7914 33.0042C19.8812 32.9144 19.9321 32.7928 19.9329 32.6657V30.5601C19.9342 30.4961 19.9227 30.4325 19.8992 30.373C19.8757 30.3135 19.8406 30.2592 19.796 30.2134C19.7513 30.1675 19.698 30.131 19.6391 30.1059C19.5802 30.0809 19.5169 30.0677 19.4529 30.0673V30.0801ZM18.9729 32.1601H17.8273V31.0273H18.9729V32.1601ZM19.4529 25.2545H17.3473C17.2203 25.2554 17.0987 25.3062 17.0088 25.396C16.919 25.4859 16.8682 25.6075 16.8673 25.7345V27.8401C16.8682 27.9672 16.919 28.0888 17.0088 28.1786C17.0987 28.2684 17.2203 28.3193 17.3473 28.3201H19.4529C19.58 28.3193 19.7016 28.2684 19.7914 28.1786C19.8812 28.0888 19.9321 27.9672 19.9329 27.8401V25.7601C19.9342 25.6961 19.9227 25.6325 19.8992 25.573C19.8757 25.5135 19.8406 25.4592 19.796 25.4134C19.7513 25.3675 19.698 25.331 19.6391 25.3059C19.5802 25.2808 19.5169 25.2677 19.4529 25.2673V25.2545ZM18.9729 27.3601H17.8273V26.2273H18.9729V27.3601ZM38.6529 30.0545H36.5473C36.4203 30.0554 36.2987 30.1062 36.2088 30.196C36.119 30.2859 36.0682 30.4075 36.0673 30.5345V32.6401C36.0682 32.7672 36.119 32.8888 36.2088 32.9786C36.2987 33.0684 36.4203 33.1193 36.5473 33.1201H38.6529C38.78 33.1193 38.9016 33.0684 38.9914 32.9786C39.0812 32.8888 39.1321 32.7672 39.1329 32.6401V30.5601C39.1342 30.4961 39.1227 30.4325 39.0992 30.373C39.0757 30.3135 39.0406 30.2592 38.996 30.2134C38.9513 30.1675 38.898 30.131 38.8391 30.1059C38.7802 30.0809 38.7169 30.0677 38.6529 30.0673V30.0545ZM38.1729 32.1601H37.0273V31.0273H38.1729V32.1601ZM38.6529 25.2545H36.5473C36.4203 25.2554 36.2987 25.3062 36.2088 25.396C36.119 25.4859 36.0682 25.6075 36.0673 25.7345V27.8401C36.0682 27.9672 36.119 28.0888 36.2088 28.1786C36.2987 28.2684 36.4203 28.3193 36.5473 28.3201H38.6529C38.78 28.3193 38.9016 28.2684 38.9914 28.1786C39.0812 28.0888 39.1321 27.9672 39.1329 27.8401V25.7601C39.1342 25.6961 39.1227 25.6325 39.0992 25.573C39.0757 25.5135 39.0406 25.4592 38.996 25.4134C38.9513 25.3675 38.898 25.331 38.8391 25.3059C38.7802 25.2808 38.7169 25.2677 38.6529 25.2673V25.2545ZM38.1729 27.3601H37.0273V26.2273H38.1729V27.3601Z" fill="#FF4F0F"/>
</svg>
