<svg width="56" height="56" viewBox="0 0 56 56" fill="none" xmlns="http://www.w3.org/2000/svg">
    <rect width="56" height="56" rx="12" fill="#1E1E1E"/>
    <path d="M38 22.667H26C25.6333 22.667 25.3333 22.967 25.3333 23.3337V28.667H17.3333V19.3337C17.3333 18.967 17.0333 18.667 16.6667 18.667H14.6667C14.3 18.667 14 18.967 14 19.3337V36.667C14 37.0337 14.3 37.3337 14.6667 37.3337H16.6667C17.0333 37.3337 17.3333 37.0337 17.3333 36.667V33.3337H38.6667V36.667C38.6667 37.0337 38.9667 37.3337 39.3333 37.3337H41.3333C41.7 37.3337 42 37.0337 42 36.667V26.667C42 24.4603 40.2067 22.667 38 22.667ZM25.3333 32.0003H16.6667C16.3 32.0003 16 32.3003 16 32.667V36.0003H15.3333V20.0003H16V29.3337C16 29.7003 16.3 30.0003 16.6667 30.0003H25.3333V32.0003ZM40.6667 36.0003H40V32.667C40 32.3003 39.7 32.0003 39.3333 32.0003H26.6667V24.0003H38C39.4733 24.0003 40.6667 25.1937 40.6667 26.667V36.0003Z" fill="#FF4F0F"/>
    <path d="M18 24.6673C18 26.5073 19.4933 28.0007 21.3333 28.0007C23.1733 28.0007 24.6667 26.5073 24.6667 24.6673C24.6667 22.8273 23.1733 21.334 21.3333 21.334C19.4933 21.334 18 22.8273 18 24.6673ZM23.3333 24.6673C23.3333 25.7673 22.4333 26.6673 21.3333 26.6673C20.2333 26.6673 19.3333 25.7673 19.3333 24.6673C19.3333 23.5673 20.2333 22.6673 21.3333 22.6673C22.4333 22.6673 23.3333 23.5673 23.3333 24.6673Z" fill="#FF4F0F"/>
</svg>
