<svg width="33" height="33" viewBox="0 0 33 33" fill="none" xmlns="http://www.w3.org/2000/svg">
    <path d="M15.5173 3.16602C10.0855 3.16602 5.6665 7.58496 5.6665 13.0168C5.6665 14.805 6.46847 16.7282 6.50208 16.8094C6.7611 17.4242 7.27218 18.3791 7.64072 18.9389L14.3949 29.1727C14.6713 29.5922 15.0804 29.8327 15.5173 29.8327C15.9542 29.8327 16.3633 29.5922 16.6397 29.1733L23.3944 18.9389C23.7636 18.3791 24.2741 17.4242 24.5331 16.8094C24.5667 16.7288 25.3681 14.8056 25.3681 13.0168C25.3681 7.58496 20.9491 3.16602 15.5173 3.16602ZM23.4646 16.3597C23.2334 16.9108 22.7576 17.7991 22.4268 18.3009L15.672 28.5353C15.5387 28.7375 15.4964 28.7375 15.3632 28.5353L8.60841 18.3009C8.27754 17.7991 7.80181 16.9102 7.5706 16.3591C7.56075 16.3354 6.82542 14.5651 6.82542 13.0168C6.82542 8.22411 10.7246 4.32493 15.5173 4.32493C20.31 4.32493 24.2092 8.22411 24.2092 13.0168C24.2092 14.5674 23.4721 16.3423 23.4646 16.3597Z" fill="#FEFEFE"/>
    <path d="M15.5169 7.80273C12.641 7.80273 10.3018 10.1426 10.3018 13.0179C10.3018 15.8931 12.641 18.233 15.5169 18.233C18.3927 18.233 20.732 15.8931 20.732 13.0179C20.732 10.1426 18.3927 7.80273 15.5169 7.80273ZM15.5169 17.0741C13.2808 17.0741 11.4607 15.2546 11.4607 13.0179C11.4607 10.7811 13.2808 8.96165 15.5169 8.96165C17.753 8.96165 19.5731 10.7811 19.5731 13.0179C19.5731 15.2546 17.753 17.0741 15.5169 17.0741Z" fill="#FEFEFE"/>
</svg>
