<svg width="20" height="20" viewBox="0 0 20 20" fill="none" xmlns="http://www.w3.org/2000/svg">
    <g clip-path="url(#clip0_399_4052)">
        <path d="M10.8564 14.2969C11.2879 14.2969 11.6377 13.9471 11.6377 13.5156C11.6377 13.0842 11.2879 12.7344 10.8564 12.7344C10.425 12.7344 10.0752 13.0842 10.0752 13.5156C10.0752 13.9471 10.425 14.2969 10.8564 14.2969Z" fill="#FEFEFE"/>
        <path d="M13.4736 18.4375H3.74707C2.88551 18.4375 2.18457 17.7365 2.18457 16.875V10.4687C2.18457 9.60715 2.88551 8.90621 3.74707 8.90621H14.9971C15.175 8.90621 15.3161 8.92191 15.4286 8.95414C15.8434 9.07297 16.2759 8.83305 16.3948 8.41828C16.5136 8.00352 16.2737 7.57094 15.8589 7.45207C15.6045 7.37918 15.3226 7.34375 14.9971 7.34375H14.0581V4.58852C14.0581 2.0584 11.9553 0 9.37062 0C6.78594 0 4.68313 2.0584 4.68313 4.58852V7.34375H3.74707C2.02395 7.34375 0.62207 8.74562 0.62207 10.4688V16.875C0.62207 18.5981 2.02395 20 3.74707 20H13.4736C13.9051 20 14.2549 19.6502 14.2549 19.2188C14.2549 18.7873 13.9051 18.4375 13.4736 18.4375ZM6.24563 4.58852C6.24563 2.91996 7.6475 1.5625 9.37062 1.5625C11.0938 1.5625 12.4956 2.91996 12.4956 4.58852V7.34375H6.24563V4.58852Z" fill="#FEFEFE"/>
        <path d="M7.92676 14.2969C8.35823 14.2969 8.70801 13.9471 8.70801 13.5156C8.70801 13.0842 8.35823 12.7344 7.92676 12.7344C7.49529 12.7344 7.14551 13.0842 7.14551 13.5156C7.14551 13.9471 7.49529 14.2969 7.92676 14.2969Z" fill="#FEFEFE"/>
        <path d="M19.3768 12.9379C19.3597 11.4227 18.1217 10.1953 16.6025 10.1953C15.0728 10.1953 13.8281 11.4399 13.8281 12.9697C13.8281 13.4012 14.1779 13.751 14.6094 13.751C15.0409 13.751 15.3906 13.4012 15.3906 12.9697C15.3906 12.3015 15.9343 11.7578 16.6026 11.7578C17.2709 11.7578 17.8145 12.3015 17.8145 12.9697C17.8145 12.9768 17.8146 12.9839 17.8148 12.9909C17.811 13.2252 17.7393 13.4533 17.6086 13.6477C17.4778 13.842 17.2934 13.9943 17.0779 14.0861C16.3146 14.412 15.8213 15.1649 15.8213 16.0041V16.6797C15.8213 17.1112 16.1711 17.4609 16.6026 17.4609C17.0341 17.4609 17.3838 17.1112 17.3838 16.6797V16.0041C17.3838 15.7916 17.5046 15.6029 17.6914 15.5231C18.1921 15.3099 18.6189 14.9541 18.9187 14.5001C19.2185 14.046 19.3781 13.5137 19.3775 12.9696C19.3775 12.9589 19.3772 12.9484 19.3768 12.9379Z" fill="#FEFEFE"/>
        <path d="M16.5986 20C17.0301 20 17.3799 19.6502 17.3799 19.2188C17.3799 18.7873 17.0301 18.4375 16.5986 18.4375C16.1672 18.4375 15.8174 18.7873 15.8174 19.2188C15.8174 19.6502 16.1672 20 16.5986 20Z" fill="#FEFEFE"/>
        <path d="M4.99707 14.2969C5.42854 14.2969 5.77832 13.9471 5.77832 13.5156C5.77832 13.0842 5.42854 12.7344 4.99707 12.7344C4.5656 12.7344 4.21582 13.0842 4.21582 13.5156C4.21582 13.9471 4.5656 14.2969 4.99707 14.2969Z" fill="#FEFEFE"/>
    </g>
    <defs>
        <clipPath id="clip0_399_4052">
            <rect width="20" height="20" fill="white"/>
        </clipPath>
    </defs>
</svg>
