<svg width="56" height="56" viewBox="0 0 56 56" fill="none" xmlns="http://www.w3.org/2000/svg">
    <g clip-path="url(#clip0_838_1557)">
        <path d="M28 36.8C27.7152 36.8 27.4408 36.6969 27.2268 36.5095C26.4188 35.803 25.6399 35.1391 24.9526 34.5535L24.9491 34.5504C22.9342 32.8334 21.1943 31.3505 19.9836 29.8898C18.6304 28.2569 18 26.7085 18 25.0171C18 23.3737 18.5635 21.8576 19.5866 20.7478C20.6219 19.6249 22.0425 19.0065 23.5871 19.0065C24.7416 19.0065 25.7989 19.3715 26.7296 20.0912C27.1992 20.4545 27.6249 20.8992 28 21.4178C28.3752 20.8992 28.8008 20.4545 29.2706 20.0912C30.2012 19.3715 31.2585 19.0065 32.413 19.0065C33.9575 19.0065 35.3782 19.6249 36.4135 20.7478C37.4366 21.8576 38 23.3737 38 25.0171C38 26.7085 37.3698 28.2568 36.0165 29.8896C34.8058 31.3505 33.066 32.8332 31.0514 34.5501C30.3629 35.1367 29.5828 35.8016 28.773 36.5098C28.559 36.697 28.2843 36.8001 28 36.8ZM23.5871 20.178C22.3736 20.178 21.2588 20.6624 20.4478 21.5419C19.6248 22.4347 19.1714 23.6688 19.1714 25.0171C19.1714 26.4396 19.7001 27.7119 20.8856 29.1423C22.0314 30.5249 23.7356 31.9772 25.7089 33.6589L25.7125 33.6619C26.4024 34.2498 27.1844 34.9163 27.9983 35.628C28.8171 34.915 29.6003 34.2474 30.2915 33.6586C32.2647 31.9769 33.9688 30.5249 35.1145 29.1423C36.2998 27.7119 36.8286 26.4396 36.8286 25.0171C36.8286 23.6688 36.3752 22.4346 35.5522 21.5419C34.7413 20.6624 33.6264 20.178 32.413 20.178C31.524 20.178 30.7078 20.4607 29.9871 21.0179C29.3449 21.5147 28.8975 22.1428 28.6352 22.5822C28.5003 22.8082 28.2629 22.9431 28 22.9431C27.7371 22.9431 27.4996 22.8082 27.3647 22.5822C27.1026 22.1428 26.6552 21.5147 26.0128 21.0179C25.2922 20.4607 24.476 20.178 23.5871 20.178Z" fill="#FEFEFE"/>
    </g>
    <defs>
        <clipPath id="clip0_838_1557">
            <rect width="56" height="56" rx="16" fill="white"/>
        </clipPath>
    </defs>
</svg>
