<svg width="32" height="33" viewBox="0 0 32 33" fill="none" xmlns="http://www.w3.org/2000/svg">
    <path d="M16 29.6904C15.5729 29.6904 15.1612 29.5357 14.8403 29.2546C13.6283 28.1949 12.4599 27.199 11.429 26.3206L11.4237 26.316C8.40134 23.7404 5.7914 21.5161 3.97546 19.325C1.94553 16.8756 1 14.5531 1 12.0159C1 9.55085 1.84528 7.27665 3.37991 5.612C4.93288 3.92766 7.06376 3 9.38074 3C11.1125 3 12.6984 3.5475 14.0944 4.62715C14.7989 5.17207 15.4374 5.83905 16 6.617C16.5628 5.83905 17.2012 5.17207 17.9059 4.62715C19.3019 3.5475 20.8878 3 22.6196 3C24.9363 3 27.0674 3.92766 28.6204 5.612C30.155 7.27665 31.0001 9.55085 31.0001 12.0159C31.0001 14.553 30.0548 16.8756 28.0248 19.3248C26.2088 21.5161 23.5991 23.7402 20.5772 26.3156C19.5445 27.1954 18.3743 28.1928 17.1595 29.2551C16.8385 29.5359 16.4265 29.6906 16 29.6904ZM9.38074 4.75735C7.56046 4.75735 5.88825 5.48385 4.67173 6.80309C3.43715 8.14232 2.75711 9.99353 2.75711 12.0159C2.75711 14.1498 3.55018 16.0582 5.32839 18.2038C7.04706 20.2776 9.60346 22.4562 12.5634 24.9787L12.5688 24.9832C13.6036 25.8651 14.7767 26.8649 15.9975 27.9324C17.2257 26.8628 18.4006 25.8615 19.4374 24.9782C22.3971 22.4557 24.9532 20.2776 26.6719 18.2038C28.4499 16.0582 29.243 14.1498 29.243 12.0159C29.243 9.99347 28.5629 8.14226 27.3283 6.80309C26.112 5.48385 24.4397 4.75735 22.6196 4.75735C21.2861 4.75735 20.0618 5.18127 18.9808 6.01712C18.0174 6.76237 17.3463 7.70444 16.9528 8.36362C16.7506 8.70259 16.3944 8.90491 16 8.90491C15.6056 8.90491 15.2495 8.70259 15.0472 8.36362C14.654 7.70444 13.9829 6.76237 13.0192 6.01712C11.9383 5.18127 10.714 4.75735 9.38074 4.75735Z" fill="#FEFEFE"/>
</svg>
