<svg width="24" height="24" viewBox="0 0 24 24" fill="none" xmlns="http://www.w3.org/2000/svg">
    <path fill-rule="evenodd" clip-rule="evenodd" d="M17.5322 1.9466C16.6581 1.875 15.5696 1.875 14.1827 1.875H10.0673C8.68041 1.875 7.5919 1.875 6.71785 1.9466C5.82762 2.02127 5.09216 2.17266 4.42651 2.51635C3.33191 3.08024 2.44199 3.98007 1.88429 5.08684C1.54438 5.7599 1.39466 6.50353 1.32183 7.40366C1.25 8.28743 1.25 9.38805 1.25 10.7904V15.1499C1.25 15.7574 1.36832 16.3588 1.59822 16.92C1.82811 17.4812 2.16507 17.9911 2.58986 18.4206C3.44776 19.2881 4.61133 19.7754 5.82458 19.7754H6.43257C6.68446 19.7754 6.85644 20.0321 6.76337 20.2684C6.06838 22.0237 8.06837 23.6112 9.58986 22.5126L12.2312 20.6049L12.2818 20.5691C12.9987 20.0583 13.8529 19.7813 14.7299 19.7754H15.4947C17.0617 19.7754 18.0167 19.7754 18.82 19.5381C19.7555 19.2607 20.6071 18.7501 21.2965 18.053C21.9859 17.3559 22.491 16.4948 22.7653 15.5489C23 14.7367 23 13.7711 23 12.1866V10.7904C23 9.38805 23 8.28743 22.9292 7.40366C22.8553 6.50353 22.7056 5.7599 22.3657 5.08684C21.808 3.98007 20.9181 3.08024 19.8235 2.51635C19.1578 2.17266 18.4224 2.02025 17.5322 1.9466ZM5.11543 3.88394C5.53121 3.66913 6.04512 3.54332 6.84127 3.47785C7.64652 3.41137 8.67231 3.41034 10.1017 3.41034H14.1483C15.5777 3.41034 16.6035 3.41034 17.4087 3.47785C18.2049 3.54332 18.7188 3.67015 19.1356 3.88394C19.9446 4.30096 20.6022 4.96625 21.0142 5.78445C21.2266 6.20485 21.351 6.72447 21.4158 7.52948C21.4815 8.34369 21.4826 9.38089 21.4826 10.8262V12.0373C21.4826 13.8192 21.4745 14.5454 21.3086 15.1182C21.1058 15.8172 20.7325 16.4535 20.2231 16.9686C19.7137 17.4837 19.0844 17.8611 18.393 18.0662C17.8265 18.2339 17.1083 18.2421 15.346 18.2421H14.7198C13.533 18.25 12.3769 18.6247 11.4067 19.3161L8.70873 21.2647C8.41941 21.4734 8.04005 21.1726 8.17257 20.8392C8.28638 20.5518 8.32875 20.2405 8.29596 19.9327C8.26316 19.6249 8.15622 19.3299 7.98449 19.0736C7.81276 18.8172 7.58148 18.6074 7.31092 18.4624C7.04036 18.3175 6.73877 18.2418 6.43257 18.2421H5.82458C5.01378 18.2421 4.23618 17.9164 3.66286 17.3367C3.08953 16.757 2.76744 15.9708 2.76744 15.151V10.8252C2.76744 9.37987 2.76744 8.34267 2.83421 7.52846C2.89895 6.72345 3.0244 6.20383 3.23583 5.78342C3.64809 4.96507 4.30608 4.30078 5.11543 3.88394Z" fill="#FEFEFE"/>
    <path d="M9.09064 10.8252C9.09064 11.0965 8.98406 11.3567 8.79434 11.5485C8.60462 11.7404 8.34731 11.8481 8.07901 11.8481C7.81071 11.8481 7.5534 11.7404 7.36368 11.5485C7.17396 11.3567 7.06738 11.0965 7.06738 10.8252C7.06738 10.554 7.17396 10.2938 7.36368 10.102C7.5534 9.91014 7.81071 9.80237 8.07901 9.80237C8.34731 9.80237 8.60462 9.91014 8.79434 10.102C8.98406 10.2938 9.09064 10.554 9.09064 10.8252ZM13.1372 10.8252C13.1372 11.0965 13.0306 11.3567 12.8409 11.5485C12.6511 11.7404 12.3938 11.8481 12.1255 11.8481C11.8572 11.8481 11.5999 11.7404 11.4102 11.5485C11.2205 11.3567 11.1139 11.0965 11.1139 10.8252C11.1139 10.554 11.2205 10.2938 11.4102 10.102C11.5999 9.91014 11.8572 9.80237 12.1255 9.80237C12.3938 9.80237 12.6511 9.91014 12.8409 10.102C13.0306 10.2938 13.1372 10.554 13.1372 10.8252ZM17.1837 10.8252C17.1837 11.0965 17.0771 11.3567 16.8874 11.5485C16.6976 11.7404 16.4403 11.8481 16.172 11.8481C15.9037 11.8481 15.6464 11.7404 15.4567 11.5485C15.267 11.3567 15.1604 11.0965 15.1604 10.8252C15.1604 10.554 15.267 10.2938 15.4567 10.102C15.6464 9.91014 15.9037 9.80237 16.172 9.80237C16.4403 9.80237 16.6976 9.91014 16.8874 10.102C17.0771 10.2938 17.1837 10.554 17.1837 10.8252Z" fill="#FEFEFE"/>
</svg>
