<svg width="56" height="56" viewBox="0 0 56 56" fill="none" xmlns="http://www.w3.org/2000/svg">
    <rect width="56" height="56" rx="12" fill="#1E1E1E"/>
    <path d="M42.2891 40.375H41.5V29.1481C41.5 28.6591 41.3057 28.1901 40.96 27.8443C40.6142 27.4986 40.1452 27.3043 39.6562 27.3043C39.1673 27.3043 38.6983 27.4986 38.3525 27.8443C38.0068 28.1901 37.8125 28.6591 37.8125 29.1481V30.9974C37.6875 32.1776 36.7598 33.2779 35.0739 34.1514C34.6046 34.3897 34.1207 34.598 33.625 34.775V29.0625H36.7183C36.9945 29.0625 37.1875 28.8156 37.1875 28.5394V24.897C37.1875 24.6209 36.9945 24.375 36.7183 24.375H30.375V23.9062C31.6244 23.1058 32.4228 21.5111 32.4228 19.7885C32.4228 18.2104 31.5847 16.6116 30.3125 15.7183V15.0625H30.5625C30.6951 15.0625 30.8223 15.0098 30.9161 14.9161C31.0098 14.8223 31.0625 14.6951 31.0625 14.5625V13.375C31.0625 13.2424 31.0098 13.1152 30.9161 13.0214C30.8223 12.9277 30.6951 12.875 30.5625 12.875H25.25C25.1174 12.875 24.9902 12.9277 24.8964 13.0214C24.8027 13.1152 24.75 13.2424 24.75 13.375V14.5625C24.75 14.6951 24.8027 14.8223 24.8964 14.9161C24.9902 15.0098 25.1174 15.0625 25.25 15.0625H25.5V15.7188C24.2771 16.5821 23.5282 18.0945 23.5282 19.7375C23.5282 21.3484 24.3291 22.8988 25.5892 23.784L25.6011 24.375H19.2817C19.0055 24.375 18.8125 24.6209 18.8125 24.897V28.5394C18.8125 28.8156 19.0055 29.0625 19.2817 29.0625H22.375V34.7761C21.8819 34.5993 21.4005 34.3912 20.9339 34.153C19.402 33.3592 18.5 32.3771 18.25 31.3188V29.1481C18.25 28.6508 18.0525 28.1739 17.7008 27.8222C17.3492 27.4706 16.8723 27.2731 16.375 27.2731C15.8777 27.2731 15.4008 27.4706 15.0492 27.8222C14.6975 28.1739 14.5 28.6508 14.5 29.1481V40.5H13.7109C13.4347 40.5 13.1875 40.697 13.1875 40.9731V42.625C13.1928 42.76 13.2504 42.8876 13.3481 42.9809C13.4457 43.0742 13.5759 43.1259 13.7109 43.125H18.9609C19.0254 43.1245 19.0891 43.1111 19.1482 43.0855C19.2073 43.0599 19.2607 43.0227 19.3052 42.976C19.3497 42.9294 19.3843 42.8742 19.407 42.8139C19.4297 42.7536 19.4401 42.6894 19.4375 42.625V40.9731C19.4396 40.9101 19.4287 40.8474 19.4054 40.7888C19.3822 40.7302 19.3471 40.6771 19.3024 40.6327C19.2577 40.5882 19.2042 40.5535 19.1455 40.5307C19.0867 40.5079 19.0239 40.4974 18.9609 40.5H18.25V33.3704C18.8125 33.9899 19.5361 34.555 20.4739 35.0409C21.0847 35.3566 21.7205 35.6211 22.375 35.8317V41.1014C22.3777 41.2381 22.4326 41.3686 22.5286 41.466C22.6246 41.5634 22.7542 41.6203 22.8909 41.625H33.1091C33.2458 41.6203 33.3754 41.5634 33.4714 41.466C33.5674 41.3686 33.6223 41.2381 33.625 41.1014V35.8317C34.282 35.6211 34.9205 35.3566 35.5339 35.0409C36.4991 34.5409 37.25 33.9569 37.8125 33.3159V40.375H37.0391C36.9761 40.3725 36.9132 40.3829 36.8545 40.4058C36.7957 40.4286 36.7423 40.4634 36.6976 40.5078C36.6529 40.5522 36.6178 40.6054 36.5945 40.664C36.5713 40.7226 36.5604 40.7854 36.5625 40.8484V42.5C36.5599 42.5644 36.5702 42.6287 36.5929 42.689C36.6156 42.7493 36.6503 42.8044 36.6947 42.8511C36.7392 42.8977 36.7926 42.935 36.8518 42.9606C36.9109 42.9861 36.9746 42.9996 37.0391 43H42.2891C42.4241 43.0009 42.5543 42.9493 42.652 42.8559C42.7497 42.7626 42.8072 42.635 42.8125 42.5V40.8481C42.8125 40.5723 42.5653 40.375 42.2891 40.375ZM26 14.0625H25.75V13.875H30.0625V14.0625H29.8125C29.6799 14.0625 29.5527 14.1152 29.4589 14.2089C29.3652 14.3027 29.3125 14.4299 29.3125 14.5625V15.9885C29.3125 16.0744 29.3346 16.1589 29.3768 16.2338C29.419 16.3087 29.4797 16.3714 29.5532 16.416C29.794 16.5631 30.0165 16.7382 30.2162 16.9375H25.6081C25.8021 16.7366 26.0209 16.5613 26.2593 16.416C26.3328 16.3714 26.3935 16.3087 26.4357 16.2338C26.4779 16.1589 26.5 16.0744 26.5 15.9885V14.5625C26.5 14.4299 26.4473 14.3027 26.3536 14.2089C26.2598 14.1152 26.1326 14.0625 26 14.0625ZM24.9229 17.9375H30.9516C31.2554 18.5076 31.417 19.1427 31.4228 19.7886C31.4226 20.1119 31.3873 20.4343 31.3176 20.75H24.6628C24.5744 20.4197 24.5292 20.0794 24.5282 19.7375C24.5261 19.1158 24.6608 18.5013 24.9229 17.9375ZM25.0721 21.75H30.9661C30.6898 22.3031 30.3012 22.7651 29.836 23.064C29.7105 23.0738 29.5934 23.1306 29.5079 23.223C29.4225 23.3154 29.375 23.4366 29.375 23.5625V24.3125H26.6L26.5842 23.5118C26.5825 23.4277 26.5597 23.3454 26.5178 23.2724C26.4758 23.1995 26.4162 23.1384 26.3444 23.0946C25.8137 22.7608 25.3761 22.2983 25.0721 21.75ZM16.375 28.2887C16.6045 28.2884 16.8248 28.3784 16.9886 28.5391C17.1523 28.6999 17.2462 28.9186 17.25 29.1481V30.4375H15.5V29.1481C15.5038 28.9186 15.5977 28.6999 15.7614 28.5391C15.9252 28.3784 16.1455 28.2884 16.375 28.2887ZM18.4375 42.125H14.1875V41.5H18.4375V42.125ZM17.25 40.5H15.5V31.4375H17.2414C17.2414 31.4375 17.25 31.4159 17.25 31.417V40.5ZM19.8125 25.375H36.1875V28.0625H19.8125V25.375ZM23.375 29.0625H32.625V35.0846C29.5902 35.8582 26.4099 35.8586 23.375 35.0856V29.0625ZM32.625 40.625H23.375V36.1192C26.4149 36.8512 29.5851 36.8512 32.625 36.1192V40.625ZM39.6562 28.2887C39.7682 28.2892 39.879 28.3118 39.9822 28.3554C40.0854 28.3989 40.179 28.4624 40.2574 28.5424C40.3359 28.6223 40.3977 28.717 40.4394 28.8209C40.481 28.9249 40.5016 29.0361 40.5 29.1481V30.4375H38.8125V29.1481C38.8109 29.0361 38.8315 28.9249 38.8731 28.8209C38.9148 28.717 38.9766 28.6223 39.0551 28.5424C39.1335 28.4624 39.2271 28.3989 39.3303 28.3554C39.4335 28.3118 39.5443 28.2892 39.6562 28.2887ZM38.8125 31.4375H40.5V40.375H38.8125V31.4375ZM41.8125 42H37.5625V41.375H41.8125V42Z" fill="#FF4F0F"/>
</svg>
