<svg width="18" height="18" viewBox="0 0 18 18" fill="none" xmlns="http://www.w3.org/2000/svg">
    <g clip-path="url(#clip0_159_1150)">
        <path d="M9.7399 11.5419C9.3954 11.5419 9.11613 11.8212 9.11613 12.1657V14.3681L4.8778 11.0131C4.68357 10.8598 4.44345 10.7763 4.19604 10.7759H2.16685V7.22055H4.19593C4.54043 7.22055 4.81969 6.94129 4.81969 6.59679C4.81969 6.25229 4.54043 5.97302 4.19593 5.97302H2.01782C1.41138 5.97373 0.919953 6.46515 0.91925 7.07159V10.925C0.919953 11.5314 1.41138 12.0228 2.01782 12.0235H4.14408L8.82418 15.7282C9.23561 16.0538 9.83308 15.9842 10.1587 15.5727C10.2915 15.4049 10.3637 15.1972 10.3637 14.9832V12.1657C10.3637 11.8212 10.0844 11.5419 9.73993 11.5419L9.7399 11.5419ZM17.8139 16.9317L15.1495 14.2673C17.8824 11.0501 17.6884 6.27387 14.7035 3.28886C14.4589 3.04636 14.0639 3.04812 13.8214 3.2928C13.5804 3.53596 13.5804 3.92788 13.8214 4.17101C16.334 6.68354 16.4831 10.6913 14.2634 13.3812L12.7991 11.9168C14.2453 10.0059 14.0606 7.32108 12.3661 5.62631C12.1215 5.38381 11.7265 5.38557 11.484 5.63028C11.243 5.87341 11.243 6.26533 11.484 6.50849C12.7061 7.73061 12.8472 9.64064 11.9046 11.0222L10.3638 9.48141V3.01325C10.3639 2.48861 9.9386 2.06323 9.41396 2.06316C9.19989 2.06312 8.99209 2.13539 8.82425 2.26826L5.65731 4.77513L1.06484 0.18269C0.821253 -0.0608967 0.426277 -0.0608967 0.18269 0.18269C-0.0608967 0.426277 -0.0608967 0.821253 0.18269 1.06484L9.29867 10.1809L9.29888 10.1811L16.9317 17.8139C17.1734 18.0594 17.5683 18.0624 17.8138 17.8208C18.0593 17.5791 18.0624 17.1841 17.8207 16.9386L17.8139 16.9317ZM9.1161 3.6284V8.23395L6.54543 5.66328L9.1161 3.6284Z" fill="#FEFEFE"/>
    </g>
    <defs>
        <clipPath id="clip0_159_1150">
            <rect width="18" height="18" fill="white"/>
        </clipPath>
    </defs>
</svg>
