<svg width="20" height="20" viewBox="0 0 20 20" fill="none" xmlns="http://www.w3.org/2000/svg">
    <path d="M9.99998 18.7994C9.71521 18.7994 9.44076 18.6963 9.22682 18.5089C8.41885 17.8024 7.63991 17.1385 6.95264 16.5529L6.94913 16.5498C4.93421 14.8327 3.19425 13.3499 1.98363 11.8892C0.63035 10.2562 0 8.70788 0 7.01643C0 5.37308 0.563515 3.85695 1.5866 2.74718C2.62191 1.6243 4.04249 1.00586 5.58714 1.00586C6.74163 1.00586 7.79889 1.37086 8.72955 2.09062C9.1992 2.4539 9.6249 2.89855 9.99998 3.41718C10.3752 2.89855 10.8008 2.4539 11.2706 2.09062C12.2012 1.37086 13.2585 1.00586 14.413 1.00586C15.9575 1.00586 17.3782 1.6243 18.4135 2.74718C19.4366 3.85695 20 5.37308 20 7.01643C20 8.70784 19.3698 10.2562 18.0165 11.889C16.8058 13.3499 15.066 14.8326 13.0514 16.5495C12.3629 17.1361 11.5828 17.801 10.773 18.5092C10.559 18.6964 10.2843 18.7995 9.99998 18.7994ZM5.58714 2.17742C4.37362 2.17742 3.25882 2.66175 2.44781 3.54124C1.62476 4.43406 1.1714 5.66819 1.1714 7.01643C1.1714 8.43901 1.70011 9.71127 2.88558 11.1417C4.03136 12.5242 5.73561 13.9766 7.70889 15.6583L7.71252 15.6613C8.40237 16.2492 9.1844 16.9157 9.9983 17.6274C10.8171 16.9143 11.6003 16.2468 12.2915 15.6579C14.2647 13.9763 15.9688 12.5242 17.1145 11.1417C18.2998 9.71127 18.8286 8.43901 18.8286 7.01643C18.8286 5.66815 18.3752 4.43402 17.5522 3.54124C16.7413 2.66175 15.6264 2.17742 14.413 2.17742C13.524 2.17742 12.7078 2.46004 11.9871 3.01726C11.3449 3.5141 10.8975 4.14214 10.6352 4.58159C10.5003 4.80757 10.2629 4.94245 9.99998 4.94245C9.73705 4.94245 9.49963 4.80757 9.36475 4.58159C9.10264 4.14214 8.65522 3.5141 8.0128 3.01726C7.29217 2.46004 6.47596 2.17742 5.58714 2.17742Z" fill="#FEFEFE"/>
</svg>
