<svg width="20" height="20" viewBox="0 0 20 20" fill="none" xmlns="http://www.w3.org/2000/svg">
    <path d="M9.23123 19.6875C7.58159 19.6875 6.23828 18.3296 6.23828 16.6602C6.23828 16.3259 6.50645 16.0547 6.83687 16.0547C7.16729 16.0547 7.43546 16.3259 7.43546 16.6602C7.43546 17.6621 8.24158 18.4766 9.23123 18.4766C10.2209 18.4766 11.027 17.6621 11.027 16.6602C11.027 16.3259 11.2952 16.0547 11.6256 16.0547C11.956 16.0547 12.2242 16.3259 12.2242 16.6602C12.2242 18.3296 10.881 19.6875 9.23123 19.6875Z" fill="#FEFEFE"/>
    <path d="M15.8156 17.2656H2.64666C1.8765 17.2656 1.25 16.6319 1.25 15.8529C1.24988 15.6489 1.29347 15.4472 1.37779 15.2619C1.4621 15.0765 1.58514 14.9118 1.73841 14.7792C1.75843 14.7614 1.77994 14.7453 1.80227 14.7307C2.97387 13.6965 3.64436 12.2087 3.64436 10.6377V8.38537C3.64436 5.26932 6.15126 2.73438 9.23115 2.73438C9.35888 2.73438 9.49696 2.73672 9.62473 2.75859C9.95103 2.81346 10.1714 3.12596 10.1171 3.45526C10.0628 3.78464 9.74833 4.00756 9.42831 3.95254C9.36445 3.94206 9.2943 3.94531 9.23115 3.94531C6.81135 3.94531 4.84154 5.93689 4.84154 8.38537V10.6377C4.84154 12.5882 3.99626 14.4337 2.52462 15.7002C2.51265 15.71 2.50229 15.7188 2.48942 15.7277C2.46169 15.7634 2.44679 15.8075 2.44718 15.8529C2.44718 15.9626 2.53824 16.0547 2.64666 16.0547H15.8156C15.9242 16.0547 16.0153 15.9626 16.0153 15.8529C16.0153 15.7963 15.9945 15.7552 15.9722 15.7277C15.9602 15.7188 15.9498 15.71 15.9378 15.7002C14.4653 14.4328 13.6209 12.5882 13.6209 10.6377V9.75789C13.6209 9.42367 13.8891 9.15242 14.2195 9.15242C14.5499 9.15242 14.8181 9.42367 14.8181 9.75789V10.6377C14.8181 12.2096 15.4893 13.6982 16.6625 14.7332C16.684 14.7477 16.7048 14.7631 16.7239 14.78C16.8773 14.9124 17.0004 15.0769 17.0847 15.2622C17.1691 15.4474 17.2127 15.649 17.2125 15.8529C17.2125 16.6319 16.586 17.2656 15.8156 17.2656Z" fill="#FEFEFE"/>
    <path d="M14.8178 8.38537C12.6174 8.38537 10.8271 6.57471 10.8271 4.34901C10.8271 2.12331 12.6174 0.3125 14.8178 0.3125C17.0182 0.3125 18.8083 2.12331 18.8083 4.34901C18.8083 6.57471 17.0182 8.38537 14.8178 8.38537ZM14.8178 1.52344C13.2773 1.52344 12.0243 2.79083 12.0243 4.34901C12.0243 5.90703 13.2773 7.17443 14.8178 7.17443C16.3581 7.17443 17.6111 5.90703 17.6111 4.34901C17.6111 2.79083 16.3581 1.52344 14.8178 1.52344Z" fill="#FEFEFE"/>
</svg>
