<svg width="56" height="56" viewBox="0 0 56 56" fill="none" xmlns="http://www.w3.org/2000/svg">
    <rect width="56" height="56" rx="12" fill="#1E1E1E"/>
    <g clip-path="url(#clip0_824_4247)">
        <path d="M43.4665 37.0663C43.608 37.0663 43.7436 37.0101 43.8436 36.9101C43.9436 36.8101 43.9998 36.6745 43.9998 36.533C43.9998 36.3916 43.9436 36.2559 43.8436 36.1559C43.7436 36.0559 43.608 35.9997 43.4665 35.9997H42.9332C42.9332 35.7052 42.6945 35.4664 42.3999 35.4664C42.1054 35.4664 41.8666 35.7052 41.8666 35.9997H33.3334C33.3334 35.8583 33.2772 35.7226 33.1772 35.6226C33.0772 35.5226 32.9415 35.4664 32.8001 35.4664C32.6586 35.4664 32.523 35.5226 32.423 35.6226C32.323 35.7226 32.2668 35.8583 32.2668 35.9997H31.7335C31.592 35.9997 31.4564 36.0559 31.3564 36.1559C31.2564 36.2559 31.2002 36.3916 31.2002 36.533C31.2002 36.6745 31.2564 36.8101 31.3564 36.9101C31.4564 37.0101 31.592 37.0663 31.7335 37.0663H32.2668V38.6663H31.7335C31.4389 38.6663 31.2002 38.905 31.2002 39.1996C31.2002 39.4941 31.4389 39.7329 31.7335 39.7329H32.2668V40.2662H31.7335C31.592 40.2662 31.4564 40.3224 31.3564 40.4224C31.2564 40.5224 31.2002 40.6581 31.2002 40.7995C31.2002 40.9409 31.2564 41.0766 31.3564 41.1766C31.4564 41.2766 31.592 41.3328 31.7335 41.3328H32.2668V42.9328H23.2002V38.5204C23.9891 38.9649 24.8792 39.1988 25.7848 39.1995C28.8135 39.1559 31.2356 36.6696 31.2 33.6407C31.2165 31.535 30.0406 29.6009 28.1634 28.6466C28.7813 27.8052 29.1125 26.7875 29.1079 25.7435C29.1265 23.4396 27.5103 21.4454 25.2525 20.9863C25.5337 20.366 25.6571 19.6858 25.6114 19.0062C25.5658 18.3267 25.3526 17.6691 24.9909 17.092C24.6292 16.5149 24.1303 16.0363 23.5386 15.699C22.947 15.3617 22.281 15.1761 21.6002 15.1588C21.5843 15.1588 21.5691 15.1611 21.5533 15.1613C21.2694 13.3259 19.679 11.9786 17.8219 12.0003C15.9648 12.0219 14.4063 13.4059 14.1652 15.2474C12.8147 15.5063 11.8824 16.7496 12.0123 18.1186C12.1423 19.4876 13.2919 20.5332 14.667 20.5333H17.7758C17.8239 20.6867 17.881 20.8371 17.9467 20.9838C15.6889 21.4445 14.0736 23.4394 14.0925 25.7436C14.088 26.7875 14.4191 27.8052 15.037 28.6467C13.1599 29.6011 11.984 31.535 12.0004 33.6408C11.9648 36.6696 14.387 39.156 17.4157 39.1996C18.3212 39.1989 19.2113 38.965 20.0002 38.5204V42.9328H12.5338C12.2392 42.9328 12.0005 43.1716 12.0005 43.4661C12.0005 43.7607 12.2392 43.9994 12.5338 43.9994H43.4665C43.608 43.9994 43.7436 43.9433 43.8436 43.8432C43.9436 43.7432 43.9998 43.6076 43.9998 43.4661C43.9998 43.3247 43.9436 43.1891 43.8436 43.089C43.7436 42.989 43.608 42.9328 43.4665 42.9328H42.9332V41.3329H43.4665C43.608 41.3329 43.7436 41.2767 43.8436 41.1767C43.9436 41.0767 43.9998 40.941 43.9998 40.7996C43.9998 40.6581 43.9436 40.5225 43.8436 40.4225C43.7436 40.3224 43.608 40.2663 43.4665 40.2663H42.9332V39.733H43.4665C43.608 39.733 43.7436 39.6768 43.8436 39.5768C43.9436 39.4767 43.9998 39.3411 43.9998 39.1997C43.9998 39.0582 43.9436 38.9226 43.8436 38.8226C43.7436 38.7225 43.608 38.6663 43.4665 38.6663H42.9332V37.0664L43.4665 37.0663ZM17.5797 19.2823C17.5797 19.3442 17.5867 19.4051 17.5895 19.4666H14.667C13.7834 19.4666 13.0671 18.7503 13.0671 17.8667C13.0671 16.983 13.7834 16.2667 14.667 16.2667C14.7371 16.2667 14.8065 16.2529 14.8712 16.2261C14.9359 16.1994 14.9947 16.1601 15.0442 16.1105C15.0938 16.061 15.1331 16.0022 15.1599 15.9375C15.1867 15.8727 15.2004 15.8034 15.2004 15.7333C15.1976 14.3415 16.2678 13.1826 17.6555 13.0747C19.0431 12.9668 20.2796 13.9463 20.4921 15.3219C18.7526 15.8532 17.5684 17.4635 17.5797 19.2823ZM22.1336 42.9329H21.0669V37.7364C21.258 37.5584 21.4363 37.3671 21.6002 37.1638C21.7642 37.3671 21.9424 37.5584 22.1335 37.7364L22.1336 42.9329ZM22.1983 36.1558L25.7106 32.6435C25.808 32.5429 25.862 32.4081 25.8609 32.2681C25.8598 32.1281 25.8037 31.9942 25.7047 31.8952C25.6057 31.7962 25.4718 31.7401 25.3318 31.739C25.1918 31.7379 25.057 31.7919 24.9565 31.8893L22.1336 34.7122V29.2873L24.6439 26.7769C24.7424 26.6766 24.7974 26.5414 24.7967 26.4008C24.7961 26.2602 24.74 26.1256 24.6406 26.0261C24.5411 25.9267 24.4065 25.8706 24.2658 25.8699C24.1252 25.8693 23.9901 25.9242 23.8897 26.0228L22.1335 27.779V25.3332C22.1335 25.1918 22.0773 25.0561 21.9773 24.9561C21.8773 24.8561 21.7417 24.7999 21.6002 24.7999C21.4588 24.7999 21.3231 24.8561 21.2231 24.9561C21.1231 25.0561 21.0669 25.1918 21.0669 25.3332V27.779L19.3107 26.0228C19.2101 25.9257 19.0754 25.872 18.9356 25.8732C18.7958 25.8744 18.662 25.9305 18.5632 26.0294C18.4643 26.1283 18.4082 26.262 18.407 26.4018C18.4057 26.5416 18.4594 26.6763 18.5565 26.7769L21.0669 29.2873V34.7122L18.244 31.8893C18.1434 31.7922 18.0087 31.7385 17.8688 31.7398C17.729 31.741 17.5953 31.7971 17.4964 31.896C17.3976 31.9948 17.3415 32.1286 17.3402 32.2684C17.339 32.4082 17.3927 32.5429 17.4898 32.6435L21.002 36.1558C20.6178 36.7595 20.088 37.2569 19.4613 37.6024C18.8346 37.9479 18.1311 38.1303 17.4155 38.133C14.9757 38.09 13.0307 36.0808 13.0669 33.6409C13.0443 31.7113 14.2639 29.9856 16.0903 29.3628C16.1771 29.3342 16.2551 29.2837 16.3168 29.2163C16.3785 29.1488 16.4218 29.0667 16.4426 28.9776C16.4633 28.8886 16.4609 28.7958 16.4354 28.708C16.4099 28.6202 16.3623 28.5404 16.2971 28.4763C15.9343 28.1201 15.6466 27.6947 15.4511 27.2253C15.2556 26.7559 15.1564 26.2521 15.1591 25.7436C15.1243 23.7086 16.7337 22.0245 18.7682 21.9671C18.8759 21.9766 18.984 21.9542 19.0791 21.9027C19.1741 21.8512 19.252 21.7729 19.3028 21.6775C19.3474 21.5896 19.3667 21.491 19.3586 21.3928C19.3505 21.2946 19.3152 21.2006 19.2568 21.1212C18.8614 20.5895 18.6475 19.9448 18.6463 19.2822C18.6203 17.6233 19.9414 16.2562 21.6002 16.2255C23.2589 16.2562 24.58 17.6233 24.554 19.2822C24.5529 19.9448 24.3389 20.5895 23.9436 21.1212C23.8863 21.2012 23.8524 21.2956 23.8458 21.3937C23.8391 21.4919 23.8599 21.59 23.9058 21.677C23.952 21.7653 24.0216 21.8392 24.107 21.8908C24.1924 21.9423 24.2902 21.9694 24.3899 21.9691C26.4392 22.006 28.0722 23.6942 28.0412 25.7436C28.0439 26.252 27.9446 26.7559 27.7492 27.2253C27.5537 27.6947 27.266 28.1201 26.9032 28.4763C26.838 28.5404 26.7903 28.6202 26.7648 28.708C26.7393 28.7958 26.7368 28.8886 26.7576 28.9777C26.7784 29.0667 26.8217 29.1489 26.8834 29.2164C26.9451 29.2838 27.0232 29.3342 27.11 29.3628C29.1583 30.0791 30.407 32.1517 30.0828 34.2972C29.7585 36.4428 27.9533 38.054 25.7848 38.133C25.0692 38.1303 24.3657 37.9479 23.739 37.6024C23.1124 37.2569 22.5826 36.7595 22.1983 36.1558ZM41.8665 42.9329H33.3334V41.3329H41.8665V42.9329ZM41.8665 40.2663H33.3334V39.733H41.8665V40.2663ZM41.8665 38.6663H33.3334V37.0663H41.8665V38.6663ZM34.9334 25.3332H41.3332C42.7083 25.3331 43.858 24.2875 43.9879 22.9185C44.1179 21.5495 43.1856 20.3062 41.835 20.0474C41.591 18.1893 40.0073 16.8 38.1333 16.8C36.2593 16.8 34.6756 18.1893 34.4316 20.0474C33.081 20.3062 32.1487 21.5495 32.2787 22.9185C32.4086 24.2875 33.5582 25.3331 34.9334 25.3332ZM34.9334 21.0666C35.0034 21.0666 35.0728 21.0529 35.1375 21.0261C35.2022 20.9993 35.261 20.96 35.3106 20.9105C35.3601 20.8609 35.3994 20.8021 35.4262 20.7374C35.453 20.6727 35.4668 20.6033 35.4667 20.5332C35.4667 19.0605 36.6606 17.8666 38.1334 17.8666C39.6061 17.8666 40.8 19.0604 40.8 20.5332C40.8 20.6033 40.8137 20.6727 40.8405 20.7374C40.8673 20.8021 40.9066 20.8609 40.9562 20.9105C41.0057 20.96 41.0645 20.9993 41.1292 21.0261C41.1939 21.0529 41.2633 21.0666 41.3334 21.0666C42.217 21.0666 42.9333 21.783 42.9333 22.6666C42.9333 23.5502 42.217 24.2665 41.3334 24.2665H34.9335C34.0499 24.2665 33.3335 23.5502 33.3335 22.6666C33.3335 21.7829 34.0497 21.0666 34.9334 21.0666Z" fill="#FF4F0F"/>
    </g>
    <defs>
        <clipPath id="clip0_824_4247">
            <rect width="32" height="32" fill="white" transform="translate(12 12)"/>
        </clipPath>
    </defs>
</svg>
