<svg width="56" height="56" viewBox="0 0 56 56" fill="none" xmlns="http://www.w3.org/2000/svg">
    <rect width="56" height="56" rx="12" fill="#1E1E1E"/>
    <g clip-path="url(#clip0_824_4240)">
        <path d="M43.4667 21.6H42.9333V15.7333C42.9333 15.5919 42.8771 15.4562 42.7771 15.3562C42.6771 15.2562 42.5415 15.2 42.4 15.2H33.3333V12.5333C33.3333 12.3919 33.2771 12.2562 33.1771 12.1562C33.0771 12.0562 32.9415 12 32.8 12H23.2C23.0586 12 22.9229 12.0562 22.8229 12.1562C22.7229 12.2562 22.6667 12.3919 22.6667 12.5333V15.2H13.6C13.4586 15.2 13.3229 15.2562 13.2229 15.3562C13.1229 15.4562 13.0667 15.5919 13.0667 15.7333V21.6H12.5333C12.3919 21.6 12.2562 21.6562 12.1562 21.7562C12.0562 21.8562 12 21.9919 12 22.1333V24.2667C12 24.4081 12.0562 24.5438 12.1562 24.6438C12.2562 24.7438 12.3919 24.8 12.5333 24.8H13.0667V43.4667C13.0667 43.6081 13.1229 43.7438 13.2229 43.8438C13.3229 43.9438 13.4586 44 13.6 44H42.4C42.5415 44 42.6771 43.9438 42.7771 43.8438C42.8771 43.7438 42.9333 43.6081 42.9333 43.4667V24.8H43.4667C43.6081 24.8 43.7438 24.7438 43.8438 24.6438C43.9438 24.5438 44 24.4081 44 24.2667V22.1333C44 21.9919 43.9438 21.8562 43.8438 21.7562C43.7438 21.6562 43.6081 21.6 43.4667 21.6ZM33.3333 16.2667H41.8667V21.6H33.3333V16.2667ZM23.7333 13.0667H32.2667V21.6H23.7333V13.0667ZM14.1333 16.2667H22.6667V21.6H14.1333V16.2667ZM38.1333 42.9333H31.2V38.6667H38.1333V42.9333ZM38.1333 37.6H31.2V32.2667H38.1333V37.6ZM38.1333 31.2H31.2V28.5333H38.1333V31.2ZM41.8667 42.9333H39.2V28C39.2 27.8586 39.1438 27.7229 39.0438 27.6229C38.9438 27.5229 38.8081 27.4667 38.6667 27.4667H30.6667C30.5252 27.4667 30.3896 27.5229 30.2895 27.6229C30.1895 27.7229 30.1333 27.8586 30.1333 28V42.9333H14.1333V24.8H41.8667V42.9333ZM42.9333 23.7333H13.0667V22.6667H42.9333V23.7333Z" fill="#FF4F0F"/>
        <path d="M17.3331 39.2005H26.9331C27.0746 39.2005 27.2102 39.1443 27.3103 39.0442C27.4103 38.9442 27.4665 38.8086 27.4665 38.6671V36.0005C27.4665 35.859 27.4103 35.7234 27.3103 35.6233C27.2102 35.5233 27.0746 35.4671 26.9331 35.4671H26.3998V28.0005C26.3998 27.859 26.3436 27.7234 26.2436 27.6233C26.1436 27.5233 26.0079 27.4671 25.8665 27.4671H18.3998C18.2584 27.4671 18.1227 27.5233 18.0227 27.6233C17.9227 27.7234 17.8665 27.859 17.8665 28.0005V35.4671H17.3331C17.1917 35.4671 17.056 35.5233 16.956 35.6233C16.856 35.7234 16.7998 35.859 16.7998 36.0005V38.6671C16.7998 38.8086 16.856 38.9442 16.956 39.0442C17.056 39.1443 17.1917 39.2005 17.3331 39.2005ZM18.9331 28.5338H25.3331V35.4671H18.9331V28.5338ZM17.8665 36.5338H26.3998V38.1338H17.8665V36.5338ZM36.5331 35.4671C36.6746 35.4671 36.8102 35.4109 36.9103 35.3109C37.0103 35.2109 37.0665 35.0752 37.0665 34.9338V34.4005C37.0665 34.259 37.0103 34.1234 36.9103 34.0233C36.8102 33.9233 36.6746 33.8671 36.5331 33.8671C36.3917 33.8671 36.256 33.9233 36.156 34.0233C36.056 34.1234 35.9998 34.259 35.9998 34.4005V34.9338C35.9998 35.0752 36.056 35.2109 36.156 35.3109C36.256 35.4109 36.3917 35.4671 36.5331 35.4671ZM30.6665 15.7338H29.5998V14.6671C29.5998 14.5257 29.5436 14.39 29.4436 14.29C29.3436 14.19 29.2079 14.1338 29.0665 14.1338H26.9331C26.7917 14.1338 26.656 14.19 26.556 14.29C26.456 14.39 26.3998 14.5257 26.3998 14.6671V15.7338H25.3331C25.1917 15.7338 25.056 15.79 24.956 15.89C24.856 15.99 24.7998 16.1257 24.7998 16.2671V18.4005C24.7998 18.5419 24.856 18.6776 24.956 18.7776C25.056 18.8776 25.1917 18.9338 25.3331 18.9338H26.3998V20.0005C26.3998 20.1419 26.456 20.2776 26.556 20.3776C26.656 20.4776 26.7917 20.5338 26.9331 20.5338H29.0665C29.2079 20.5338 29.3436 20.4776 29.4436 20.3776C29.5436 20.2776 29.5998 20.1419 29.5998 20.0005V18.9338H30.6665C30.8079 18.9338 30.9436 18.8776 31.0436 18.7776C31.1436 18.6776 31.1998 18.5419 31.1998 18.4005V16.2671C31.1998 16.1257 31.1436 15.99 31.0436 15.89C30.9436 15.79 30.8079 15.7338 30.6665 15.7338ZM30.1331 17.8671H29.0665C28.925 17.8671 28.7894 17.9233 28.6893 18.0233C28.5893 18.1234 28.5331 18.259 28.5331 18.4005V19.4671H27.4665V18.4005C27.4665 18.259 27.4103 18.1234 27.3103 18.0233C27.2102 17.9233 27.0746 17.8671 26.9331 17.8671H25.8665V16.8005H26.9331C27.0746 16.8005 27.2102 16.7443 27.3103 16.6442C27.4103 16.5442 27.4665 16.4086 27.4665 16.2671V15.2005H28.5331V16.2671C28.5331 16.4086 28.5893 16.5442 28.6893 16.6442C28.7894 16.7443 28.925 16.8005 29.0665 16.8005H30.1331V17.8671Z" fill="#FF4F0F"/>
        <path d="M20.9101 32.1103L22.5101 30.5103C22.6073 30.4097 22.661 30.275 22.6598 30.1351C22.6586 29.9953 22.6025 29.8615 22.5036 29.7627C22.4047 29.6638 22.271 29.6077 22.1311 29.6065C21.9913 29.6053 21.8566 29.659 21.756 29.7562L20.156 31.3562C20.105 31.4054 20.0644 31.4642 20.0365 31.5293C20.0085 31.5943 19.9938 31.6643 19.9932 31.7351C19.9926 31.806 20.0061 31.8762 20.0329 31.9417C20.0597 32.0073 20.0993 32.0668 20.1494 32.1169C20.1995 32.167 20.259 32.2066 20.3245 32.2334C20.3901 32.2602 20.4603 32.2737 20.5311 32.2731C20.6019 32.2725 20.6719 32.2578 20.737 32.2298C20.8021 32.2019 20.8609 32.1612 20.9101 32.1103ZM23.356 30.8228L20.6893 33.4895C20.6384 33.5387 20.5977 33.5975 20.5698 33.6626C20.5418 33.7277 20.5271 33.7977 20.5265 33.8685C20.5259 33.9393 20.5394 34.0095 20.5662 34.0751C20.593 34.1406 20.6326 34.2002 20.6827 34.2502C20.7328 34.3003 20.7923 34.3399 20.8579 34.3667C20.9234 34.3935 20.9936 34.407 21.0645 34.4064C21.1353 34.4058 21.2053 34.3911 21.2703 34.3631C21.3354 34.3352 21.3943 34.2946 21.4435 34.2436L24.1101 31.577C24.2073 31.4764 24.261 31.3416 24.2598 31.2018C24.2586 31.062 24.2025 30.9282 24.1036 30.8293C24.0047 30.7304 23.871 30.6743 23.7311 30.6731C23.5913 30.6719 23.4566 30.7257 23.356 30.8228Z" fill="#FF4F0F"/>
    </g>
    <defs>
        <clipPath id="clip0_824_4240">
            <rect width="32" height="32" fill="white" transform="translate(12 12)"/>
        </clipPath>
    </defs>
</svg>
