<svg width="20" height="20" viewBox="0 0 20 20" fill="none" xmlns="http://www.w3.org/2000/svg">
    <path d="M9.85748 9.63408C11.181 9.63408 12.3269 9.15936 13.2635 8.22276C14.1998 7.28635 14.6747 6.14057 14.6747 4.8169C14.6747 3.49363 14.2 2.34773 13.2634 1.41097C12.3268 0.474687 11.1808 0 9.85748 0C8.53378 0 7.38796 0.474687 6.45155 1.41113C5.51515 2.34757 5.04027 3.49351 5.04027 4.8169C5.04027 6.14057 5.51511 7.28651 6.45159 8.22295C7.38831 9.15924 8.53424 9.63408 9.85744 9.63408H9.85748ZM7.28042 2.23984C7.99893 1.52129 8.84186 1.17203 9.85748 1.17203C10.873 1.17203 11.716 1.52129 12.4347 2.23984C13.1532 2.95851 13.5026 3.80155 13.5026 4.81687C13.5026 5.83249 13.1532 6.67542 12.4347 7.39409C11.716 8.1128 10.873 8.46205 9.85748 8.46205C8.84213 8.46205 7.99928 8.11264 7.28042 7.39409C6.56171 6.67557 6.2123 5.83253 6.2123 4.8169C6.2123 3.80155 6.56171 2.95851 7.28042 2.23984ZM18.2863 15.379C18.2592 14.9893 18.2046 14.5641 18.1242 14.1153C18.043 13.663 17.9385 13.2354 17.8134 12.8447C17.684 12.4408 17.5084 12.0419 17.2909 11.6597C17.0655 11.2629 16.8007 10.9175 16.5034 10.6332C16.1926 10.3358 15.812 10.0967 15.372 9.92229C14.9335 9.74885 14.4474 9.66096 13.9276 9.66096C13.7234 9.66096 13.526 9.74471 13.1447 9.99299C12.8736 10.1695 12.6017 10.3448 12.3291 10.5188C12.0671 10.6857 11.7122 10.8421 11.2738 10.9837C10.8461 11.1221 10.4118 11.1923 9.98303 11.1923C9.55459 11.1923 9.1203 11.1221 8.69229 10.9837C8.2544 10.8422 7.89932 10.6859 7.63776 10.5189C7.33425 10.325 7.05964 10.148 6.82143 9.99279C6.44042 9.74455 6.24296 9.66076 6.03882 9.66076C5.51878 9.66076 5.03296 9.74881 4.59456 9.92248C4.1548 10.0966 3.7741 10.3357 3.46297 10.6334C3.16574 10.9178 2.90086 11.2631 2.67562 11.6597C2.45851 12.0419 2.28273 12.4406 2.15332 12.8448C2.02832 13.2356 1.92383 13.663 1.84266 14.1153C1.76207 14.5636 1.70762 14.9888 1.68059 15.3795C1.65402 15.7614 1.64062 16.1589 1.64062 16.5605C1.64062 17.6045 1.9725 18.4497 2.62695 19.073C3.27332 19.6881 4.12843 20 5.16859 20H14.7987C15.8386 20 16.6937 19.6881 17.3402 19.073C17.9948 18.4501 18.3267 17.6047 18.3267 16.5603C18.3265 16.1574 18.313 15.7599 18.2863 15.379ZM16.5321 18.2238C16.105 18.6303 15.538 18.8279 14.7985 18.8279H5.16863C4.42906 18.8279 3.86203 18.6303 3.43507 18.224C3.01625 17.8253 2.81269 17.281 2.81269 16.5605C2.81269 16.1857 2.82504 15.8157 2.8498 15.4605C2.87386 15.112 2.92316 14.7291 2.99629 14.3223C3.06843 13.9206 3.16027 13.5435 3.26953 13.2022C3.37437 12.8749 3.51734 12.5508 3.69464 12.2386C3.86386 11.941 4.05855 11.6858 4.27339 11.4801C4.47437 11.2877 4.72769 11.1302 5.02613 11.0121C5.30214 10.9028 5.61237 10.843 5.94913 10.834C5.99015 10.8559 6.06327 10.8975 6.18167 10.9747C6.42261 11.1317 6.7003 11.3109 7.00733 11.5069C7.35343 11.7276 7.79925 11.9269 8.33194 12.0988C8.87651 12.2749 9.43194 12.3643 9.98323 12.3643C10.5346 12.3643 11.0901 12.2749 11.6344 12.099C12.1675 11.9267 12.6132 11.7276 12.9598 11.5066C13.274 11.3058 13.5439 11.1319 13.7848 10.9747C13.9032 10.8976 13.9763 10.8558 14.0174 10.834C14.3543 10.843 14.6645 10.9028 14.9406 11.0121C15.239 11.1302 15.4923 11.2878 15.6932 11.4801C15.9081 11.6856 16.1027 11.9409 16.272 12.2388C16.4494 12.5508 16.5926 12.8751 16.6972 13.202C16.8067 13.5438 16.8986 13.9207 16.9707 14.3222C17.0436 14.7297 17.0931 15.1127 17.1172 15.4606V15.4609C17.142 15.8148 17.1545 16.1847 17.1547 16.5605C17.1545 17.2812 16.951 17.8253 16.5322 18.2238H16.5321Z" fill="#FEFEFE"/>
</svg>
