<svg width="56" height="56" viewBox="0 0 56 56" fill="none" xmlns="http://www.w3.org/2000/svg">
    <g clip-path="url(#clip0_838_1573)">
        <path d="M27.8575 27.6341C29.181 27.6341 30.3269 27.1594 31.2635 26.2228C32.1998 25.2864 32.6747 24.1406 32.6747 22.8169C32.6747 21.4936 32.2 20.3477 31.2634 19.411C30.3268 18.4747 29.1808 18 27.8575 18C26.5338 18 25.388 18.4747 24.4516 19.4111C23.5151 20.3476 23.0403 21.4935 23.0403 22.8169C23.0403 24.1406 23.5151 25.2865 24.4516 26.223C25.3883 27.1592 26.5342 27.6341 27.8574 27.6341H27.8575ZM25.2804 20.2398C25.9989 19.5213 26.8419 19.172 27.8575 19.172C28.873 19.172 29.716 19.5213 30.4347 20.2398C31.1532 20.9585 31.5026 21.8016 31.5026 22.8169C31.5026 23.8325 31.1532 24.6754 30.4347 25.3941C29.716 26.1128 28.873 26.4621 27.8575 26.4621C26.8421 26.4621 25.9993 26.1126 25.2804 25.3941C24.5617 24.6756 24.2123 23.8325 24.2123 22.8169C24.2123 21.8016 24.5617 20.9585 25.2804 20.2398ZM36.2863 33.379C36.2592 32.9893 36.2046 32.5641 36.1242 32.1153C36.043 31.663 35.9385 31.2354 35.8134 30.8447C35.684 30.4408 35.5084 30.0419 35.2909 29.6597C35.0655 29.2629 34.8007 28.9175 34.5034 28.6332C34.1926 28.3358 33.812 28.0967 33.372 27.9223C32.9335 27.7488 32.4474 27.661 31.9276 27.661C31.7234 27.661 31.526 27.7447 31.1447 27.993C30.8736 28.1695 30.6017 28.3448 30.3291 28.5188C30.0671 28.6857 29.7122 28.8421 29.2738 28.9837C28.8461 29.1221 28.4118 29.1923 27.983 29.1923C27.5546 29.1923 27.1203 29.1221 26.6923 28.9837C26.2544 28.8422 25.8993 28.6859 25.6378 28.5189C25.3342 28.325 25.0596 28.148 24.8214 27.9928C24.4404 27.7446 24.243 27.6608 24.0388 27.6608C23.5188 27.6608 23.033 27.7488 22.5946 27.9225C22.1548 28.0966 21.7741 28.3357 21.463 28.6334C21.1657 28.9178 20.9009 29.2631 20.6756 29.6597C20.4585 30.0419 20.2827 30.4406 20.1533 30.8448C20.0283 31.2356 19.9238 31.663 19.8427 32.1153C19.7621 32.5636 19.7076 32.9888 19.6806 33.3795C19.654 33.7614 19.6406 34.1589 19.6406 34.5605C19.6406 35.6045 19.9725 36.4497 20.627 37.073C21.2733 37.6881 22.1284 38 23.1686 38H32.7987C33.8386 38 34.6937 37.6881 35.3402 37.073C35.9948 36.4501 36.3267 35.6047 36.3267 34.5603C36.3265 34.1574 36.313 33.7599 36.2863 33.379ZM34.5321 36.2238C34.105 36.6303 33.538 36.8279 32.7985 36.8279H23.1686C22.4291 36.8279 21.862 36.6303 21.4351 36.224C21.0162 35.8253 20.8127 35.281 20.8127 34.5605C20.8127 34.1857 20.825 33.8157 20.8498 33.4605C20.8739 33.112 20.9232 32.7291 20.9963 32.3223C21.0684 31.9206 21.1603 31.5435 21.2695 31.2022C21.3744 30.8749 21.5173 30.5508 21.6946 30.2386C21.8639 29.941 22.0585 29.6858 22.2734 29.4801C22.4744 29.2877 22.7277 29.1302 23.0261 29.0121C23.3021 28.9028 23.6124 28.843 23.9491 28.834C23.9901 28.8559 24.0633 28.8975 24.1817 28.9747C24.4226 29.1317 24.7003 29.3109 25.0073 29.5069C25.3534 29.7276 25.7992 29.9269 26.3319 30.0988C26.8765 30.2749 27.4319 30.3643 27.9832 30.3643C28.5346 30.3643 29.0901 30.2749 29.6344 30.099C30.1675 29.9267 30.6132 29.7276 30.9598 29.5066C31.274 29.3058 31.5439 29.1319 31.7848 28.9747C31.9032 28.8976 31.9763 28.8558 32.0174 28.834C32.3543 28.843 32.6645 28.9028 32.9406 29.0121C33.239 29.1302 33.4923 29.2878 33.6932 29.4801C33.9081 29.6856 34.1027 29.9409 34.272 30.2388C34.4494 30.5508 34.5926 30.8751 34.6972 31.202C34.8067 31.5438 34.8986 31.9207 34.9707 32.3222C35.0436 32.7297 35.0931 33.1127 35.1172 33.4606V33.4609C35.142 33.8148 35.1545 34.1847 35.1547 34.5605C35.1545 35.2812 34.951 35.8253 34.5322 36.2238H34.5321Z" fill="#FEFEFE"/>
    </g>
    <defs>
        <clipPath id="clip0_838_1573">
            <rect width="56" height="56" rx="16" fill="white"/>
        </clipPath>
    </defs>
</svg>
