<svg width="20" height="20" viewBox="0 0 20 20" fill="none" xmlns="http://www.w3.org/2000/svg">
    <path fill-rule="evenodd" clip-rule="evenodd" d="M8.60035 1.13321C9.04043 0.935957 9.51725 0.833984 9.99951 0.833984C10.4818 0.833984 10.9586 0.935957 11.3987 1.13321C12.0078 1.40654 12.4512 1.93321 12.8528 2.54821C13.2545 3.16321 13.6962 4.00071 14.2462 5.04488L17.7687 11.729C18.2245 12.594 18.5937 13.2957 18.8312 13.8724C19.0712 14.4557 19.232 15.0357 19.1395 15.629C19.0697 16.0631 18.9101 16.4779 18.6709 16.8468C18.4317 17.2157 18.1182 17.5307 17.7503 17.7715C17.2553 18.0999 16.6612 18.2215 16.0112 18.2774C15.367 18.3332 14.5445 18.3332 13.5212 18.3332H6.47785C5.45451 18.3332 4.63201 18.3332 3.98785 18.2774C3.33785 18.2207 2.74368 18.0999 2.24868 17.7715C1.88098 17.5307 1.56753 17.2159 1.32834 16.8471C1.08915 16.4784 0.929477 16.0638 0.859513 15.6299C0.767013 15.0357 0.927846 14.4549 1.16785 13.8724C1.40451 13.2965 1.77451 12.594 2.23035 11.7299L5.75285 5.04488C6.30285 4.00071 6.74451 3.16321 7.14535 2.54821C7.54785 1.93238 7.99035 1.40654 8.60035 1.13238V1.13321ZM10.7145 2.65238C10.4895 2.55195 10.2459 2.50005 9.99951 2.50005C9.75313 2.50005 9.5095 2.55195 9.28451 2.65238C9.12535 2.72404 8.89951 2.91071 8.54118 3.45904C8.18785 4.00071 7.78285 4.76821 7.20618 5.86154L3.72535 12.4682C3.24451 13.3807 2.91201 14.0124 2.70868 14.5074C2.50451 15.004 2.48535 15.2374 2.50618 15.3732C2.56785 15.7699 2.80118 16.1382 3.17035 16.3832C3.31201 16.4765 3.56535 16.5674 4.13201 16.6165C4.69535 16.6665 5.44535 16.6665 6.51785 16.6665H13.4803C14.5537 16.6665 15.3037 16.6665 15.867 16.6165C16.4337 16.5674 16.687 16.4765 16.8287 16.3832C17.1978 16.1382 17.4312 15.7699 17.4928 15.3732C17.5137 15.2374 17.4945 15.004 17.2903 14.5065C17.087 14.0124 16.7545 13.3807 16.2737 12.4682L12.7928 5.86154C12.217 4.76821 11.8112 4.00154 11.4578 3.45904C11.0995 2.91071 10.8745 2.72404 10.7145 2.65238ZM9.99535 6.66654C10.1049 6.666 10.2134 6.68704 10.3148 6.72846C10.4161 6.76989 10.5083 6.83088 10.5861 6.90797C10.6639 6.98505 10.7257 7.07671 10.7681 7.1777C10.8104 7.27869 10.8324 7.38704 10.8328 7.49654L10.8512 11.6632C10.8516 11.7726 10.8305 11.8811 10.789 11.9824C10.7475 12.0836 10.6865 12.1757 10.6095 12.2534C10.5324 12.3311 10.4408 12.3929 10.3398 12.4352C10.2389 12.4775 10.1306 12.4994 10.0212 12.4999C9.91175 12.5003 9.8033 12.4792 9.70202 12.4377C9.60075 12.3962 9.50864 12.3352 9.43095 12.2582C9.35326 12.1811 9.29151 12.0895 9.24922 11.9885C9.20694 11.8876 9.18495 11.7793 9.18451 11.6699L9.16618 7.50321C9.16574 7.39377 9.18686 7.28533 9.22834 7.18405C9.26981 7.08278 9.33083 6.99067 9.4079 6.91298C9.48497 6.83528 9.57659 6.77353 9.67753 6.73125C9.77847 6.68897 9.88675 6.66698 9.99618 6.66654H9.99535ZM9.99951 13.3332C10.2205 13.3332 10.4325 13.421 10.5888 13.5773C10.745 13.7336 10.8328 13.9455 10.8328 14.1665V14.1749C10.8328 14.3959 10.745 14.6079 10.5888 14.7641C10.4325 14.9204 10.2205 15.0082 9.99951 15.0082C9.7785 15.0082 9.56654 14.9204 9.41026 14.7641C9.25398 14.6079 9.16618 14.3959 9.16618 14.1749V14.1665C9.16618 13.9455 9.25398 13.7336 9.41026 13.5773C9.56654 13.421 9.7785 13.3332 9.99951 13.3332Z" fill="#FEFEFE"/>
</svg>
