<svg width="56" height="56" viewBox="0 0 56 56" fill="none" xmlns="http://www.w3.org/2000/svg">
    <rect width="56" height="56" rx="12" fill="#1E1E1E"/>
    <g clip-path="url(#clip0_200_2432)">
        <path d="M40.4362 14.6917C40.2118 14.4674 39.848 14.4673 39.6235 14.6917L33.6655 20.6496C33.5851 20.7299 33.5303 20.8323 33.5081 20.9438C33.4859 21.0553 33.4973 21.1708 33.5408 21.2758C33.5843 21.3808 33.658 21.4706 33.7525 21.5337C33.847 21.5968 33.9581 21.6305 34.0718 21.6305C34.1472 21.6306 34.222 21.6158 34.2917 21.5869C34.3615 21.558 34.4248 21.5157 34.4781 21.4623L40.4362 15.5044C40.6606 15.2799 40.6606 14.9161 40.4362 14.6917ZM42.0565 16.2864C41.9487 16.1787 41.8025 16.1182 41.6501 16.1182C41.4977 16.1182 41.3516 16.1787 41.2438 16.2864L35.2858 22.2444C35.178 22.3522 35.1175 22.4983 35.1175 22.6507C35.1175 22.8031 35.178 22.9493 35.2857 23.0571C35.339 23.1105 35.4024 23.1529 35.4721 23.1817C35.5418 23.2106 35.6166 23.2254 35.6921 23.2253C35.7676 23.2254 35.8423 23.2106 35.912 23.1817C35.9818 23.1529 36.0451 23.1105 36.0985 23.0571L42.0565 17.099C42.1098 17.0457 42.1521 16.9823 42.181 16.9126C42.2099 16.8429 42.2248 16.7682 42.2248 16.6927C42.2248 16.6172 42.2099 16.5425 42.181 16.4728C42.1521 16.4031 42.1098 16.3397 42.0565 16.2864Z" fill="#FF4F0F"/>
        <path d="M36.4353 26.3468L43.8315 18.9507C43.8848 18.8973 43.9272 18.834 43.956 18.7642C43.9849 18.6945 43.9998 18.6198 43.9998 18.5443C43.9998 18.4689 43.9849 18.3941 43.956 18.3244C43.9272 18.2547 43.8848 18.1913 43.8315 18.138C43.607 17.9137 43.2432 17.9135 43.0188 18.138L35.6228 25.5341C34.7116 26.4452 33.3183 26.6843 32.1559 26.1292C32.0434 26.0754 31.9165 26.0597 31.7943 26.0845C31.6721 26.1092 31.5612 26.173 31.4785 26.2662L28.9654 29.0977C28.9644 29.0987 28.9633 29.0997 28.9623 29.1008C28.9613 29.1019 28.9605 29.1031 28.9595 29.1042L18.0977 41.3415L18.0895 41.351C18.0564 41.3902 18.0218 41.428 17.9857 41.4644C17.2685 42.1815 16.1016 42.1814 15.3847 41.4644C15.0373 41.117 14.846 40.6551 14.846 40.1639C14.846 39.6726 15.0373 39.2107 15.3853 38.8627C15.4215 38.8267 15.459 38.7922 15.498 38.7594C15.5013 38.7567 15.5044 38.7539 15.5075 38.7512L22.298 32.724C22.412 32.6229 22.4811 32.4806 22.4902 32.3285C22.4992 32.1763 22.4475 32.0268 22.3463 31.9129C22.1357 31.6754 21.7724 31.6537 21.5352 31.8645L14.7492 37.8877C14.688 37.9396 14.6289 37.994 14.5721 38.0507C14.0077 38.6152 13.6968 39.3656 13.6968 40.1639C13.6968 40.962 14.0076 41.7125 14.572 42.277C15.1547 42.8595 15.9199 43.1509 16.6853 43.1508C17.4503 43.1508 18.2157 42.8596 18.798 42.2773C18.8548 42.2204 18.9094 42.1612 18.9615 42.0999L27.2385 32.7745L35.5156 42.1C35.5675 42.1612 35.6219 42.2203 35.6787 42.2771C36.2612 42.8597 37.0265 43.1509 37.7917 43.1509C38.557 43.1509 39.3223 42.8596 39.905 42.277C41.07 41.1119 41.07 39.2161 39.9053 38.0512C39.8484 37.9944 39.7892 37.9399 39.7279 37.8878L30.2035 29.434L32.0669 27.3345C33.5767 27.8695 35.2851 27.4969 36.4353 26.3468ZM38.9694 38.7512L38.9789 38.7594C39.018 38.7925 39.0558 38.8272 39.0922 38.8633C39.8093 39.5804 39.8093 40.7472 39.0923 41.4642C38.3751 42.1813 37.2083 42.1813 36.4909 41.4639C36.4518 41.4247 36.4145 41.3839 36.379 41.3414L28.0067 31.9088L29.4404 30.2935L38.9694 38.7512Z" fill="#FF4F0F"/>
        <path d="M38.7112 13.0178C38.6034 12.9101 38.4572 12.8496 38.3048 12.8496C38.1524 12.8496 38.0063 12.9101 37.8985 13.0178L30.5025 20.414C29.3521 21.5643 28.9796 23.2725 29.5146 24.7826L27.2386 26.8027L25.0512 24.8612C26.1824 22.6355 25.7695 19.933 23.9749 18.1383C22.1925 16.356 20.128 15.1016 18.1617 14.6066C16.109 14.0899 14.3491 14.4348 13.2057 15.5781C12.0624 16.7215 11.7174 18.4816 12.2342 20.5341C12.7293 22.5003 13.9836 24.5648 15.7661 26.3471C17.5607 28.1419 20.2631 28.5548 22.4889 27.4236L24.6551 29.8641C24.709 29.9249 24.7752 29.9736 24.8493 30.0069C24.9235 30.0402 25.0038 30.0573 25.0851 30.0572C25.2257 30.0574 25.3614 30.0058 25.4664 29.9123L30.583 25.3708C30.6762 25.2881 30.74 25.1772 30.7647 25.055C30.7895 24.9328 30.7738 24.8059 30.7201 24.6934C30.1648 23.5308 30.4039 22.1377 31.3151 21.2266L38.7112 13.8305C38.7645 13.7772 38.8069 13.7138 38.8358 13.6441C38.8646 13.5744 38.8795 13.4996 38.8795 13.4242C38.8795 13.3487 38.8646 13.274 38.8358 13.2043C38.8069 13.1345 38.7645 13.0712 38.7112 13.0178ZM25.1332 28.6715L23.0414 26.3149C22.9517 26.2138 22.8291 26.1475 22.6954 26.1278C22.5616 26.1081 22.4251 26.1363 22.3101 26.2073C20.4677 27.3433 18.1108 27.0669 16.5786 25.5346C14.9408 23.8969 13.7937 22.0215 13.3486 20.2535C12.9345 18.6087 13.1724 17.2368 14.0184 16.3908C14.8644 15.5447 16.2362 15.307 17.881 15.7211C19.6489 16.1662 21.5245 17.3132 23.1621 18.951C24.6944 20.4831 24.9709 22.84 23.8347 24.6824C23.7638 24.7975 23.7357 24.9339 23.7554 25.0677C23.7751 25.2014 23.8413 25.324 23.9424 25.4138L26.3729 27.571L25.1332 28.6715Z" fill="#FF4F0F"/>
    </g>
    <defs>
        <clipPath id="clip0_200_2432">
            <rect width="32" height="32" fill="white" transform="translate(12 12)"/>
        </clipPath>
    </defs>
</svg>
