<svg width="20" height="20" viewBox="0 0 20 20" fill="none" xmlns="http://www.w3.org/2000/svg">
    <path d="M18.5686 17.6811L13.9373 13.0561C15.1309 11.6353 15.7299 9.80865 15.6094 7.957C15.4889 6.10535 14.6582 4.37172 13.2905 3.1177C11.9228 1.86368 10.1238 1.18611 8.26864 1.2263C6.41351 1.2665 4.64553 2.02136 3.33344 3.33344C2.02136 4.64553 1.2665 6.41351 1.2263 8.26864C1.18611 10.1238 1.86368 11.9228 3.1177 13.2905C4.37172 14.6582 6.10535 15.4889 7.957 15.6094C9.80865 15.7299 11.6353 15.1309 13.0561 13.9373L17.6811 18.5686C17.7392 18.6271 17.8083 18.6736 17.8844 18.7054C17.9606 18.7371 18.0423 18.7534 18.1248 18.7534C18.2073 18.7534 18.289 18.7371 18.3652 18.7054C18.4413 18.6736 18.5105 18.6271 18.5686 18.5686C18.6271 18.5105 18.6736 18.4413 18.7054 18.3652C18.7371 18.289 18.7534 18.2073 18.7534 18.1248C18.7534 18.0423 18.7371 17.9606 18.7054 17.8844C18.6736 17.8083 18.6271 17.7392 18.5686 17.6811ZM2.4998 8.4373C2.4998 7.26298 2.84803 6.11502 3.50045 5.1386C4.15287 4.16219 5.08018 3.40116 6.16512 2.95177C7.25006 2.50237 8.44389 2.38479 9.59565 2.61389C10.7474 2.84299 11.8054 3.40848 12.6357 4.23886C13.4661 5.06923 14.0316 6.12719 14.2607 7.27895C14.4898 8.43072 14.3722 9.62455 13.9228 10.7095C13.4734 11.7944 12.7124 12.7217 11.736 13.3742C10.7596 14.0266 9.61163 14.3748 8.4373 14.3748C6.86309 14.3731 5.35382 13.7471 4.24068 12.6339C3.12754 11.5208 2.50146 10.0115 2.4998 8.4373Z" fill="#FEFEFE"/>
</svg>
