<svg width="56" height="56" viewBox="0 0 56 56" fill="none" xmlns="http://www.w3.org/2000/svg">
    <g clip-path="url(#clip0_838_1550)">
        <path d="M36.5686 35.6813L31.9373 31.0562C33.1309 29.6355 33.7299 27.8088 33.6094 25.9572C33.4889 24.1056 32.6582 22.3719 31.2905 21.1179C29.9228 19.8639 28.1238 19.1863 26.2686 19.2265C24.4135 19.2667 22.6455 20.0216 21.3334 21.3336C20.0214 22.6457 19.2665 24.4137 19.2263 26.2688C19.1861 28.124 19.8637 29.923 21.1177 31.2907C22.3717 32.6584 24.1054 33.4891 25.957 33.6096C27.8087 33.7301 29.6353 33.1311 31.0561 31.9375L35.6811 36.5688C35.7392 36.6273 35.8083 36.6738 35.8844 36.7056C35.9606 36.7373 36.0423 36.7536 36.1248 36.7536C36.2073 36.7536 36.289 36.7373 36.3652 36.7056C36.4413 36.6738 36.5105 36.6273 36.5686 36.5688C36.6271 36.5106 36.6736 36.4415 36.7054 36.3654C36.7371 36.2892 36.7534 36.2075 36.7534 36.125C36.7534 36.0425 36.7371 35.9608 36.7054 35.8846C36.6736 35.8085 36.6271 35.7394 36.5686 35.6813ZM20.4998 26.4375C20.4998 25.2632 20.848 24.1152 21.5005 23.1388C22.1529 22.1624 23.0802 21.4014 24.1651 20.952C25.2501 20.5026 26.4439 20.385 27.5957 20.6141C28.7474 20.8432 29.8054 21.4087 30.6357 22.2391C31.4661 23.0694 32.0316 24.1274 32.2607 25.2792C32.4898 26.4309 32.3722 27.6247 31.9228 28.7097C31.4734 29.7946 30.7124 30.7219 29.736 31.3744C28.7596 32.0268 27.6116 32.375 26.4373 32.375C24.8631 32.3733 23.3538 31.7473 22.2407 30.6341C21.1275 29.521 20.5015 28.0117 20.4998 26.4375Z" fill="#FEFEFE"/>
    </g>
    <defs>
        <clipPath id="clip0_838_1550">
            <rect width="56" height="56" rx="16" fill="white"/>
        </clipPath>
    </defs>
</svg>
