<svg width="24" height="25" viewBox="0 0 24 25" fill="none" xmlns="http://www.w3.org/2000/svg">
    <path d="M3.08168 14.4445C2.55298 13.4941 2.28862 13.0188 2.28862 12.5C2.28862 11.9812 2.55298 11.5059 3.08169 10.5555L4.43094 8.13L5.85685 5.74876C6.4156 4.81567 6.69498 4.34912 7.14431 4.0897C7.59364 3.83028 8.13737 3.8216 9.22483 3.80426L12 3.76L14.7752 3.80426C15.8626 3.8216 16.4064 3.83028 16.8557 4.0897C17.305 4.34912 17.5844 4.81567 18.1431 5.74876L19.5691 8.13L20.9183 10.5555C21.447 11.5059 21.7114 11.9812 21.7114 12.5C21.7114 13.0188 21.447 13.4941 20.9183 14.4445L19.5691 16.87L18.1431 19.2512C17.5844 20.1843 17.305 20.6509 16.8557 20.9103C16.4064 21.1697 15.8626 21.1784 14.7752 21.1957L12 21.24L9.22483 21.1957C8.13737 21.1784 7.59364 21.1697 7.14431 20.9103C6.69498 20.6509 6.4156 20.1843 5.85685 19.2512L4.43094 16.87L3.08168 14.4445Z" stroke="#FEFEFE" stroke-width="2"/>
    <circle cx="12" cy="12.5" r="3" stroke="#FEFEFE" stroke-width="2"/>
</svg>
