<svg width="20" height="20" viewBox="0 0 20 20" fill="none" xmlns="http://www.w3.org/2000/svg">
    <g clip-path="url(#clip0_399_4061)">
        <path fill-rule="evenodd" clip-rule="evenodd" d="M1.66149 19.2316C2.04898 14.9916 5.61894 11.6667 9.95972 11.6667C11.1882 11.6636 12.4019 11.935 13.5122 12.4608C13.7102 12.5438 13.9327 12.5472 14.1332 12.4703C14.3337 12.3934 14.4968 12.2422 14.5886 12.0481C14.6804 11.8539 14.6938 11.6319 14.626 11.4281C14.5582 11.2244 14.4145 11.0546 14.2247 10.9542C12.8916 10.323 11.4346 9.99708 9.95972 10C4.75062 10 0.467334 13.9916 0.00150627 19.0799C-0.0186057 19.3 0.0495508 19.5191 0.190983 19.689C0.332415 19.8589 0.535537 19.9656 0.755664 19.9857C0.975791 20.0058 1.19489 19.9377 1.36477 19.7963C1.53464 19.6548 1.64137 19.4517 1.66149 19.2316Z" fill="#FEFEFE"/>
        <path fill-rule="evenodd" clip-rule="evenodd" d="M9.98146 0C7.23252 0 5 2.24082 5 4.99997C5 7.75911 7.23252 9.99993 9.98146 9.99993C12.7312 9.99993 14.9629 7.75911 14.9629 4.99997C14.9629 2.24082 12.7312 0 9.98146 0ZM9.98146 1.66666C11.8146 1.66666 13.3024 3.15998 13.3024 4.99997C13.3024 6.83995 11.8146 8.33328 9.98146 8.33328C8.14911 8.33328 6.66049 6.83995 6.66049 4.99997C6.66049 3.15998 8.14911 1.66666 9.98146 1.66666ZM17.5109 13.6807L17.5093 13.6191C17.5093 13.3719 17.5823 13.1302 17.7192 12.9246C17.856 12.7191 18.0505 12.5588 18.2781 12.4642C18.5056 12.3696 18.756 12.3449 18.9976 12.3931C19.2392 12.4413 19.4611 12.5604 19.6352 12.7352C19.8094 12.91 19.928 13.1327 19.9761 13.3752C20.0241 13.6177 19.9995 13.869 19.9052 14.0974C19.8109 14.3258 19.6513 14.5211 19.4465 14.6584C19.2417 14.7958 19.0009 14.8691 18.7546 14.8691H18.7497L18.7422 14.8732L16.5478 16.2499L18.5595 17.5124C18.8084 17.477 19.0622 17.518 19.2874 17.6301C19.5126 17.7421 19.6988 17.92 19.8214 18.1402C19.944 18.3605 19.9974 18.6128 19.9744 18.8641C19.9515 19.1154 19.8533 19.3538 19.6929 19.548C19.5324 19.7422 19.3171 19.8831 19.0753 19.9522C18.8336 20.0213 18.5766 20.0154 18.3383 19.9351C18.1 19.8549 17.8914 19.7042 17.74 19.5027C17.5886 19.3013 17.5015 19.0586 17.4902 18.8065L15.2053 17.3732C15.0187 17.4812 14.8074 17.5387 14.592 17.5402C14.3766 17.5418 14.1645 17.4873 13.9764 17.382C13.7883 17.2767 13.6305 17.1243 13.5186 16.9396C13.4066 16.7549 13.3442 16.5443 13.3376 16.3282C13.3309 16.1121 13.3801 15.898 13.4805 15.7067C13.5808 15.5154 13.7289 15.3535 13.9101 15.2367C14.0914 15.12 14.2998 15.0524 14.5148 15.0405C14.7299 15.0286 14.9443 15.0729 15.1373 15.1691L17.5109 13.6807Z" fill="#FEFEFE"/>
    </g>
    <defs>
        <clipPath id="clip0_399_4061">
            <rect width="20" height="20" fill="white"/>
        </clipPath>
    </defs>
</svg>
