<svg width="20" height="20" viewBox="0 0 20 20" fill="none" xmlns="http://www.w3.org/2000/svg">
    <path d="M15.8333 1.66602H10.8333C10.6123 1.66602 10.4004 1.75381 10.2441 1.91009C10.0878 2.06637 10 2.27834 10 2.49935C10 2.72036 10.0878 2.93232 10.2441 3.0886C10.4004 3.24489 10.6123 3.33268 10.8333 3.33268H15.8333C16.0543 3.33268 16.2663 3.42048 16.4226 3.57676C16.5789 3.73304 16.6667 3.945 16.6667 4.16602V15.8327C16.6667 16.0537 16.5789 16.2657 16.4226 16.4219C16.2663 16.5782 16.0543 16.666 15.8333 16.666H10.8333C10.6123 16.666 10.4004 16.7538 10.2441 16.9101C10.0878 17.0664 10 17.2783 10 17.4993C10 17.7204 10.0878 17.9323 10.2441 18.0886C10.4004 18.2449 10.6123 18.3327 10.8333 18.3327H15.8333C16.4964 18.3327 17.1323 18.0693 17.6011 17.6005C18.0699 17.1316 18.3333 16.4957 18.3333 15.8327V4.16602C18.3333 3.50297 18.0699 2.86709 17.6011 2.39825C17.1323 1.92941 16.4964 1.66602 15.8333 1.66602Z" fill="#FEFEFE"/>
    <path d="M6.42265 12.7433C6.50224 12.8202 6.56572 12.9122 6.6094 13.0138C6.65307 13.1155 6.67606 13.2249 6.67702 13.3355C6.67799 13.4462 6.6569 13.5559 6.615 13.6583C6.5731 13.7607 6.51122 13.8538 6.43298 13.932C6.35473 14.0102 6.26169 14.0721 6.15928 14.114C6.05686 14.1559 5.94713 14.177 5.83648 14.176C5.72583 14.1751 5.61648 14.1521 5.51481 14.1084C5.41314 14.0647 5.32119 14.0013 5.24431 13.9217L1.91098 10.5883C1.75475 10.4321 1.66699 10.2201 1.66699 9.99917C1.66699 9.7782 1.75475 9.56628 1.91098 9.41001L5.24431 6.07667C5.32119 5.99708 5.41314 5.9336 5.51481 5.88992C5.61648 5.84625 5.72583 5.82326 5.83648 5.8223C5.94713 5.82134 6.05686 5.84242 6.15928 5.88432C6.26169 5.92622 6.35473 5.9881 6.43298 6.06634C6.51122 6.14459 6.5731 6.23763 6.615 6.34004C6.6569 6.44246 6.67799 6.55219 6.67702 6.66284C6.67606 6.77349 6.65307 6.88284 6.6094 6.98451C6.56572 7.08618 6.50224 7.17813 6.42265 7.25501L4.51181 9.16584H14.1668C14.3878 9.16584 14.5998 9.25364 14.7561 9.40992C14.9124 9.5662 15.0001 9.77816 15.0001 9.99917C15.0001 10.2202 14.9124 10.4321 14.7561 10.5884C14.5998 10.7447 14.3878 10.8325 14.1668 10.8325H4.51181L6.42265 12.7433Z" fill="#FEFEFE"/>
</svg>
