<svg width="33" height="33" viewBox="0 0 33 33" fill="none" xmlns="http://www.w3.org/2000/svg">
    <g clip-path="url(#clip0_401_4124)">
        <path d="M7.82839 31.2288C7.47775 31.2288 7.12962 31.1194 6.83249 30.9046C6.56224 30.709 6.35546 30.4382 6.23787 30.126C6.12028 29.8138 6.09706 29.474 6.17109 29.1487L8.22977 20.0803L1.24809 13.9577C0.996998 13.7386 0.815863 13.4505 0.727227 13.1293C0.63859 12.8081 0.646364 12.4678 0.749582 12.151C0.852166 11.8343 1.04544 11.5547 1.30545 11.3468C1.56545 11.1389 1.88075 11.0119 2.21224 10.9816L11.4498 10.1429L15.1021 1.59596C15.3713 0.96801 15.9845 0.5625 16.666 0.5625C17.3474 0.5625 17.9607 0.96801 18.23 1.59453L21.8822 10.1429L31.1183 10.9815C31.7984 11.0427 32.3717 11.503 32.5824 12.1509C32.7931 12.7989 32.5983 13.5096 32.0851 13.9577L25.1035 20.0791L27.1621 29.1472C27.313 29.814 27.0542 30.5035 26.501 30.9034C25.949 31.3033 25.2128 31.334 24.6316 30.9846L16.666 26.2245L8.70047 30.9873C8.43115 31.1473 8.13108 31.2288 7.82839 31.2288ZM16.666 24.174C16.9687 24.174 17.2685 24.2552 17.5381 24.4152L25.0556 28.9114L23.1127 20.3523C23.0447 20.0532 23.0588 19.7412 23.1537 19.4494C23.2485 19.1577 23.4205 18.897 23.6515 18.695L30.2437 12.9136L21.522 12.1217C21.2151 12.0942 20.9215 11.9837 20.6725 11.8022C20.4235 11.6206 20.2286 11.3747 20.1087 11.0908L16.666 3.02525L13.2191 11.092C12.9765 11.6667 12.4364 12.0615 11.8099 12.1189L3.08702 12.9109L9.67906 18.6923C10.1512 19.1057 10.3577 19.7405 10.2178 20.3511L8.2764 28.9099L15.7939 24.4152C16.0632 24.2552 16.3633 24.174 16.666 24.174ZM11.3792 10.3081C11.3792 10.3081 11.3792 10.3096 11.3778 10.3108L11.3792 10.3081ZM21.9501 10.3042L21.9516 10.3069C21.9516 10.3054 21.9516 10.3054 21.9501 10.3042H21.9501Z" fill="#FEFEFE"/>
    </g>
    <defs>
        <clipPath id="clip0_401_4124">
            <rect width="32" height="32" fill="white" transform="translate(0.666016 0.5)"/>
        </clipPath>
    </defs>
</svg>
