<svg width="20" height="20" viewBox="0 0 20 20" fill="none" xmlns="http://www.w3.org/2000/svg">
    <g clip-path="url(#clip0_401_4332)">
        <path d="M18.1648 3.95518C17.4563 3.95518 16.8576 3.05518 16.8576 1.98965C16.8576 1.97603 16.8542 1.96327 16.8533 1.95007C16.8524 1.9264 16.85 1.90281 16.8461 1.87944C16.8427 1.85986 16.8371 1.84071 16.8325 1.82156C16.8265 1.80114 16.8214 1.78071 16.8133 1.76071C16.8056 1.74156 16.797 1.72281 16.7874 1.70454C16.7786 1.68623 16.7689 1.66834 16.7584 1.65093C16.7477 1.63415 16.736 1.61795 16.7235 1.60242C16.7109 1.5853 16.6974 1.56882 16.6831 1.55305C16.6699 1.53901 16.6559 1.52667 16.6414 1.5139C16.6252 1.49921 16.6083 1.4853 16.5908 1.4722C16.5745 1.46091 16.5578 1.4504 16.5405 1.44071C16.5222 1.43007 16.5044 1.41944 16.4848 1.4105C16.4648 1.40156 16.4439 1.39433 16.4231 1.3871C16.4095 1.38327 16.3967 1.37646 16.3827 1.37263C12.2669 0.279436 7.73246 0.279436 3.61671 1.37263C3.60352 1.37603 3.59203 1.38242 3.57927 1.38667C3.55669 1.39363 3.53453 1.40187 3.51288 1.41135C3.49501 1.41986 3.47799 1.42965 3.46097 1.43944C3.44226 1.44988 3.42408 1.46124 3.4065 1.47348C3.39019 1.48583 3.37443 1.49889 3.35927 1.51263C3.34437 1.52624 3.32905 1.53986 3.31544 1.55476C3.30172 1.56967 3.28879 1.58529 3.27671 1.60156C3.26395 1.61816 3.25118 1.63476 3.24012 1.65263C3.22991 1.66922 3.22097 1.68667 3.21203 1.70412C3.20267 1.72327 3.19331 1.74199 3.18565 1.76199C3.17799 1.78114 3.17288 1.80114 3.16693 1.82156C3.16182 1.84071 3.15629 1.85986 3.15288 1.87986C3.14933 1.90284 3.14706 1.92599 3.14608 1.94922C3.14523 1.96284 3.14182 1.97603 3.14182 1.98965C3.14182 3.05476 2.54352 3.95476 1.83544 3.95518H1.83459C1.6653 3.95518 1.50295 4.02243 1.38324 4.14213C1.26354 4.26184 1.19629 4.42419 1.19629 4.59348V10.1394C1.19629 13.9556 4.17501 15.7845 6.80352 17.3982C7.82012 18.0224 8.78054 18.6122 9.58693 19.296C9.59033 19.299 9.59459 19.2999 9.59799 19.3024C9.65076 19.3458 9.7082 19.3786 9.76906 19.402C9.7814 19.4067 9.79374 19.4101 9.8065 19.4139C9.86905 19.4339 9.93331 19.4471 9.99884 19.4475H9.99969C10.0652 19.4471 10.1295 19.4339 10.192 19.4139C10.2048 19.4097 10.2171 19.4062 10.2295 19.4016C10.2908 19.3777 10.3478 19.3454 10.4001 19.3028C10.4035 19.2999 10.4082 19.299 10.4116 19.296C11.218 18.6122 12.178 18.0224 13.1946 17.3982C15.8231 15.7845 18.8018 13.9556 18.8018 10.139V4.59348C18.8021 4.50969 18.7858 4.42666 18.7539 4.34918C18.722 4.27169 18.6751 4.20127 18.6159 4.14196C18.5568 4.08265 18.4864 4.03562 18.409 4.00356C18.3316 3.97151 18.2486 3.95507 18.1648 3.95518ZM12.5278 16.3105C11.6669 16.8394 10.7869 17.3871 9.99969 17.9977C9.21203 17.3871 8.33246 16.8394 7.47161 16.3105C4.90097 14.7326 2.47331 13.242 2.47331 10.1399V5.12752C3.46182 4.8105 4.22182 3.77901 4.38395 2.49773C8.02352 1.60965 11.9754 1.60965 15.6159 2.49773C15.7776 3.77901 16.538 4.81093 17.5265 5.12752V10.1394C17.5265 13.2416 15.098 14.7326 12.5278 16.3105Z" fill="#FEFEFE"/>
        <path d="M11.8171 9.19404C11.6729 9.04126 11.5053 8.91241 11.3205 8.81234C11.1418 8.71361 10.9388 8.61702 10.718 8.52468L10.3771 8.38127C10.1933 8.30468 10.0295 8.23361 9.88437 8.16851C9.76598 8.11705 9.65402 8.05192 9.55075 7.97447C9.47677 7.91955 9.41587 7.84892 9.37246 7.76766C9.33193 7.68199 9.31239 7.58791 9.31543 7.49319C9.31543 7.26255 9.38352 7.10723 9.5299 7.00383C9.69586 6.88681 9.9465 6.82766 10.2763 6.82766C10.5346 6.82766 10.7639 6.84851 10.958 6.89021C11.1563 6.93276 11.3333 6.98255 11.4839 7.03872L11.6763 7.10978L11.7546 6.92085C11.8614 6.66514 11.9326 6.39595 11.9661 6.12085L11.9861 5.95574L11.8308 5.89659C11.616 5.81847 11.3943 5.76076 11.1686 5.72425C10.9839 5.69234 10.7954 5.66893 10.6061 5.65361V4.85319L10.4444 4.81319C10.2222 4.75872 9.9299 4.75617 9.7116 4.81404L9.55331 4.85617V5.70893C9.07373 5.8034 8.6916 5.9983 8.41543 6.28936C8.10011 6.6217 7.94011 7.05106 7.94011 7.5651C7.94011 7.8217 7.97458 8.04766 8.04224 8.23702C8.11118 8.43064 8.2116 8.60042 8.34011 8.74255C8.46773 8.88284 8.61543 9.00344 8.77841 9.10042C8.93671 9.19532 9.11245 9.2817 9.29884 9.35617L9.72692 9.53447C9.93501 9.62383 10.1167 9.70298 10.2712 9.77106C10.4091 9.83234 10.5222 9.89872 10.6073 9.96936C10.6844 10.0328 10.7401 10.1043 10.7771 10.1877C10.815 10.2728 10.8346 10.3855 10.8346 10.5217C10.8346 10.7911 10.7435 10.9945 10.5554 11.1447C10.3576 11.3038 10.0346 11.3843 9.59586 11.3843C9.30905 11.3843 9.06309 11.3604 8.86522 11.314C8.65946 11.2657 8.45575 11.2091 8.25458 11.1443L8.06267 11.0821L7.99033 11.2702C7.93923 11.4038 7.89394 11.5395 7.85458 11.677C7.81263 11.8201 7.7847 11.9669 7.77118 12.1153L7.75586 12.283L7.91543 12.3366C8.04309 12.3791 8.16735 12.4183 8.28948 12.4553C8.41586 12.4932 8.54735 12.5247 8.68309 12.5498C8.81841 12.5753 8.96437 12.594 9.12267 12.6068C9.25331 12.617 9.39671 12.6234 9.55373 12.6251V13.5345L9.72139 13.5706C9.84216 13.5971 9.96541 13.6107 10.0891 13.6111C10.2087 13.6106 10.3279 13.5966 10.4444 13.5694L10.6069 13.5298V12.503C11.0959 12.3813 11.4882 12.1591 11.7746 11.843C12.0997 11.4847 12.2644 11.0191 12.2644 10.4591C12.2644 10.1762 12.2248 9.93021 12.1473 9.72851C12.0722 9.531 11.9601 9.34961 11.8171 9.19404Z" fill="#FEFEFE"/>
        <path d="M197.884 43.0825C190.165 43.0825 183.643 33.2783 183.643 21.6708C183.643 21.5224 183.606 21.3834 183.597 21.2397C183.587 20.9818 183.56 20.7247 183.518 20.4702C183.481 20.2569 183.421 20.0483 183.37 19.8397C183.305 19.6172 183.249 19.3947 183.161 19.1768C183.077 18.9682 182.983 18.7639 182.878 18.5649C182.782 18.3654 182.677 18.1705 182.563 17.9809C182.446 17.7981 182.319 17.6217 182.183 17.4524C182.045 17.2659 181.898 17.0865 181.743 16.9147C181.599 16.7617 181.446 16.6273 181.288 16.4882C181.112 16.3282 180.928 16.1766 180.737 16.0339C180.56 15.9109 180.377 15.7964 180.19 15.6909C179.99 15.575 179.796 15.4591 179.582 15.3618C179.364 15.2644 179.137 15.1856 178.91 15.1068C178.762 15.0651 178.623 14.9909 178.47 14.9492C133.634 3.04038 84.2377 3.04038 39.4023 14.9492C39.2586 14.9863 39.1335 15.0558 38.9944 15.1022C38.7484 15.178 38.507 15.2677 38.2713 15.371C38.0766 15.4637 37.8911 15.5704 37.7057 15.677C37.5019 15.7907 37.3039 15.9145 37.1124 16.0478C36.9347 16.1824 36.763 16.3247 36.5978 16.4743C36.4356 16.6226 36.2687 16.771 36.1203 16.9332C35.9709 17.0957 35.8301 17.2659 35.6985 17.4431C35.5594 17.6239 35.4204 17.8047 35.2999 17.9994C35.1886 18.1802 35.0913 18.3702 34.9939 18.5603C34.8919 18.7689 34.7899 18.9729 34.7065 19.1907C34.6231 19.3993 34.5674 19.6172 34.5025 19.8397C34.4469 20.0483 34.3866 20.2569 34.3496 20.4748C34.3109 20.7251 34.2861 20.9774 34.2754 21.2304C34.2661 21.3787 34.229 21.5224 34.229 21.6708C34.229 33.2736 27.7114 43.0779 19.9978 43.0825H19.9885C18.1444 43.0825 16.3758 43.8151 15.0718 45.1191C13.7677 46.4231 13.0352 48.1917 13.0352 50.0359V110.451C13.0352 152.023 45.4842 171.947 74.1182 189.525C85.1926 196.326 95.6551 202.751 104.44 210.2C104.477 210.232 104.523 210.242 104.56 210.269C105.135 210.742 105.761 211.099 106.424 211.354C106.558 211.405 106.692 211.442 106.832 211.484C107.513 211.702 108.213 211.846 108.927 211.85H108.936C109.65 211.846 110.35 211.702 111.031 211.484C111.17 211.438 111.305 211.4 111.439 211.35C112.107 211.09 112.728 210.738 113.298 210.274C113.335 210.242 113.386 210.232 113.423 210.2C122.208 202.751 132.666 196.326 143.74 189.525C172.374 171.947 204.823 152.023 204.823 110.447V50.0359C204.826 49.1231 204.649 48.2187 204.301 47.3746C203.954 46.5305 203.443 45.7633 202.798 45.1172C202.153 44.4711 201.387 43.9588 200.544 43.6096C199.7 43.2604 198.796 43.0813 197.884 43.0825ZM136.476 177.677C127.098 183.439 117.512 189.405 108.936 196.057C100.356 189.405 90.7739 183.439 81.3961 177.677C53.3925 160.488 26.9465 144.249 26.9465 110.456V55.8536C37.715 52.4 45.9941 41.1634 47.7603 27.2057C87.4084 17.5312 130.459 17.5312 170.116 27.2057C171.878 41.1634 180.162 52.4047 190.93 55.8536V110.451C190.93 144.245 164.475 160.488 136.476 177.677Z" fill="#FEFEFE"/>
    </g>
    <defs>
        <clipPath id="clip0_401_4332">
            <rect width="20" height="20" fill="white"/>
        </clipPath>
    </defs>
</svg>
