<svg width="56" height="56" viewBox="0 0 56 56" fill="none" xmlns="http://www.w3.org/2000/svg">
    <rect width="56" height="56" rx="12" fill="#1E1E1E"/>
    <g clip-path="url(#clip0_200_2447)">
        <path d="M42.9354 19.3312C42.2966 18.662 41.4144 18.2665 40.4106 18.2665H35.3612V18.2057C35.3612 17.4452 35.057 16.7152 34.5399 16.2285C34.0228 15.7114 33.3232 15.4072 32.5627 15.4072H23.4373C22.6464 15.4072 21.9468 15.7114 21.4297 16.2285C20.9125 16.7456 20.6084 17.4452 20.6084 18.2057V18.2665H15.5894C14.5856 18.2665 13.7034 18.662 13.0646 19.3312C12.4259 19.97 12 20.8825 12 21.8559V37.0042C12 38.008 12.3954 38.8901 13.0646 39.5289C13.7034 40.1677 14.616 40.5935 15.5894 40.5935H40.4106C41.4144 40.5935 42.2966 40.1981 42.9354 39.5289C43.5741 38.8901 44 37.9776 44 37.0042V21.8559C44 20.8521 43.6046 19.97 42.9354 19.3312ZM42.4182 37.0042H42.3878C42.3878 37.5517 42.1749 38.0384 41.8099 38.4034C41.4449 38.7684 40.9582 38.9814 40.4106 38.9814H15.5894C15.0418 38.9814 14.5551 38.7684 14.1901 38.4034C13.8251 38.0384 13.6122 37.5517 13.6122 37.0042V21.8559C13.6122 21.3084 13.8251 20.8217 14.1901 20.4567C14.5551 20.0916 15.0418 19.8787 15.5894 19.8787H21.4601C21.9163 19.8787 22.2814 19.5137 22.2814 19.0574V18.1753C22.2814 17.8407 22.403 17.5365 22.616 17.3236C22.8289 17.1106 23.1331 16.989 23.4677 16.989H32.5627C32.8973 16.989 33.2015 17.1106 33.4144 17.3236C33.6274 17.5365 33.749 17.8407 33.749 18.1753V19.0574C33.749 19.5137 34.1141 19.8787 34.5703 19.8787H40.4411C40.9886 19.8787 41.4753 20.0916 41.8403 20.4567C42.2053 20.8217 42.4182 21.3084 42.4182 21.8559V37.0042Z" fill="#FF4F0F"/>
        <path d="M28 21.9473C25.9315 21.9473 24.0456 22.799 22.7072 24.1374C21.3384 25.5062 20.5171 27.3617 20.5171 29.4302C20.5171 31.4986 21.3688 33.3845 22.7072 34.7229C24.076 36.0918 25.9315 36.913 28 36.913C30.0684 36.913 31.9544 36.0613 33.2928 34.7229C34.6616 33.3541 35.4829 31.4986 35.4829 29.4302C35.4829 27.3617 34.6312 25.4758 33.2928 24.1374C31.9544 22.799 30.0684 21.9473 28 21.9473ZM32.1369 33.5975C31.0722 34.6317 29.6121 35.3009 28 35.3009C26.3878 35.3009 24.9277 34.6317 23.8631 33.5975C22.7985 32.5328 22.1597 31.0727 22.1597 29.4606C22.1597 27.8484 22.8289 26.3883 23.8631 25.3237C24.9277 24.2591 26.3878 23.6203 28 23.6203C29.6121 23.6203 31.0722 24.2895 32.1369 25.3237C33.2015 26.3883 33.8403 27.8484 33.8403 29.4606C33.8707 31.0727 33.2015 32.5328 32.1369 33.5975Z" fill="#FF4F0F"/>
        <path d="M38.8289 24.898C39.652 24.898 40.3194 24.2307 40.3194 23.4075C40.3194 22.5843 39.652 21.917 38.8289 21.917C38.0057 21.917 37.3384 22.5843 37.3384 23.4075C37.3384 24.2307 38.0057 24.898 38.8289 24.898Z" fill="#FF4F0F"/>
    </g>
    <defs>
        <clipPath id="clip0_200_2447">
            <rect width="32" height="32" fill="white" transform="translate(12 12)"/>
        </clipPath>
    </defs>
</svg>
